<?xml version="1.0" encoding="utf-8"?>
<!-- Generator: Adobe Illustrator 27.5.0, SVG Export Plug-In . SVG Version: 6.00 Build 0)  -->
<svg version="1.1" xmlns="http://www.w3.org/2000/svg" xmlns:xlink="http://www.w3.org/1999/xlink" x="0px" y="0px"
	 viewBox="0 0 666.128 500" style="enable-background:new 0 0 666.128 500;" xml:space="preserve">
<g id="BACKGROUND">
	<rect y="0" style="fill:#FFFFFF;" width="666.128" height="500"/>
</g>
<g id="OBJEKTS">
	<g id="XMLID_55_">
	</g>
	<g id="XMLID_122_">
	</g>
	<path style="fill:#D5E4F5;" d="M384.07,471.533c33.217-1.359,66.402-3.578,99.515-6.657c37.066-3.447,73.34-10.477,94.541-45.785
		c22.927-38.184,22.626-82.737,25.465-125.911c2.868-43.613-2.339-85.759-4.972-128.985c-2.142-35.158-13.359-71.951-39.661-95.321
		c-22.271-19.788-51.985-27.234-80.77-31.984c-58.924-9.721-118.82-10.717-178.459-10.113c-36.363,0.368-72.942,1.348-108.602,8.851
		c-23.767,5.001-47.624,13.249-66.221,29.621c-40.341,35.515-53.282,93.339-58.128,145.895
		c-4.551,49.348-9.016,104.497,0.777,153.224c7.557,37.602,21.307,77.853,60.258,93.01c41.748,16.244,95.264,14.504,139.442,15.382
		C306.193,473.536,345.153,473.125,384.07,471.533z"/>
	<g>
		<rect x="241.466" y="106.765" style="fill:#FFFFFF;" width="96.863" height="105.142"/>
		<rect x="249.903" y="189.99" style="opacity:0.4;fill:#76A3E3;" width="20.196" height="17.224"/>
		<rect x="249.903" y="164.714" style="opacity:0.4;fill:#76A3E3;" width="20.196" height="17.224"/>
		<rect x="249.903" y="139.437" style="opacity:0.4;fill:#76A3E3;" width="20.196" height="17.224"/>
		<rect x="249.903" y="114.16" style="opacity:0.4;fill:#76A3E3;" width="20.196" height="17.224"/>
		<polyline style="fill:none;stroke:#14C052;stroke-width:5;stroke-miterlimit:10;" points="250.643,124.716 257.725,132.898 
			271.185,114.8 		"/>
		<polyline style="fill:none;stroke:#14C052;stroke-width:5;stroke-miterlimit:10;" points="249.493,146.607 257.725,154.909 
			271.185,136.811 		"/>
		<polyline style="fill:none;stroke:#14C052;stroke-width:5;stroke-miterlimit:10;" points="250.515,195.205 258.748,203.508 
			272.207,185.409 		"/>
		<rect x="280.58" y="116.312" style="fill:#76A3E3;" width="44.738" height="4.346"/>
		<rect x="280.58" y="123.47" style="fill:#76A3E3;" width="26.842" height="4.346"/>
		<rect x="280.58" y="143.171" style="fill:#76A3E3;" width="44.738" height="4.346"/>
		<rect x="280.58" y="166.328" style="fill:#76A3E3;" width="44.738" height="4.346"/>
		<rect x="280.58" y="193.17" style="fill:#76A3E3;" width="44.738" height="4.346"/>
		<rect x="280.58" y="173.486" style="fill:#76A3E3;" width="26.842" height="4.346"/>
	</g>
	
		<line style="fill:none;stroke:#CF4646;stroke-width:4;stroke-miterlimit:10;" x1="400.928" y1="338.465" x2="396.784" y2="439.99"/>
	
		<line style="fill:none;stroke:#CF4646;stroke-width:4;stroke-miterlimit:10;" x1="356.044" y1="357.548" x2="332.554" y2="446.206"/>
	
		<line style="fill:none;stroke:#CF4646;stroke-width:4;stroke-miterlimit:10;" x1="453.763" y1="334.322" x2="469.302" y2="427.559"/>
	
		<line style="fill:none;stroke:#CF4646;stroke-width:4;stroke-miterlimit:10;" x1="407.422" y1="346.847" x2="415.432" y2="454.494"/>
	<path style="fill:#CF4646;" d="M464.824,226.208c-3.919-5.917-10.081-10.331-16.632-13.259
		c-14.296-6.389-31.262-6.516-45.653-0.343c-11.369,4.877-22.026,14.068-27.606,25.245c-4.304,8.621-3.419,21.551-5.166,31.248
		c-2.974,16.509-5.947,33.018-8.921,49.526c-0.167,0.927-11.396,7.591-12.728,9.084c-4.222,4.729-7.911,10.475-7.241,17.098
		c0.567,5.601,4.275,10.525,8.895,13.742c4.621,3.217,10.098,4.95,15.549,6.356c13.676,3.527,28.143,5.266,41.911,2.119
		c8.295-1.896,16.096-5.508,23.622-9.477c9.039-4.767,17.936-10.207,24.696-17.87c10.264-11.636,11.081-27.52,13.042-42.224
		c2.318-17.38,2.797-35.004,1.417-52.484c-0.386-4.891-0.937-9.853-2.834-14.379C466.529,229.047,465.737,227.587,464.824,226.208z"
		/>
	<g>
		<g>
			<path style="fill:#76A3E3;" d="M304.06,50.336c-0.671,2.719-0.478,5.604-0.478,8.616c0,15.485,11.865,31.551,21.395,31.551
				c9.53,0,21.395-16.066,21.395-31.551c0-3.012,0.213-5.775-0.458-8.495c-8.976-0.962-15.795-4.274-20.152-11.458
				c-0.352-0.581-1.194-0.573-1.537,0.014C320.088,46.095,313.011,48.943,304.06,50.336z"/>
			<g>
				<g>
					<rect x="322.283" y="55.501" style="fill:#CF4646;" width="5.388" height="19.262"/>
					
						<rect x="322.248" y="55.501" transform="matrix(6.123234e-17 -1 1 6.123234e-17 259.8449 390.109)" style="fill:#CF4646;" width="5.458" height="19.262"/>
				</g>
			</g>
		</g>
		<path style="opacity:0.24;fill:#3453B3;" d="M345.914,50.457c-8.976-0.962-15.795-4.274-20.152-11.458
			c-0.134-0.221-0.344-0.329-0.564-0.38v51.873c9.492-0.243,21.174-16.174,21.174-31.54
			C346.372,55.94,346.585,53.176,345.914,50.457z"/>
	</g>
	<g>
		<rect x="371.349" y="46.175" style="fill:#FFFFFF;" width="81.794" height="52.901"/>
		<path style="fill:#CF4646;" d="M382.899,59.027c0,1.582-1.283,2.865-2.865,2.865c-1.582,0-2.865-1.283-2.865-2.865
			c0-1.582,1.283-2.865,2.865-2.865C381.616,56.162,382.899,57.445,382.899,59.027z"/>
		<path style="fill:#CF4646;" d="M382.899,71.688c0,1.582-1.283,2.865-2.865,2.865c-1.582,0-2.865-1.283-2.865-2.865
			c0-1.582,1.283-2.865,2.865-2.865C381.616,68.823,382.899,70.106,382.899,71.688z"/>
		<path style="fill:none;stroke:#557ED9;stroke-width:2;stroke-miterlimit:10;" d="M445.379,86.73c0,3.418-2.771,6.189-6.189,6.189
			c-3.418,0-6.189-2.771-6.189-6.189c0-3.418,2.771-6.189,6.189-6.189C442.608,80.541,445.379,83.312,445.379,86.73z"/>
		<path style="fill:#CF4646;" d="M382.899,84.349c0,1.582-1.283,2.865-2.865,2.865c-1.582,0-2.865-1.283-2.865-2.865
			c0-1.582,1.283-2.865,2.865-2.865C381.616,81.484,382.899,82.766,382.899,84.349z"/>
		<rect x="387.278" y="56.759" style="fill:#76A3E3;" width="53.343" height="3.81"/>
		<rect x="387.278" y="69.037" style="fill:#76A3E3;" width="53.343" height="3.81"/>
		<rect x="387.278" y="81.314" style="fill:#76A3E3;" width="34.292" height="3.81"/>
	</g>
	<g>
		<path style="fill:#228487;" d="M235.924,291.342c-1.691-1.155-3.532-2.238-5.572-2.415c-2.04-0.177-4.312,0.803-5.026,2.722
			c-1.108,2.98,1.818,5.767,4.191,7.883c2.043,1.821,3.9,3.852,5.532,6.049c0.366,0.493,0.74,1.083,0.592,1.679
			c-0.127,0.509-0.599,0.85-1.06,1.101c-4.404,2.387-10.64,0.648-14.188,4.184c-0.897,0.894-1.489,2.413-0.679,3.386
			c0.411,0.494,1.07,0.696,1.694,0.848c2.081,0.507,4.23,0.733,6.372,0.672c1.408-0.04,2.85-0.2,4.198,0.206
			c1.348,0.406,2.598,1.579,2.546,2.986c2.03,1.394-1.603,2.196-3.829,3.248c-2.226,1.052-5.171,2.11-5.277,4.57
			c-0.138,3.22,4.698,3.935,7.587,2.506c2.889-1.429,5.892-3.861,8.936-2.802c2.194,1.359,0.194,4.684-1.818,6.3
			c-2.012,1.615-3.969,4.984-1.747,6.295c0.57,0.336,1.272,0.371,1.928,0.283c3.11-0.414,5.279-3.151,7.595-5.268
			c2.315-2.118,5.99-3.738,8.438-1.775c0.835,0.669,1.356,1.651,1.764,2.64c3.406,8.252,0.302,17.556-0.416,26.454
			c-0.094,1.168-0.111,2.455,0.618,3.372c1.096,1.378,3.407,1.139,4.705-0.05c1.298-1.189,1.818-2.989,2.191-4.709
			c1.677-7.753,1.495-15.901-0.528-23.571c-1.152-4.369-2.908-8.823-2.076-13.263c1.23-6.561,7.645-10.883,10.191-17.054
			c0.542-1.314,0.888-2.865,0.219-4.12c-1.226-2.298-4.807-1.845-6.814-0.184c-2.007,1.661-3.308,4.118-5.516,5.501
			c-0.584,0.366-1.282,0.653-1.951,0.489c-0.945-0.232-1.458-1.258-1.669-2.208c-0.641-2.888,0.354-5.855,1.234-8.68
			c0.88-2.825,1.647-5.921,0.586-8.683c-1.89-4.922-5.93-3.783-8.091-0.898c-1.625,2.17-1.655,6.705-4.328,7.962
			C242.352,298.925,239.106,293.515,235.924,291.342z"/>
		<path style="fill:#47C092;" d="M291.038,347.789c-0.649-0.205-1.288-0.594-1.499-1.233c-0.263-0.797,0.234-1.632,0.753-2.291
			c2.79-3.541,6.963-5.963,11.423-6.627c1.998-0.298,4.058-0.26,5.989-0.851c3.966-1.213,5.896-6.236,0.342-6.43
			c-1.993-0.07-4.074,0.343-5.932-0.381c0.841-3.026,3.975-4.751,6.907-5.877c3.765-1.445,14.569-7.973,6.542-12.343
			c-1.892-1.03-4.28-0.777-6.219,0.164c-1.477,0.717-3.533,1.684-4.469,0.334c-0.693-1,8.914-12.957,9.779-14.226
			c2.857-4.192,8.288-12.2,3.388-16.629c-5.4-4.882-13.616-0.7-15.324,5.416c-0.778,2.787-0.64,5.747-1.175,8.592
			c-0.921,4.899-3.685,6.966-6.345,3.195c-2.221-3.149,0.428-7.679-4.722-9.354c-3.936-1.28-6.848,1.251-7.81,5.035
			c-0.951,3.744,0.256,7.652,1.312,11.368c1.056,3.716,1.948,7.793,0.434,11.347c-0.343,0.805-0.891,1.628-1.741,1.838
			c-3.037,0.751-2.842-5.939-5.952-6.276c-2.461-0.267-2.885,3.466-2.174,5.837c0.711,2.372,0.718,6.015-1.753,6.158
			c-2.044-2.542-4.3-5.198-7.426-6.132c-3.126-0.934-7.243,0.803-7.521,4.053c-0.163,1.906,0.978,3.652,2.069,5.223
			c2.537,3.652,5.074,7.304,7.611,10.957c1.114,1.603,2.077,4.143,0.43,5.19c-0.864,0.549-1.997,0.287-2.999,0.496
			c-2.616,0.546-3.436,4.058-2.605,6.598c0.831,2.54,2.689,4.651,3.488,7.202c1.488,4.753-0.952,9.721-2.794,14.348
			c-1.645,4.131-3.163,10.487,0.602,13.793c-0.543-0.476,8.124-16.526,9.361-17.935c4.66-5.31,14.979-7.997,21.632-9.973
			c1.423-0.422,2.901-0.804,4.091-1.69c1.781-1.327,3.714-5.733,1.776-7.561c-1.169-1.103-2.926-1.283-4.532-1.207
			c-1.607,0.075-3.251,0.343-4.802-0.087C291.129,347.817,291.084,347.803,291.038,347.789z"/>
		<path style="fill:none;stroke:#228487;stroke-miterlimit:10;" d="M296.04,314.177c0.298,10.705-8.004,19.368-14.542,27.85
			c-11.96,15.515-19.417,34.459-21.243,53.964"/>
	</g>
	<g>
		<path style="fill:#3453B3;" d="M461.014,450.305c-0.621,0.875-1.63,1.323-2.591,1.734c-7.489,3.197-14.979,6.395-22.468,9.592
			c-2.268,0.968-6.108,1.807-7.102,4.545c-1.79,4.933,20.512,3.264,24.189,3.209c12.09-0.181,24.176-0.552,36.254-1.112
			c-0.233,0.011,1.958-46.542-7.585-51.139c-3.748-1.806-8.328,0.196-10.967,3.509c-2.639,3.312-3.785,7.639-4.861,11.823
			c-1.35,5.246-2.7,10.492-4.049,15.737C461.645,448.94,461.447,449.696,461.014,450.305z"/>
		<path style="fill:#3453B3;" d="M553.63,446.551c-0.495,0.943-1.417,1.504-2.296,2.021c-6.855,4.035-13.71,8.07-20.565,12.104
			c-2.076,1.222-5.687,2.493-6.318,5.335c-1.137,5.119,20.218,0.931,23.767,0.46c11.664-1.549,23.302-3.287,34.909-5.212
			c-0.224,0.037-3.699-46.612-13.475-50.114c-3.839-1.376-8.026,1.139-10.179,4.739c-2.153,3.6-2.74,8.043-3.278,12.335
			c-0.674,5.382-1.349,10.763-2.023,16.145C554.076,445.118,553.975,445.894,553.63,446.551z"/>
		<path style="fill:#76A3E3;" d="M539.807,242.269c1.216-3.575,2.274-7.187,2.83-10.91c1.511-10.12-0.036-25.814-10.533-30.561
			c-11.703-5.293-24.681,0.746-32.101,10.312c-6.355,8.194-9.351,18.445-11.868,28.504c-6.689,26.73-8.666,54.108-14.219,80.875
			c-6.785,32.706-10.882,65.969-12.204,99.345c-0.24,6.049-1.129,15.145-0.511,23.479l31.409,3.153
			c13.433-28.838,15.919-67.597,24.321-97.773c3.492-12.541,6.262-25.303,8.532-38.12c1.874-10.58,5.852-21.072,7.182-31.677
			c0.59-4.703,0.168-9.483,0.65-14.198C534.092,256.936,537.287,249.681,539.807,242.269z"/>
		<path style="fill:#76A3E3;" d="M561.189,207.33c5.863,9.26,2.26,21.098,3.612,31.632c0.991,7.725,3.481,15.166,5.288,22.741
			c6.26,26.239,4.254,53.4,6.588,80.071c2.412,27.564,9.286,54.391,8.695,82.304c-0.224,10.596-1.377,11.865-11.082,14.076
			c-8.369,1.906-16.823,4.31-25.48,4.277c-7.673-37.642-21.59-124.335-22.703-130.593c-4.565-25.679-9.116-52.219-3.142-77.608
			c2.092-8.891,5.78-17.923,13.019-23.492C543.223,205.167,556.302,199.613,561.189,207.33z"/>
		<g>
			<path style="fill:none;stroke:#142152;stroke-miterlimit:10;" d="M507.047,104.27c-1.123,0.294-2.232,0.814-3.282,1.499"/>
			<g>
				<path style="fill:none;stroke:#000000;stroke-miterlimit:10;" d="M527.378,103.311c1.042,0.077,2.088,0.21,3.077,0.546
					c0.782,0.265,1.463,0.694,2.054,1.237"/>
				<g>
					<g>
						<path style="fill:#CF4646;" d="M493.728,90.968c1.094,0.325,2.269,0.44,3.413,0.544c6.457,0.589,14.166,1.582,15.768-5.707
							c1.224-5.566-1.855-14.048-6.111-17.721c-4.056-3.501-11.919-4.652-13.66,1.722c-0.645,2.362-0.158,4.91,0.801,7.163
							c0.254,0.596,0.546,1.238,0.384,1.874c-0.825,3.169-9.447,6.791-2.324,11.355C492.537,90.542,493.12,90.788,493.728,90.968z"
							/>
						<g id="XMLID_49_">
							<g id="XMLID_51_">
								<path style="fill:#EB9A7A;" d="M496.064,112.03c-2.157,2.237-3.197,5.907-2.749,9.023
									c1.486,10.338,7.704,16.957,19.112,15.995c20.712-1.748,48.34-20.384,23.619-29.712c-9.344-3.526-10.392-13.793-9.053-21.56
									c3.173-18.4,15.659-30.182-30.673-27.411c-0.992,7.419-1.616,15.32,0.081,22.689c1.174,5.099,4.177,11.767,10.147,11.725
									c0.668,2.805,0.807,5.743,0.406,8.601c-0.331,2.365-1.074,4.756-2.65,6.511c-1.089,1.213-2.424,1.656-3.781,2.03
									C498.954,110.353,497.353,110.694,496.064,112.03z"/>
							</g>
						</g>
						<g id="XMLID_4_">
							<g id="XMLID_5_">
								<path style="fill:#EB9A7A;" d="M470.379,169.881c-0.696,2.132-1.463,4.239-2.342,6.307
									c-1.547,3.636-3.443,7.156-4.413,10.986c-1.708,6.745,0.179,14.434,7.014,17.137c14.284,5.649,25.823-20.151,27.797-30.803
									c1.607-8.675,16.244-53.919-4.302-51.251c-1.135,0.147-2.272,0.538-3.128,1.32c-1.51,1.38-2.494,3.572-3.884,5.145
									c-1.775,2.007-3.385,4.09-4.775,6.386c-2.884,4.763-4.87,10.022-6.478,15.334
									C473.917,156.883,472.465,163.494,470.379,169.881z"/>
							</g>
						</g>
						<path style="fill:#CF4646;" d="M495.724,52.499c-0.236,0.234-0.469,0.471-0.701,0.708c-1.164,1.19-2.328,2.381-3.492,3.571
							c-0.63,0.645-1.283,1.327-1.529,2.194c-0.656,2.309,1.853,4.313,4.182,4.888c1.739,0.429,3.568,0.488,5.331,0.171
							c1.465-0.264,2.893-0.784,4.381-0.819c2.252-0.053,4.358,0.999,6.506,1.677c3.997,1.263,12.093-0.794,14.542,3.896
							c3.479,6.664-0.147,11.936,0.534,18.608c0.711,6.969,7.942,5.629,14.229,4.681c3.669-0.553,7.473-1.75,9.889-4.565
							c2.417-2.815,2.785-7.615-0.055-10.003c-1.107-0.931-2.606-1.46-3.353-2.698c-0.936-1.553-0.315-3.527-0.314-5.34
							c0.005-5.72-6.115-6.001-9.763-8.752c-5.054-3.811-9.929-9.25-16.868-8.443c-2.079,0.242-4.146,0.979-6.217,0.671
							c-1.711-0.255-3.226-1.197-4.788-1.939c-3.165-1.502-7.05-2.172-10.097-0.441C497.241,51.074,496.464,51.767,495.724,52.499z"
							/>
						<g id="XMLID_7_">
							<g id="XMLID_8_">
								<g id="XMLID_9_">
									<path style="fill:#3453B3;" d="M474.674,139.282c-0.015,0.037-0.029,0.075-0.044,0.112
										c-1.466,3.757-2.849,7.681-2.711,11.728c3.217,1.458,5.143,2.032,8.51,2.264c4.129,0.291,8.192-1.203,11.709-3.328
										c3.373-2.038,5.701-5.328,9.311-6.728c0.16-0.062,0.327-0.129,0.435-0.265c0.124-0.155,0.147-0.368,0.164-0.568
										c0.277-3.252-0.621-32.775-3.974-32.095C484.535,113.148,479.245,127.59,474.674,139.282z"/>
								</g>
							</g>
						</g>
						<g id="XMLID_42_">
							<g id="XMLID_43_">
								<g id="XMLID_46_">
									<path style="fill:#3453B3;" d="M483.773,183.409c0.661,17.652,1.246,35.386,2.637,52.974
										c2.924,2.071,6.657,2.539,10.223,2.887c24.031,2.343,48.315,2.085,72.291-0.77c0.359-0.043-0.56-51.367-0.859-54.909
										c-0.855-10.143-4.823-19.91-4.935-30.088c-0.034-3.085,0.289-6.18-0.021-9.249c-0.299-2.964-1.182-5.833-2.059-8.68
										c-0.933-3.026-1.873-6.072-3.342-8.878c-2.258-4.312-6.147-9.586-9.973-12.686c-0.852-0.691-11.04-8.34-11.69-6.672
										c-6.204,15.919-23.682,27.55-23.701,27.562c-0.408,0.272-4.579-6.057-4.825-6.452c-3.654-5.86-5.135-11.941-7.088-18.454
										c-10.635,1.446-13.25,17.113-14.658,26.075C483.287,151.896,483.186,167.632,483.773,183.409z"/>
								</g>
							</g>
						</g>
						<path style="fill:none;stroke:#142152;stroke-miterlimit:10;" d="M517.833,72.083c-0.136,5.908-10.185,7.911-10.975-0.398
							C506.994,65.779,517.043,63.776,517.833,72.083z"/>
						<path style="fill:none;stroke:#142152;stroke-miterlimit:10;" d="M501.188,71.481c-0.136,5.908-10.185,7.911-10.975-0.398
							C490.349,65.177,500.398,63.174,501.188,71.481z"/>
						<line style="fill:none;stroke:#142152;stroke-miterlimit:10;" x1="501.176" y1="71.821" x2="506.846" y2="72.026"/>
						<line style="fill:none;stroke:#142152;stroke-miterlimit:10;" x1="517.483" y1="72.395" x2="527.964" y2="69.173"/>
						<path style="fill:#EB9A7A;" d="M529.728,77.345c-6.332,3.922-9.496-7.672-2.786-8.869
							C533.077,67.38,534.529,74.371,529.728,77.345z"/>
						<path style="fill:none;stroke:#142152;stroke-miterlimit:10;" d="M506.548,92.779c2.259-0.319,3.804-0.976,5.74-2.719"/>
						<path style="fill:none;stroke:#142152;stroke-miterlimit:10;" d="M527.11,70.821c1.826-1.765,6.519,1.662,1.954,4.37"/>
						<path style="fill:none;stroke:#142152;stroke-miterlimit:10;" d="M507.2,81.813c-1.021,0.771-2.278,1.208-3.544,1.232"/>
					</g>
					<path style="fill:#557ED9;" d="M536.286,106.571c-6.207,15.928-23.941,28.041-23.941,28.041s-9.081-9.91-11.433-25.165
						c-0.954,0.286-2.333,0.435-3.259,0.767c0.562,3.458,1.847,9.029,3.536,13.179c3.484,8.563,11.1,16.914,11.1,16.914
						s12.436-11.031,14.414-12.837c3.378-3.083,10.041-14.184,12.918-19.129C538.455,107.885,537.511,106.969,536.286,106.571z"/>
				</g>
			</g>
			<path style="fill:#EB9A7A;" d="M489.117,189.047c-0.812,3.837-1.846,7.713-4.333,10.707c-4.281,5.155-16.366,7.858-18.513-0.844
				c-1.454-5.895,4.086-14.957,6.68-20.099c2.37-4.699,4.986-9.268,7.385-13.952c2.071-4.044,4.811-7.833,6.442-12.073
				c1.099-2.857,2.727-5.138,6.432-3.344c2.179,1.055,3.513,3.42,3.842,5.819c0.435,3.172-0.431,6.309-2.075,8.966
				c-2.208,3.568-2.26,7.145-3.064,11.096c-0.835,4.102-1.669,8.204-2.504,12.306C489.314,188.1,489.217,188.573,489.117,189.047z"
				/>
			<path style="fill:none;stroke:#142152;stroke-miterlimit:10;" d="M478.393,170.148c-1.636,2.193-3.272,4.387-4.908,6.58
				c-1.9,2.548-3.826,5.142-4.917,8.128"/>
			<g>
				<path style="fill:none;stroke:#000000;stroke-miterlimit:10;" d="M503.765,105.769c-2.9,1.891-5.346,5.039-6.379,8.156
					c-1.406,4.245-1.409,8.827-1.397,13.311"/>
				<g>
					<path style="fill:none;stroke:#000000;stroke-miterlimit:10;" d="M496.115,128.454c2.837-0.711,5.819,1.077,7.482,3.548
						c1.662,2.471,2.29,5.502,2.883,8.445c0.227,1.128,0.454,2.256,0.681,3.384c0.687,3.411,1.342,7.117-0.133,10.252
						c-1.246,2.649-4.015,4.462-6.875,4.501"/>
					<path d="M498.673,159.272c-0.016-0.218,0.021-0.427,0.11-0.625l0.125-0.276c0.063-0.153,0.156-0.279,0.28-0.379
						c0.109-0.124,0.244-0.212,0.402-0.265c0.154-0.065,0.312-0.086,0.473-0.063c0.158-0.006,0.308,0.029,0.451,0.105l0.262,0.17
						c0.167,0.144,0.289,0.321,0.364,0.532c0.023,0.109,0.046,0.217,0.069,0.326c0.016,0.218-0.02,0.427-0.11,0.626
						c-0.042,0.092-0.083,0.184-0.125,0.275c-0.063,0.153-0.156,0.279-0.28,0.379c-0.109,0.124-0.244,0.212-0.402,0.265
						c-0.154,0.065-0.312,0.086-0.473,0.063c-0.158,0.006-0.308-0.029-0.451-0.105c-0.087-0.057-0.174-0.114-0.261-0.17
						c-0.167-0.144-0.289-0.321-0.364-0.532C498.72,159.49,498.697,159.381,498.673,159.272z"/>
				</g>
				<g>
					<path style="fill:none;stroke:#000000;stroke-miterlimit:10;" d="M495.66,128.313c-2.867-0.573-5.763,1.358-7.311,3.906
						c-1.547,2.548-2.036,5.607-2.493,8.575c-0.175,1.138-0.35,2.275-0.525,3.413c-0.53,3.441-1.015,7.174,0.602,10.235
						c1.366,2.585,4.215,4.262,7.073,4.163"/>
					<path d="M494.514,159.22c0.006-0.219-0.04-0.425-0.138-0.62l-0.137-0.269c-0.07-0.149-0.169-0.271-0.297-0.365
						c-0.115-0.118-0.253-0.2-0.414-0.245c-0.157-0.057-0.316-0.07-0.476-0.04c-0.158,0.002-0.306,0.044-0.446,0.127l-0.253,0.182
						c-0.161,0.152-0.274,0.335-0.339,0.549c-0.018,0.11-0.036,0.219-0.055,0.329c-0.006,0.219,0.04,0.425,0.138,0.619
						c0.046,0.09,0.091,0.179,0.137,0.269c0.069,0.15,0.169,0.271,0.297,0.365c0.115,0.118,0.253,0.2,0.414,0.245
						c0.157,0.057,0.316,0.071,0.476,0.04c0.158-0.002,0.306-0.044,0.446-0.127c0.084-0.061,0.169-0.122,0.253-0.183
						c0.161-0.152,0.274-0.335,0.339-0.549C494.478,159.44,494.496,159.33,494.514,159.22z"/>
				</g>
				<path style="fill:#FFFFFF;" d="M495.766,126.83c2.05-0.333,2.556,2.945,0.503,3.278
					C494.219,130.441,493.713,127.163,495.766,126.83z"/>
			</g>
			<path style="fill:#EB9A7A;" d="M502.599,155.35c0.325,0.459,0.618,0.944,0.871,1.463c0.22,0.452,0.416,0.936,0.4,1.439
				c-0.016,0.503-0.294,1.028-0.769,1.192c-0.238,0.082-0.498,0.068-0.748,0.04c-1.891-0.212-3.577-1.139-4.726-2.643
				c-1.09-1.427-2.075-2.983-2.864-4.596c-0.377-0.77-1.859-6.513,0.37-4.063C497.451,150.731,500.614,152.547,502.599,155.35z"/>
			<g>
				<path style="fill:#191A37;" d="M472.977,134.662l11.477,1.059c2.043,0.188,3.43-1.358,3.099-3.455l-1.4-8.862
					c-0.331-2.097-2.255-3.949-4.298-4.137l-11.477-1.059c-2.043-0.188-3.43,1.358-3.099,3.455l1.4,8.862
					C469.01,132.621,470.934,134.474,472.977,134.662z"/>
				<path style="fill:#FFFFFF;" d="M469.244,169.946l30.364,2.802c0.381,0.035,0.64-0.253,0.578-0.644l-7.363-46.619
					c-0.062-0.391-0.421-0.736-0.802-0.771l-30.364-2.802c-0.381-0.035-0.64,0.253-0.578,0.644l7.363,46.619
					C468.504,169.566,468.863,169.911,469.244,169.946z"/>
				<path style="fill:#191A37;" d="M473.523,128.192l8.296,0.765c1.407,0.13,2.363-0.936,2.135-2.38l-0.375-2.377
					c-0.228-1.444-1.554-2.721-2.961-2.85l-8.296-0.766c-1.407-0.13-2.363,0.936-2.135,2.38l0.375,2.377
					C470.79,126.786,472.115,128.062,473.523,128.192z"/>
			</g>
			<path style="fill:#EB9A7A;" d="M528.276,199.178c-6.518-5.469-12.33-12.125-17.563-18.323c-2.853-3.379-5.626-6.976-9.209-9.628
				c-3.371-2.495-7.483-3.794-11.059-5.989c-3.949-2.424-10.682-7.466-10.621-12.601c0.029-2.423,1.793-4.945,4.212-5.087
				c2.549-0.15,4.257,1.994,6.076,3.406c2.668,2.072,6.247,1.911,9.011,3.622c1.128,0.698,1.994,1.739,2.982,2.623
				c1.957,1.752,4.377,2.882,6.759,3.988c6.894,3.201,13.576,6.637,20.267,10.244c7.43,4.007,16.064,8.2,21.947,14.336
				c3.759,3.921,7.856,9.324,6.357,14.544c-1.37,4.77-5.337,12.68-13.284,8.655C540.195,206.966,531.8,202.134,528.276,199.178z"/>
			<path style="fill:#EB9A7A;" d="M552.201,151.629c4.386,0.656,8.779,1.464,13.083,2.577c1.627,15.609,2.154,31.72-4.174,45.947
				c-2.497,5.613-7.68,11.486-13.644,10.015c-3.932-0.97-6.436-4.877-7.649-8.741c-2.798-8.913-2.999-17.702-3.76-26.957
				c-0.665-8.082-1.275-16.213-0.892-24.316C540.865,150.207,546.572,150.786,552.201,151.629z"/>
			<path style="fill:#557ED9;" d="M535.691,158.632c2.342,0.831,5.033,1.232,7.727,1.537c0.99,0.021,1.979,0.042,2.97,0.038
				c8.996-0.036,18.005-1.115,26.687-3.503c0.809-0.223,1.611-0.469,2.413-0.713c-3.876-15.047-12.11-31.993-24.796-39.621
				c-0.295-0.177-0.617-0.355-0.96-0.332c-0.397,0.027-0.723,0.312-1.011,0.586c-9.294,8.836-13.513,20.822-15.038,33.294
				C533.237,153.579,531.797,157.25,535.691,158.632z"/>
			<path style="fill:none;stroke:#000000;stroke-miterlimit:10;" d="M532.509,105.094c2.015,1.853,2.973,5.039,3.244,7.614
				c0.379,3.598-0.339,7.208-0.966,10.736c-1.755,9.867-7.048,19.737-11.233,25.071"/>
			<path style="fill:#FFFFFF;" d="M518.334,148.745c-1.101,2.008-0.366,4.529,1.642,5.63c2.008,1.101,4.529,0.366,5.63-1.642
				c1.101-2.008,0.366-4.529-1.642-5.63C521.955,146.002,519.435,146.737,518.334,148.745z"/>
			<path style="fill:#557ED9;" d="M520.178,149.757c-0.543,0.989-0.18,2.231,0.809,2.774c0.99,0.543,2.232,0.18,2.774-0.809
				c0.542-0.99,0.18-2.232-0.809-2.774C521.963,148.405,520.721,148.767,520.178,149.757z"/>
			<path style="fill:none;stroke:#142152;stroke-miterlimit:10;" d="M536.177,175.017c2.383,1.418,4.766,2.837,7.148,4.255
				c0.731,0.435,1.47,0.874,2.279,1.138c0.773,0.252,1.59,0.337,2.378,0.535c1.818,0.456,3.474,1.532,4.631,3.006"/>
		</g>
		<path style="fill:none;stroke:#142152;stroke-miterlimit:10;" d="M525.465,310.573c-2.175-7.522-0.164-16.456-1.187-24.293
			c-0.797-6.106-4.375-11.928-5.304-18.251c-0.638-4.345-3.422-9.061-3.382-13.479"/>
		<path style="fill:none;stroke:#142152;stroke-miterlimit:10;" d="M476.553,341.574c1.361,1.046,2.974,1.762,4.663,2.07"/>
		<path style="fill:none;stroke:#142152;stroke-miterlimit:10;" d="M550.1,342.088c-0.692,1.773-2.29,3.165-4.142,3.608"/>
	</g>
	<g>
		<path style="fill:#C4A03D;" d="M360.942,449.424c-0.101,0.152-0.211,0.299-0.331,0.438c-0.488,0.565-1.12,0.983-1.749,1.383
			c-8.123,5.17-17.332,8.778-24.461,15.251c-3.443,3.126,6.747,2.384,8.016,2.346c4.321-0.129,8.635-0.448,12.941-0.818
			c8.515-0.733,17.005-1.772,25.532-2.372c2.679-0.188,4.61-2.639,4.183-5.291c-1.732-10.756-2.049-22.78-3.203-31.249
			c-0.439-3.219-1.928-0.242-3.438-3.119c-3.863-7.359-14.887-9.357-17.571-2.165c-2.593,6.948,2.758,15.526,1.088,22.941
			C361.741,447.698,361.463,448.638,360.942,449.424z"/>
		<path style="fill:#C4A03D;" d="M284.418,437.8c-0.177,0.305-0.383,0.59-0.631,0.843c-0.883,0.904-2.164,1.277-3.396,1.559
			c-8.175,1.635-15.303,1.613-23.609,1.087c-2.02-0.128-8.594,0.258-7.275,3.843c0.474,1.289,1.758,2.073,2.985,2.691
			c5.967,3.002,12.517,4.028,18.709,6.359c5.384,2.027,10.404,5.042,15.788,6.97c1.171,0.419,2.411,0.715,3.652,0.624
			c3.183-0.233,5.613-2.873,7.461-5.475c5.49-7.73,8.754-17.021,12.371-25.721c1.13-2.719,2.261-5.83,1.033-8.506
			c-2.408-5.246-15.69-7.233-19.875-3.407c-4.495,4.11-4.655,11.723-6.409,17.163C285.007,436.505,284.771,437.192,284.418,437.8z"
			/>
		<path style="fill:#1B2B5C;" d="M417.471,280.907c-0.481-2.704-1.475-5.155-3.159-7.132c-2.658-3.12-6.47-5.06-10.39-6.26
			c-6.192-1.896-12.891-2.109-19.191-0.61c-2.306,0.549-4.614,1.353-6.433,2.872c-1.454,1.214-2.52,2.821-3.528,4.425
			c-3.677,5.853-6.874,12.007-9.548,18.38c-0.711,1.693-1.414,3.448-2.693,4.766c-1.047,1.079-2.407,1.788-3.745,2.474
			c-10.468,5.37-21.094,10.478-31.171,16.571c-5.877,3.553-12.044,6.907-17.035,11.7c-6.424,6.17-6.594,12.677-9.544,20.499
			c-2.419,6.414-3.569,13.448-5.196,20.097c-5.019,20.077-9.17,40.315-14.208,60.443c4.365,2.677,9.78,4.446,14.68,5.829
			c1.996,0.564,12.722,4.339,13.828,2.388c2.915-5.155,5.83-10.311,8.746-15.466c4.003-7.08,8.05-14.266,10.048-22.15
			c1.717-6.776,1.899-13.987,4.706-20.39c1.358-3.098,3.292-5.905,4.869-8.897c2.107-3.996,3.574-8.329,4.33-12.783
			c0.229-1.348,0.447-2.816,1.434-3.762c0.702-0.672,1.677-0.959,2.612-1.224c5.391-1.525,10.316-3.673,15.414-5.97
			c9.432-4.249,18.767-8.898,27.29-14.797c9.269-6.415,17.523-14.7,22.563-24.883C415.376,300.507,418.99,289.45,417.471,280.907z"
			/>
		<path style="fill:#1B2B5C;" d="M436.046,331.078c-2.533,2.153-5.292,4.049-8.301,5.64c-3.612,1.909-7.454,3.349-11.093,5.205
			c-5.335,2.72-10.154,6.298-15.264,9.395c-5.544,3.36-10.781,4.486-16.916,6.289c-0.988,8.957-1.972,18.059-0.411,26.933
			c0.888,5.046,2.593,9.966,2.878,15.082c0.382,6.848-1.796,13.555-2.608,20.366c-0.475,3.988-0.481,8.032-0.016,12.021
			c0.075,0.645,0.167,1.303,0.457,1.885c0.311,0.623,0.827,1.115,1.247,1.671c2.971,3.936,0.624,8.646-4.064,8.494
			c-3.203-0.104-6.406-0.207-9.609-0.311c-2.774-0.09-5.585-0.176-8.291,0.443c-1.457,0.333-2.871,0.869-4.355,1.054
			c-1.483,0.185-3.11-0.035-4.222-1.034c-2.155-1.937-3.417-7.844-4.148-10.618c-1.332-5.054-1.827-10.521-2.575-15.689
			c-1.519-10.489-2.641-21.036-3.362-31.609c-1.243-18.202-4.95-39.032,9.607-52.317c21.654-19.763,44.242-34.991,69.924-49.128
			c5.816-3.202,14.052-4.402,19.285,0.581c3.72,3.542,3.237,8.044,3.346,12.612c0.192,8.017,2.423,16.219-2.461,23.071
			C442.452,324.819,439.454,328.181,436.046,331.078z"/>
		<path id="XMLID_611_" style="fill:#191A37;" d="M385.599,126.303c0.213-0.164,0.429-0.325,0.648-0.482
			c4.453-3.21,9.96-5.099,15.435-4.71c9.466,0.672,19.084,7.697,22.874,16.272c1.959,4.431,2.37,9.362,3.364,14.104
			c1.254,5.983,3.475,11.763,6.55,17.047c1.962,3.372,4.28,6.564,5.766,10.172c2.636,6.399,1.56,16.324-6.112,18.596
			c-8.679,2.571-17.169,2.883-26.173,2.563c-7.009-0.249-21.493,2.093-26.897-2.715c-7.248-6.479-5.085-12.98-3.816-21.413
			c1.371-9.113-2.936-18.178-2.774-27.392C374.615,139.83,378.848,131.485,385.599,126.303z"/>
		<path style="fill:#EB9A7A;" d="M338.559,213.098c-2.956,2.092-6.04,4.007-9.141,5.782c-8.265,4.73-17.057,8.451-25.985,11.73
			c-8.145,2.991-16.867,4.754-24.633,8.515c-3.28,1.588-6.978,2.989-10.494,2.035c-1.426-0.387-2.725-1.143-4.125-1.618
			c-6.632-2.251-14.852,4.224-20.702-0.73c-1.325-1.122-2.523-3.024-4.217-2.643c-0.859,0.193-1.472,0.973-1.791,1.794
			c-1.047,2.695,0.542,5.872,2.974,7.437c5.199,3.346,13.164,2.206,18.964,2.014c11.959-0.395,23.931-0.421,35.889,0.005
			c13.139,0.467,27.856,2.521,39.914-3.948c14.82-7.95,29.773-20.481,38.879-34.708c1.69-2.641,3.264-5.469,3.662-8.579
			c0.399-3.11-0.612-6.578-3.204-8.343c-3.018-2.056-7.122-1.275-10.504,0.104c-7.662,3.126-10.628,7.812-16.072,13.29
			C345.105,208.121,341.914,210.724,338.559,213.098z"/>
		<path style="fill:#191A37;" d="M353.188,198.975c-6.76,5.906-14.028,11.229-21.699,15.892c-3.168,1.927,0.311,4.077,1.542,6.035
			c1.106,1.759,2.497,3.327,3.562,5.111c0.691,1.158,7.747,13.198,8.345,12.895c8.239-4.18,17.076-10.574,23.065-17.607
			c1.385-1.626-3.714-8.151-4.396-9.603c-2.402-5.116-4.9-10.169-7.749-15.111C354.977,197.394,354.087,198.19,353.188,198.975z"/>
		<path style="fill:none;stroke:#3453B3;stroke-miterlimit:10;" d="M330.071,216.488c1.85-0.392,3.656,0.864,4.886,2.301
			c1.23,1.437,2.196,3.151,3.751,4.228c2.985,2.066,7.065,1.136,10.432-0.221c3.017-1.215,5.766-2.267,8.421-4.234
			c1.027-0.761,2.046-1.568,2.779-2.615c0.811-1.159,1.226-2.549,1.49-3.938c0.876-4.608,0.188-9.5-1.927-13.688"/>
		<g id="XMLID_97_">
			<g id="XMLID_606_">
				<path id="XMLID_622_" style="fill:#EB9A7A;" d="M408.493,157.379c0.194,6.262,0.545,12.502,1.035,18.772
					c0.49,6.261,0.949,20.235-7.644,21.798c-2.465,0.468-4.699-1.128-6.275-2.854c-1.176-1.288-2.121-2.783-2.931-4.322
					c-1.593-3.03-3.277-5.9-4.745-9.026c-0.464-0.989-0.933-1.991-1.139-3.064c-0.277-1.44-0.068-2.924,0.142-4.376
					c0.447-3.092,0.895-6.184,1.342-9.277c0.481-3.322,1.667-5.956,3.227-8.877c2.114-3.956,16.696-15.29,16.849-4.834
					C408.384,153.341,408.431,155.361,408.493,157.379z"/>
				<g id="XMLID_607_">
					<path id="XMLID_620_" style="fill:#EB9A7A;" d="M384.658,130.174c0.357-0.474,4.172,0.087,4.827,0.134
						c1.549,0.111,3.094,0.29,4.624,0.552c2.702,0.462,5.375,1.174,7.9,2.25c3.927,1.673,7.696,4.334,9.618,8.258
						c1.216,2.482,1.716,5.755,1.493,8.474c-0.345,4.209-2.054,8.296-4.809,11.498c-3.642,4.232-8.872,6.462-14.296,7.208
						c-2.96,0.407-5.651-0.774-7.611-2.977c-4.758-5.347-5.62-13.986-5.441-20.817C381.089,139.959,381.673,134.146,384.658,130.174
						z"/>
					<path id="XMLID_12_" style="fill:#EB9A7A;" d="M409.189,151.842c3.496,4.285,11.111-2.957,3.459-7.875
						C409.196,143.004,407.026,148.606,409.189,151.842z"/>
				</g>
			</g>
			<path style="fill:#35B0A6;" d="M439.637,199.714c-2.148-4.79-4.8-9.291-8.075-13.375c-2.224-2.774-5.226-4.999-8.258-6.811
				c-3.109-1.858-6.884-3.487-10.48-4.092c-1.26-0.212-2.6-0.336-3.642-1.076c-2.359,3.369-5.351,6.289-8.917,8.364
				c-1.601,0.932-3.36,1.768-5.211,1.702c-2.25-0.08-4.279-1.511-5.628-3.314c-1.348-1.801-2.127-3.953-2.887-6.07
				c-0.342-0.952-25.848,13.859-28.396,15.057c-1.472,0.692-3.35,1.954-2.697,3.444c-2.058-0.366-4.264,0.205-5.886,1.524
				c0.932,3.524,3.342,6.633,6.523,8.413c0.943,0.528,1.971,0.96,2.719,1.74c0.645,0.674,1.026,1.552,1.38,2.415
				c1.758,4.274,2.82,9.03,5.05,12.886c1.373,2.375,2.06,2.527,2.123,5.809c0.091,4.758-0.277,9.54-0.492,14.295
				c-0.358,7.905-0.652,15.812-0.797,23.724c-0.18,9.782-1.863,19.632-3.076,29.389c7.432,1.384,14.864,2.768,22.296,4.151
				c6.604,1.229,12.581,3.016,19.393,3.573c14.642,1.197,29.444,0.49,43.895-2.161c0.565-10.776,0.207-20.964,0.207-31.728
				C448.781,246.248,448.867,220.301,439.637,199.714z"/>
			<path style="fill:#EB9A7A;" d="M435.596,251.889c2.741,0.985,5.911,0.949,9.473,0.954c1.908,0.003,3.873-0.004,5.638-0.729
				c3.099-1.271,4.989-4.588,5.419-7.91c0.928-7.181-1.446-18.385-3.815-25.203c-1.627-4.685-4.067-9.263-7.974-12.318
				c-3.907-3.055-9.508-4.291-13.95-2.085c-3.67,1.823-6.015,5.685-6.877,9.691c-0.862,4.006-0.425,8.175,0.26,12.216
				c1.148,6.773,2.538,15.438,6.56,21.231C431.85,249.926,433.611,251.176,435.596,251.889z"/>
		</g>
		<path style="fill:#191A37;" d="M400.021,126.413c0.693,0.117,1.382,0.256,2.065,0.418c4.189,0.993,6.991,5.294,9.478,8.808
			c1.362,1.926,1.989,5.722,4.664,6.033c-0.94,2.639-4.423,3.613-7.075,2.709c-2.652-0.904-4.607-3.134-6.313-5.355
			c-1.862-2.424-3.674-5.304-3.169-8.318c-0.671,4.004-8.665,9.363-11.852,11.273c-1.873,1.123-12.415,3.415-11.134-1.066
			c1.325-4.637,2.914-9.652,6.902-12.364c2.023-1.376,4.469-1.997,6.895-2.315C393.646,125.822,396.873,125.883,400.021,126.413z"/>
		<path style="fill:none;stroke:#142152;stroke-miterlimit:10;" d="M411.76,146.5c1.094,0.042,2.092,0.655,2.366,1.455
			c0.274,0.8-0.197,1.726-1.115,2.195"/>
		<path style="fill:none;stroke:#142152;stroke-miterlimit:10;" d="M386.643,166.172c1.791,1.866,4.662,2.611,7.134,1.851"/>
		<path style="fill:none;stroke:#202752;stroke-miterlimit:10;" d="M361.365,228.671"/>
		<path style="fill:none;stroke:#142152;stroke-miterlimit:10;" d="M387.78,158.722c1.181,1.466,3.051,2.351,4.933,2.335
			c1.882-0.015,3.737-0.93,4.895-2.415"/>
		<path style="fill:none;stroke:#142152;stroke-miterlimit:10;" d="M355.374,193.694c1.973,1.845,3.946,3.689,5.919,5.534
			c0.782,0.731,1.581,1.484,2.063,2.441c1.019,2.022,0.575,4.816,2.318,6.261"/>
		<rect x="447.578" y="257.315" style="fill:#FFFFFF;" width="6.902" height="171.025"/>
		<path style="fill:none;stroke:#142152;stroke-miterlimit:10;" d="M367.603,225.305c-0.994-3.005-0.016-6.267,0.96-9.278
			c0.699-2.157,1.398-4.313,2.097-6.47"/>
		<path style="fill:none;stroke:#142152;stroke-miterlimit:10;" d="M364.622,211.555c0.511,1.364,1.022,2.727,1.534,4.09"/>
		<path style="fill:#35B0A6;" d="M451.21,229.199c1.757-0.404,3.514-0.857,5.276-1.37c0.194-1.706,0.155-3.862-1.395-4.599
			c-4.121-1.957-3.852-10.976-4.943-15.299c-1.164-4.611-3.167-11.036-6.024-14.951c-7.356-10.08-16.406-16.269-28.73-18.642
			c-0.533-0.103-5.856-1.055-5.949-0.718c-0.92,3.324-4.906,4.901-6.318,8.048c-0.382,0.851-0.402,2.11,0.466,2.452
			c0.656,0.258,1.35-0.2,1.956-0.56c3.231-1.92,9.583-1.523,10.082,3.197c1.649,15.6,2.003,31.337,1.057,46.996
			c-0.013,0.214,14.808-1.378,15.779-1.5C438.902,231.442,445.062,230.613,451.21,229.199z"/>
		<path style="fill:#EB9A7A;" d="M350.023,247.326c6.25-3.047,14.342-5.819,21.311-4.455c1.406,0.275,2.795,0.69,4.226,0.762
			c1.905,0.096,3.781-0.418,5.63-0.888c13.603-3.462,27.859-4.444,41.797-5.797c7.445-0.722,15.02-1.191,22.353,0.285
			c2.293,0.461,4.619,1.147,6.433,2.625c1.814,1.478,3.011,3.91,2.453,6.182c-1.158,4.716-12.41,5.029-16.265,5.251
			c-6.574,0.377-13.152-0.305-19.729-0.158c-9.63,0.215-19.266,0.234-28.895-0.049c-8.381-0.246-16.756-0.698-25.111-1.405
			C360.026,249.322,353.577,249.654,350.023,247.326z"/>
		<path style="fill:none;stroke:#191A37;stroke-miterlimit:10;" d="M286.215,224.475c3.289-0.525,6.672-0.067,9.885-0.581
			c3.112-0.498,5.394-1.34,8.419,0.511c0.374,0.229,0.745,0.5,0.944,0.89c0.456,0.893-0.163,1.958-0.868,2.671
			c-2.886,2.92-7.368,3.746-10.366,6.551c-0.644,0.602-1.249,1.445-1.021,2.297c0.177,0.664,0.796,1.091,1.295,1.562
			c1.53,1.444,2.125,3.8,1.463,5.797c-0.792,2.389-3.162,4.164-3.384,6.671c-0.207,2.335,2.508,3.784,3.644,5.758
			c2.127,3.697,6.908,5.052,11.161,4.74c5.341-0.392,9.756-2.888,13.401-6.695c1.665-1.738,3.321-3.719,4.247-5.963
			c1.074-2.604,0.799-5.406,1.582-8.075c1.149-3.917,4.818-6.533,8.488-8.321c3.67-1.787,7.668-3.122,10.696-5.86"/>
		<path style="fill:none;stroke:#142152;stroke-miterlimit:10;" d="M416.279,208.742c-0.358,1.413,0.579,2.783,1.109,4.141
			c0.728,1.864,0.703,3.924,0.667,5.925c-0.084,4.675,0.882,8.513,0.105,13.242c-0.042,0.258-0.083,0.533,0.023,0.772
			c0.829,1.862,4.984,0.723,6.321,0.645"/>
		<g>
			
				<line style="fill:none;stroke:#FFFFFF;stroke-width:6;stroke-miterlimit:10;" x1="472.131" y1="250.119" x2="223.657" y2="250.119"/>
			<rect x="229.539" y="251.345" style="fill:#FFFFFF;" width="237.711" height="12.721"/>
		</g>
		<rect x="232.61" y="257.315" style="fill:#FFFFFF;" width="6.115" height="171.025"/>
		<path style="fill:none;stroke:#142152;stroke-miterlimit:10;" d="M425.799,236.712c3.934-0.355,7.582,2.5,11.53,2.35
			c0.191-0.007,0.414-0.008,0.53,0.144c0.116,0.152-0.095,0.437-0.229,0.301"/>
		<path style="fill:none;stroke:#142152;stroke-miterlimit:10;" d="M453.531,222.368c-1.602-0.463-3.275,0.257-4.843,0.827
			c-3.016,1.097-6.219,1.677-9.428,1.707"/>
		<path style="fill:none;stroke:#000000;stroke-miterlimit:10;" d="M345.21,353.674c0.794-12.018,8.607-19.228,18.11-25.535
			c4.682-3.107,10.078-5.365,14.398-8.974c4.712-3.937,8.907-8.651,13.272-12.965"/>
		<path style="fill:none;stroke:#1B2B5C;stroke-miterlimit:10;" d="M350.165,459.115c0.057,0.195-0.26,0.317-0.416,0.187
			c-0.156-0.13-0.173-0.359-0.175-0.562c-0.011-0.848,0.012-1.696,0.07-2.542c0.025-0.36,0.072-0.754,0.337-1
			c0.584-0.542,1.51,0.14,1.867,0.853c0.357,0.713,0.692,1.625,1.479,1.747c0.805,0.125,1.449-0.757,1.489-1.57
			c0.04-0.814-0.3-1.593-0.43-2.397c-0.13-0.804,0.042-1.778,0.766-2.15c0.995-0.512,2.077,0.448,2.837,1.268
			c0.76,0.82,2.06,1.613,2.882,0.855c1.225-1.131-0.971-3.093-0.531-4.7"/>
		<path style="fill:none;stroke:#1B2B5C;stroke-miterlimit:10;" d="M270.813,443.197c-0.119-1.413,0.133-2.855,0.725-4.144
			c0.203-0.442,0.485-0.9,0.946-1.055c0.821-0.276,1.617,0.602,1.753,1.457c0.136,0.855-0.111,1.733-0.008,2.593
			s0.808,1.785,1.655,1.604c1.114-0.237,1.061-1.799,1.172-2.932c0.118-1.2,0.752-2.341,1.71-3.074
			c0.202-0.155,0.429-0.297,0.683-0.321c0.825-0.081,1.23,1.022,1.115,1.843c-0.115,0.821-0.444,1.721-0.012,2.428
			c0.52,0.851,1.874,0.783,2.621,0.122c0.747-0.661,1.042-1.681,1.303-2.643"/>
		<path style="fill:none;stroke:#142152;stroke-miterlimit:10;" d="M311.343,337.418c0.466,1.047,1.441,1.852,2.557,2.112"/>
		<path style="fill:none;stroke:#142152;stroke-miterlimit:10;" d="M363.581,349.825c-0.908,1.324-2.486,2.161-4.091,2.172"/>
	</g>
	<ellipse style="fill:#191A37;" cx="278.023" cy="223.911" rx="13.794" ry="8.309"/>
	<g>
		<rect x="123.894" y="104.509" style="fill:#FFFFFF;" width="54.452" height="81.294"/>
		
			<line style="opacity:0.68;fill:none;stroke:#142152;stroke-miterlimit:10;" x1="131.319" y1="119.441" x2="170.096" y2="119.441"/>
		
			<line style="opacity:0.68;fill:none;stroke:#142152;stroke-miterlimit:10;" x1="131.319" y1="128.566" x2="170.096" y2="128.566"/>
		<line style="opacity:0.68;fill:none;stroke:#142152;stroke-miterlimit:10;" x1="131.319" y1="137.69" x2="170.096" y2="137.69"/>
		
			<line style="opacity:0.68;fill:none;stroke:#142152;stroke-miterlimit:10;" x1="131.319" y1="146.815" x2="170.096" y2="146.815"/>
		<line style="opacity:0.68;fill:none;stroke:#142152;stroke-miterlimit:10;" x1="131.319" y1="155.94" x2="156.895" y2="155.94"/>
		
			<ellipse style="opacity:0.68;fill:none;stroke:#557ED9;stroke-width:2;stroke-miterlimit:10;" cx="140.763" cy="172.901" rx="6.969" ry="7.007"/>
	</g>
	<g>
		<rect x="167.704" y="46.317" style="fill:#FFFFFF;" width="111.245" height="40.717"/>
		<g>
			<g>
				<g>
					<g>
						
							<line style="fill:none;stroke:#FFCCC0;stroke-width:0.5;stroke-miterlimit:10;" x1="173.521" y1="46.317" x2="173.521" y2="48.817"/>
						
							<line style="fill:none;stroke:#FFCCC0;stroke-width:0.5;stroke-miterlimit:10;stroke-dasharray:5.6218,5.6218;" x1="173.521" y1="54.439" x2="173.521" y2="85.359"/>
						
							<line style="fill:none;stroke:#FFCCC0;stroke-width:0.5;stroke-miterlimit:10;" x1="173.521" y1="88.17" x2="173.521" y2="90.67"/>
					</g>
				</g>
				<g>
					<g>
						
							<line style="fill:none;stroke:#FFCCC0;stroke-width:0.5;stroke-miterlimit:10;" x1="182.609" y1="46.317" x2="182.609" y2="48.817"/>
						
							<line style="fill:none;stroke:#FFCCC0;stroke-width:0.5;stroke-miterlimit:10;stroke-dasharray:5.6218,5.6218;" x1="182.609" y1="54.439" x2="182.609" y2="85.359"/>
						
							<line style="fill:none;stroke:#FFCCC0;stroke-width:0.5;stroke-miterlimit:10;" x1="182.609" y1="88.17" x2="182.609" y2="90.67"/>
					</g>
				</g>
				<g>
					<g>
						
							<line style="fill:none;stroke:#FFCCC0;stroke-width:0.5;stroke-miterlimit:10;" x1="191.698" y1="46.317" x2="191.698" y2="48.817"/>
						
							<line style="fill:none;stroke:#FFCCC0;stroke-width:0.5;stroke-miterlimit:10;stroke-dasharray:5.6218,5.6218;" x1="191.698" y1="54.439" x2="191.698" y2="85.359"/>
						
							<line style="fill:none;stroke:#FFCCC0;stroke-width:0.5;stroke-miterlimit:10;" x1="191.698" y1="88.17" x2="191.698" y2="90.67"/>
					</g>
				</g>
				<g>
					<g>
						
							<line style="fill:none;stroke:#FFCCC0;stroke-width:0.5;stroke-miterlimit:10;" x1="200.787" y1="46.317" x2="200.787" y2="48.817"/>
						
							<line style="fill:none;stroke:#FFCCC0;stroke-width:0.5;stroke-miterlimit:10;stroke-dasharray:5.6218,5.6218;" x1="200.787" y1="54.439" x2="200.787" y2="85.359"/>
						
							<line style="fill:none;stroke:#FFCCC0;stroke-width:0.5;stroke-miterlimit:10;" x1="200.787" y1="88.17" x2="200.787" y2="90.67"/>
					</g>
				</g>
				<g>
					<g>
						
							<line style="fill:none;stroke:#FFCCC0;stroke-width:0.5;stroke-miterlimit:10;" x1="209.876" y1="46.317" x2="209.876" y2="48.817"/>
						
							<line style="fill:none;stroke:#FFCCC0;stroke-width:0.5;stroke-miterlimit:10;stroke-dasharray:5.6218,5.6218;" x1="209.876" y1="54.439" x2="209.876" y2="85.359"/>
						
							<line style="fill:none;stroke:#FFCCC0;stroke-width:0.5;stroke-miterlimit:10;" x1="209.876" y1="88.17" x2="209.876" y2="90.67"/>
					</g>
				</g>
				<g>
					<g>
						
							<line style="fill:none;stroke:#FFCCC0;stroke-width:0.5;stroke-miterlimit:10;" x1="218.964" y1="46.317" x2="218.964" y2="48.817"/>
						
							<line style="fill:none;stroke:#FFCCC0;stroke-width:0.5;stroke-miterlimit:10;stroke-dasharray:5.6218,5.6218;" x1="218.964" y1="54.439" x2="218.964" y2="85.359"/>
						
							<line style="fill:none;stroke:#FFCCC0;stroke-width:0.5;stroke-miterlimit:10;" x1="218.964" y1="88.17" x2="218.964" y2="90.67"/>
					</g>
				</g>
				<g>
					<g>
						
							<line style="fill:none;stroke:#FFCCC0;stroke-width:0.5;stroke-miterlimit:10;" x1="228.053" y1="46.317" x2="228.053" y2="48.817"/>
						
							<line style="fill:none;stroke:#FFCCC0;stroke-width:0.5;stroke-miterlimit:10;stroke-dasharray:5.6218,5.6218;" x1="228.053" y1="54.439" x2="228.053" y2="85.359"/>
						
							<line style="fill:none;stroke:#FFCCC0;stroke-width:0.5;stroke-miterlimit:10;" x1="228.053" y1="88.17" x2="228.053" y2="90.67"/>
					</g>
				</g>
				<g>
					<g>
						
							<line style="fill:none;stroke:#FFCCC0;stroke-width:0.5;stroke-miterlimit:10;" x1="237.142" y1="46.317" x2="237.142" y2="48.817"/>
						
							<line style="fill:none;stroke:#FFCCC0;stroke-width:0.5;stroke-miterlimit:10;stroke-dasharray:5.6218,5.6218;" x1="237.142" y1="54.439" x2="237.142" y2="85.359"/>
						
							<line style="fill:none;stroke:#FFCCC0;stroke-width:0.5;stroke-miterlimit:10;" x1="237.142" y1="88.17" x2="237.142" y2="90.67"/>
					</g>
				</g>
				<g>
					<g>
						
							<line style="fill:none;stroke:#FFCCC0;stroke-width:0.5;stroke-miterlimit:10;" x1="246.23" y1="46.317" x2="246.23" y2="48.817"/>
						
							<line style="fill:none;stroke:#FFCCC0;stroke-width:0.5;stroke-miterlimit:10;stroke-dasharray:5.6218,5.6218;" x1="246.23" y1="54.439" x2="246.23" y2="85.359"/>
						
							<line style="fill:none;stroke:#FFCCC0;stroke-width:0.5;stroke-miterlimit:10;" x1="246.23" y1="88.17" x2="246.23" y2="90.67"/>
					</g>
				</g>
				<g>
					<g>
						
							<line style="fill:none;stroke:#FFCCC0;stroke-width:0.5;stroke-miterlimit:10;" x1="255.319" y1="46.317" x2="255.319" y2="48.817"/>
						
							<line style="fill:none;stroke:#FFCCC0;stroke-width:0.5;stroke-miterlimit:10;stroke-dasharray:5.6218,5.6218;" x1="255.319" y1="54.439" x2="255.319" y2="85.359"/>
						
							<line style="fill:none;stroke:#FFCCC0;stroke-width:0.5;stroke-miterlimit:10;" x1="255.319" y1="88.17" x2="255.319" y2="90.67"/>
					</g>
				</g>
				<g>
					<g>
						
							<line style="fill:none;stroke:#FFCCC0;stroke-width:0.5;stroke-miterlimit:10;" x1="264.408" y1="46.317" x2="264.408" y2="48.817"/>
						
							<line style="fill:none;stroke:#FFCCC0;stroke-width:0.5;stroke-miterlimit:10;stroke-dasharray:5.6218,5.6218;" x1="264.408" y1="54.439" x2="264.408" y2="85.359"/>
						
							<line style="fill:none;stroke:#FFCCC0;stroke-width:0.5;stroke-miterlimit:10;" x1="264.408" y1="88.17" x2="264.408" y2="90.67"/>
					</g>
				</g>
				<g>
					<g>
						
							<line style="fill:none;stroke:#FFCCC0;stroke-width:0.5;stroke-miterlimit:10;" x1="273.496" y1="46.317" x2="273.496" y2="48.817"/>
						
							<line style="fill:none;stroke:#FFCCC0;stroke-width:0.5;stroke-miterlimit:10;stroke-dasharray:5.6218,5.6218;" x1="273.496" y1="54.439" x2="273.496" y2="85.359"/>
						
							<line style="fill:none;stroke:#FFCCC0;stroke-width:0.5;stroke-miterlimit:10;" x1="273.496" y1="88.17" x2="273.496" y2="90.67"/>
					</g>
				</g>
			</g>
			<g>
				
					<line style="fill:none;stroke:#FFCCC0;stroke-width:0.5;stroke-miterlimit:10;stroke-dasharray:5;" x1="165.159" y1="49.589" x2="281.858" y2="49.589"/>
				
					<line style="fill:none;stroke:#FFCCC0;stroke-width:0.5;stroke-miterlimit:10;stroke-dasharray:5;" x1="165.159" y1="59.041" x2="281.858" y2="59.041"/>
				
					<line style="fill:none;stroke:#FFCCC0;stroke-width:0.5;stroke-miterlimit:10;stroke-dasharray:5;" x1="165.159" y1="68.493" x2="281.858" y2="68.493"/>
				
					<line style="fill:none;stroke:#FFCCC0;stroke-width:0.5;stroke-miterlimit:10;stroke-dasharray:5;" x1="165.159" y1="77.946" x2="281.858" y2="77.946"/>
				
					<line style="fill:none;stroke:#FFCCC0;stroke-width:0.5;stroke-miterlimit:10;stroke-dasharray:5;" x1="165.159" y1="87.398" x2="281.858" y2="87.398"/>
			</g>
		</g>
		<polyline style="fill:none;stroke:#CF4646;stroke-miterlimit:10;" points="273.86,65.949 268.77,71.765 265.135,63.04 
			257.864,75.401 258.591,54.315 250.593,71.038 247.684,65.222 243.322,69.584 241.141,65.222 233.143,74.674 236.051,55.042 
			227.326,71.038 223.327,66.676 218.601,73.22 214.965,68.13 209.876,76.128 206.967,55.042 198.969,72.493 194.607,65.949 
			190.971,71.038 188.063,65.949 185.154,74.674 180.792,57.223 174.611,71.765 172.067,63.767 168.795,68.857 		"/>
	</g>
	<path style="fill:none;stroke:#142152;stroke-miterlimit:10;" d="M239.916,367.962c-2.764-4.416-13.461-5.149-18.377-5.979
		c-2.391-0.404-5.062-0.889-6.471-2.863"/>
	<path style="fill:#FFFFFF;" d="M251.406,467.764c15.291,2.163,30.796,2.81,46.214,1.928c-0.324-1.336-1.402-2.341-2.457-3.223
		c-7.236-6.05-15.457-8.791-24.02-12.609c-0.444-0.198-0.904-0.409-1.21-0.786c-0.284-0.35-0.403-0.802-0.507-1.241
		c-0.703-2.963-1.355-6.303-1.171-9.365c0.128-2.122,1.421-4.133-0.474-5.887c-2.865-2.652-9.852,0.582-12.24,2.573
		c-5.655,4.714-6.429,16.186-7.455,24.222C247.815,465.501,249.286,467.465,251.406,467.764z"/>
	<path style="fill:#FFFFFF;" d="M191.087,442.15c10.26,8.048,21.221,15.201,32.719,21.352c1.467,0.785,3.149-0.658,2.594-2.227
		c-0.004-0.013-0.009-0.025-0.013-0.037c-3.121-8.785-8.467-16.769-15.401-23.002c-0.156-0.141,8.765-12.021,7.348-15.031
		c-1.489-3.163-8.212-4.356-11.364-3.842c-6.453,1.053-12.272,8.932-16.881,14.967C188.225,436.768,188.672,440.255,191.087,442.15z
		"/>
	<path style="fill:none;stroke:#142152;stroke-miterlimit:10;" d="M246.591,395.986c-0.461-1.918-0.922-3.837-1.383-5.755
		c-0.957-3.981-1.914-7.962-2.871-11.943"/>
	<g>
		
			<line style="fill:none;stroke:#CF4646;stroke-width:4;stroke-miterlimit:10;" x1="186.064" y1="364.015" x2="181.253" y2="463.3"/>
		
			<line style="fill:none;stroke:#CF4646;stroke-width:4;stroke-miterlimit:10;" x1="156.311" y1="350.102" x2="165.245" y2="454.494"/>
		
			<line style="fill:none;stroke:#CF4646;stroke-width:4;stroke-miterlimit:10;" x1="131.268" y1="358.022" x2="116.049" y2="452.125"/>
		<path style="fill:#EB9A7A;" d="M205.046,157.016c-1.613,5.303-5.875,10.151-11.372,10.866c-1.358,0.177-2.864,0.146-3.91,1.031
			c-0.947,0.801-1.227,2.122-1.452,3.341c-0.995,5.407-1.99,10.815-2.985,16.222c-0.125,0.679-0.286,1.421-0.831,1.846
			c-0.5,0.39-1.188,0.403-1.822,0.4c-6.673-0.038-18.892,2.418-24.106-3.025c3.903-6.818,5.061-14.838,5.688-22.669
			s0.81-15.788,3.028-23.324c2.218-7.536,6.844-14.793,13.979-18.079C202.075,114.04,209.572,142.128,205.046,157.016z"/>
		<path style="fill:#76A3E3;" d="M113.395,332.977c-1.302,9.493,0.426,18.579,9.23,24.149c4.217,2.667,9.477,3.417,14.545,4.047
			c13.807,1.716,27.66,3.056,41.54,4.021c13.193,0.917,25.151-0.252,38.181-2.481c2.536-0.434,5.098-0.859,7.668-0.733
			c4.091,0.201,7.918,1.783,11.583,3.492c4.239,1.978,4.234,2.445,3.887,6.746c-0.705,8.735,0.502,17.684,0.764,26.421
			c0.335,11.169,0.67,22.338,1.005,33.507c0.065,2.168,0.136,4.372,0.814,6.433c1.478,4.488,5.686,7.648,10.183,9.097
			c4.498,1.449,9.315,1.452,14.04,1.442c3.105-0.007,6.44-0.084,8.954-1.907c3.278-2.377,4.057-6.853,4.575-10.87
			c2.694-20.905,1.401-40.05,2.463-61.099c0.705-13.981,4.413-31.505-6.604-41.125c-7.434-6.491-17.792-9.096-27.697-11.475
			c-5.15-1.237-47.593-6.365-47.704-6.881c-3.108-14.49-9.975-29.515-23.843-36.891c-10.855-5.774-25.075-5.704-35.863,0.175
			c-11.402,6.214-13.132,15.155-17.884,25.411C119.857,311.745,114.818,322.604,113.395,332.977z"/>
		<path style="fill:#76A3E3;" d="M172.167,352.644c12.136,0.847,24.284,1.549,36.442,1.982c11.041,0.394,10.706,8.469,7.837,16.861
			c-4.215,12.327-9.976,24.107-16.474,35.394c-2.671,4.639-5.6,9.914-4.08,15.046c1.194,4.031,4.849,6.785,8.438,8.973
			c4.126,2.516,8.464,4.685,12.952,6.477c1.342,0.536,2.744,1.046,4.189,0.985c7.666-0.321,10.588-12.971,14.371-18.019
			c7.713-10.293,12.884-21.657,18.582-33.017c6.418-12.795,12.844-25.169,17.439-38.798c2.48-7.354,4.42-15.98,0.128-22.447
			c-3.072-4.629-8.578-6.897-13.757-8.909c-22.372-8.691-47.122-18.067-71.535-15.586c-8.469,0.861-16.983,3.299-24.051,8.165
			c-6.81,4.689-14.929,6.975-20.152,13.91c-5.466,7.256-4.416,14.037-0.626,21.511C147.384,356.044,162.175,351.947,172.167,352.644
			z"/>
		<path style="fill:#3453B3;" d="M207.171,318.601c0.108-0.067,0.216-0.135,0.324-0.202c1.824-1.138,3.765-2.414,4.528-4.424
			c1.102-2.903-0.651-6.016-2.05-8.788c-4.895-9.695-5.73-22.284-6.313-33c-0.535-9.842,1.175-20.184,1.625-30.038
			c0.665-14.543-1.114-20.193,0.605-34.664c1.741-14.666-14.672-25.318-25.599-26.181c-10.811-0.855-18.911-1.943-26.557,6.673
			c-7.467,8.415-11.251,19.41-14.7,29.92c-9.161,27.915-17.472,56.108-24.917,84.529c-3.906,14.911,6.204,18.741,18.987,19.466
			c6.759,0.384,13.416,1.709,20.086,1.891c6.382,0.174,13.417,0.936,19.658,2.282c5.141,1.109,8.892,4.341,14.666,3.082
			c4.184-0.912,7.909-3.217,11.542-5.483C201.76,321.977,204.466,320.289,207.171,318.601z"/>
		<path style="fill:#EB9A7A;" d="M265.016,213.649c-3.503,0.405-7.64,1.47-10.564,3.504c-3.075,2.139-5.419,5.154-8.465,7.333
			c-1.356,0.97-2.834,1.753-4.304,2.54c-4.682,2.508-9.326,5.088-13.929,7.738c-4.533,2.61-9.193,4.896-12.732,8.792
			c0.797-8.338-0.664-17.056-2.231-25.334c-1.524-8.049-11.834-7.298-17.128-13.549c-0.965-1.139,2.094-11.063,0.636-10.554
			c-7.881,2.752-14.352,6.944-17.475,14.978c-3.806,9.793-2.343,20.823,0.275,30.998c3.631,14.113,9.539,27.921,19.26,38.778
			c1.747,1.952,3.648,3.828,5.964,5.053c7.646,4.046,13.882-0.543,18.904-6.147c7.197-8.031,14.112-16.315,20.727-24.832
			c5.326-6.857,11.084-20.403,21.262-19.837c2.658,0.148,5.276,0.814,7.938,0.819c3.176,0.006,7.754-1.22,10.361-3.081
			c0.751-0.536,1.129-1.703,0.524-2.4c0.256-0.657,1.089-0.873,1.793-0.826c0.704,0.048,1.416,0.264,2.102,0.1
			c0.686-0.164,1.294-0.953,0.934-1.56c-0.176-0.297-0.519-0.445-0.84-0.574c-4.591-1.847-8.267-4.455-12.719-6.48
			c-0.642-0.292-4.51-2.197-1.976-2.936c0.534-0.156,1.102,0.003,1.657,0.038c0.555,0.035,1.212-0.127,1.422-0.642
			C272.342,213.83,268.679,213.225,265.016,213.649z"/>
		<path style="fill:#3453B3;" d="M169.775,234.845c0.622,8.072,1.14,14.673,0.902,14.751c15.939-5.184,31.426-11.755,46.231-19.613
			c-0.951-16.99-12.445-40.661-30.447-47.038c-17.285-6.124-15.704,8.578-18.119,23.196
			C167.823,209.284,168.902,223.513,169.775,234.845z"/>
		<path style="fill:none;stroke:#142152;stroke-miterlimit:10;" d="M214.914,242.77c-0.212,3.401-0.944,6.768-2.163,9.95"/>
		<path style="fill:#191A37;" d="M165.021,125.841c-3.256,3.078-2.366,5.702-2.423,9.579c-0.056,3.828-2.208,4.379-4.071,7.594
			c-2.697,4.652,0.299,6.435,2.604,9.939c1.917,2.915,0.122,6.56,1.716,9.16c4.227,6.896,17.865,0.056,21.738-3.682
			c2.55-2.461,5.607-5.151,7.431-8.224c1.109-1.867,1.405-5.306,4.15-5.467c0.597-0.035,1.206,0.098,1.788-0.041
			c3.48-0.833,0.147-7.992,2.911-10.474c1.477-1.326,3.374-2.234,4.478-3.884c1.388-2.075,1.188-4.807,0.72-7.259
			c-0.423-2.215-1.062-4.478-2.535-6.185c-1.9-2.202-5.019-3.152-7.902-2.765c-2.883,0.387-5.513,1.99-7.504,4.111
			c-1.12,1.193-2.092,2.577-3.501,3.409c-2.259,1.334-5.081,0.96-7.701,0.827c-3.257-0.165-6.637,0.14-9.523,1.66
			C166.541,124.591,165.734,125.168,165.021,125.841z"/>
		<path style="fill:#EB9A7A;" d="M185.697,151.535c-1.598-2.884-0.558-6.933,2.231-8.691c5.02-3.163,11.105,1.683,9.252,7.28
			C195.461,155.316,188.503,156.601,185.697,151.535z"/>
		<path style="fill:none;stroke:#000000;stroke-miterlimit:10;" d="M193.83,144.299c-2.903-0.43-5.895,2.044-6.017,4.976"/>
		<path style="fill:none;stroke:#142152;stroke-miterlimit:10;" d="M217.37,359.642c3.737,2.341,8.234,2.749,12.432,3.736
			c3.973,0.934,7.426,3.605,11.683,3.052c-3.707,1.781-1.376,16.942-1.222,20.681c0.349,8.469,1.035,16.926,0.995,25.408"/>
		<path style="fill:none;stroke:#000000;stroke-miterlimit:10;" d="M200.201,155.432c1.134,0.816,2.745,0.907,3.964,0.222"/>
		<path style="fill:#CF4646;" d="M218.027,358.271c-0.117,0-0.235,0-0.356,0c-12.922,0-19.954-6.763-25.803-17.664
			c-6.132-11.429-11.759-23.974-16.071-36.178c-4.202-11.895-4.788-24.714-8.727-36.687c-2.485-7.552-6.27-14.674-11.139-20.959
			c-1.98-2.556-4.181-5.011-6.939-6.698c-2.463-1.506-5.272-2.339-8.075-3.028c-11.424-2.808-26.45-6.177-38.102-3.802
			c-1.905,0.388-3.832,0.897-5.444,1.985c-3.384,2.283-4.697,6.578-5.505,10.58c-2.812,13.925-0.281,27.573-1.445,41.424
			c-1.215,14.455,2.823,29.994,4.971,44.256c6.705,44.533,61.418,41.602,95.188,38.299c9.834-0.962,19.679-1.925,29.412-3.628
			c1.362-0.238,2.805-0.532,3.802-1.49C227.589,361.036,220.766,358.272,218.027,358.271z"/>
		<path style="fill:none;stroke:#142152;stroke-miterlimit:10;" d="M180.622,246.519c-1.501,0.712-3.12,1.173-4.771,1.358
			c-1.276-4.006-0.69-8.348-1.231-12.517c-0.582-4.486-2.477-8.852-2.081-13.358"/>
		<path style="fill:none;stroke:#191A37;stroke-miterlimit:10;" d="M252.833,240.289c-1.558,2.284-3.116,4.569-4.674,6.853"/>
		
			<line style="fill:none;stroke:#CF4646;stroke-width:4;stroke-miterlimit:10;" x1="211.723" y1="364.015" x2="229.475" y2="463.3"/>
		<path style="fill:none;stroke:#142152;stroke-miterlimit:10;" d="M240.577,366.91c1.497-0.621,2.994-1.243,4.49-1.864
			c2.033-0.844,4.333-1.998,4.771-4.155"/>
	</g>
	<path style="fill:none;stroke:#142152;stroke-miterlimit:10;" d="M267.095,328.789c-15.656-7.145-37.809-11.717-54.623-14.851"/>
	<path style="fill:#3453B3;" d="M198.569,363.329c-0.23,0.345-0.46,0.691-0.691,1.036"/>
</g>
</svg>
