<?xml version="1.0" encoding="utf-8"?>
<!-- Generator: Adobe Illustrator 27.5.0, SVG Export Plug-In . SVG Version: 6.00 Build 0)  -->
<svg version="1.1" xmlns="http://www.w3.org/2000/svg" xmlns:xlink="http://www.w3.org/1999/xlink" x="0px" y="0px"
	 viewBox="0 0 750 500" style="enable-background:new 0 0 750 500;" xml:space="preserve">
<g id="BACKGROUND">
	<rect style="fill:#FFFFFF;" width="750" height="500"/>
</g>
<g id="OBJECTS">
	<g>
		<g>
			<path style="fill:none;stroke:#899EFF;stroke-miterlimit:10;stroke-dasharray:5;" d="M229.458,56.522
				c0,0-30.216-11.893-48.986,10.102c-18.77,21.996-7.645,56.353,5.295,48.428c12.94-7.925,4.441-25.769-25.27-20.488
				c-29.711,5.281-44.798,52.043-53.48,83.278c-8.682,31.235-44.299,58.686-73.704,37.976"/>
			<g>
				<polygon style="fill:#4D73AA;" points="234.536,74.729 249.2,45.981 284.439,63.895 				"/>
				<polygon style="fill:#829EEE;" points="284.439,63.895 243.579,57.002 235.664,54.046 240.163,63.697 				"/>
				<polygon style="fill:#4D73AA;" points="244.384,55.423 235.664,54.046 243.579,57.002 				"/>
			</g>
		</g>
		<g>
			<path id="XMLID_88_" style="fill:#C9C9FF;" d="M536.434,95.721l-14.26-6.509l5.481-14.686l-14.279-14.279l-14.686,5.481
				l-6.509-14.26h-20.193l-6.509,14.26l-14.686-5.481l-14.278,14.279l5.481,14.686l-14.26,6.509v20.193l14.26,6.509l-5.481,14.686
				l14.278,14.279l14.686-5.481l6.509,14.26h20.193l6.509-14.26l14.686,5.481l14.279-14.279l-5.481-14.686l14.26-6.509V95.721z
				 M482.086,130.268c-13.503,0-24.45-10.947-24.45-24.45c0-13.504,10.947-24.45,24.45-24.45c13.504,0,24.45,10.947,24.45,24.45
				C506.536,119.321,495.589,130.268,482.086,130.268z"/>
			<g>
				<g>
					<g>
						<path style="fill:#EDF2FF;" d="M163.25,281.115c-1.8-1.621-3.62-3.209-5.438-4.763c-3.02-2.523-5.965-4.937-8.83-7.207
							c-4.115,1.738-13.665,5.208-24.88,5.46c-15.016,0.345-27.32-5.21-27.32-5.21s12.04-6.105,27.051-6.441
							c8.442-0.192,16.025,1.48,21.045,2.98c-2.884-2.229-5.685-4.326-8.42-6.315c-0.544-0.392-1.085-0.78-1.623-1.164
							c-0.013-0.012-0.029-0.022-0.045-0.032c-2.336-1.669-4.613-3.256-6.813-4.754c-2.992,1.851-9.371,5.287-17.203,6.486
							c-10.919,1.672-20.488-1.649-20.488-1.649s8.134-6.035,19.053-7.708c5.691-0.873,10.995-0.382,14.791,0.279
							c-1.649-1.097-3.241-2.136-4.768-3.118c-3.127-1.999-6.165-3.872-9.101-5.619c-1.734,1.796-5.853,5.493-11.369,6.82
							c-7.394,1.776-14.485-1.393-14.485-1.393s4.884-6.038,12.274-7.815c3.398-0.817,6.726-0.581,9.338-0.097
							c-1.818-1.046-3.599-2.054-5.348-3.032l-0.752-0.413c0,0-10.382-0.688-17.103-3.856c-9.683-4.566-15.333-12.941-15.333-12.941
							s10.058-0.98,19.736,3.59c6.839,3.22,14.39,10.306,14.39,10.306c0.111,0.059,2.371,1.274,6.161,3.496
							c-1.338-2.008-2.63-4.538-3.26-7.441c-1.618-7.423,1.695-14.452,1.695-14.452s5.937,5.012,7.553,12.443
							c1.102,5.044-0.072,9.869-0.939,12.465c4.082,2.484,9.073,5.635,14.628,9.369c-1.74-3.487-3.983-8.981-4.701-15.403
							c-1.229-10.977,2.476-20.404,2.476-20.404s5.701,8.376,6.928,19.356c0.894,7.974-0.809,15.09-1.81,18.407
							c5.65,3.873,11.791,8.291,18.096,13.191c-1.945-4.795-4.618-12.912-5.075-22.285c-0.732-14.999,4.491-27.44,4.491-27.44
							s6.417,11.873,7.153,26.871c0.547,11.185-2.209,20.904-3.649,25.147c5.469,4.348,11.026,9.043,16.446,14.032
							c-0.883-4.988-2.206-15.779,0.012-27.625c3.039-16.239,11.593-28.266,11.593-28.266s3.625,14.306,0.582,30.55
							c-2.418,12.912-8.307,23.135-10.624,26.793c0.721,0.674,1.437,1.352,2.153,2.035c0.493,0.442,0.975,0.871,1.474,1.32
							c-0.016,0.016-0.034,0.035-0.05,0.051c1.996,1.944,3.957,3.926,5.884,5.94l-2.775,1.799c-3.288-3.42-6.684-6.737-10.143-9.928
							c-4.124,1.741-15.024,5.775-27.963,6.07c-16.524,0.374-30.056-5.521-30.056-5.521s13.25-6.493,29.77-6.866
							C148.462,276.972,157.951,279.403,163.25,281.115z"/>
					</g>
					<g>
						<path style="fill:#E1E1FF;" d="M598.771,318.999c15.914-12.716,35.061-33.641,31.317-58.778
							c-6.238-41.883,49.12-86.483,34.173-106.745c-17.059-23.12-115.16,17.093-154.703,64.676
							c-12.895,15.518-21.841,34.116-27.472,53.098L598.771,318.999z"/>
						<path style="fill:#FFFFFF;" d="M585.93,302.687c-0.162,0.035-10.41,2.128-25.38,0.672l7.603,3.111
							c11.052,0.292,18.193-1.166,18.329-1.196c0.714-0.153,1.169-0.856,1.017-1.569
							C587.345,302.989,586.644,302.536,585.93,302.687z M607.341,262.787c-0.554-0.476-1.39-0.417-1.867,0.137
							c-0.275,0.32-25.589,29.11-64.101,32.588l5.044,2.064c36.866-5.399,60.788-32.609,61.059-32.924
							C607.953,264.099,607.893,263.263,607.341,262.787z M503.229,253.274c-0.201-0.702-0.934-1.107-1.637-0.907
							c-0.701,0.202-1.107,0.934-0.906,1.636c0.252,0.881,4.94,16.874,15.749,31.303l5.074,2.076
							C508.843,272.405,503.293,253.503,503.229,253.274z M620.569,221.931c-0.412-0.604-1.234-0.76-1.837-0.348
							c-0.398,0.27-38.017,26.035-82.265,67.164c16.512-25.166,65.627-96.147,112.068-124.913c0.619-0.385,0.812-1.2,0.427-1.821
							c-0.383-0.621-1.201-0.814-1.82-0.428c-46.926,29.07-96.404,100.591-112.955,125.816c18.742-54.112,43.24-97.338,43.5-97.795
							c0.363-0.634,0.141-1.442-0.494-1.805c-0.642-0.367-1.44-0.139-1.803,0.494c-0.269,0.471-26.21,46.244-45.204,102.637
							l5.435,2.224c45.228-42.42,84.198-69.114,84.601-69.388C620.825,223.358,620.981,222.535,620.569,221.931z M531.003,213.091
							c-0.685-0.256-1.446,0.091-1.702,0.775c-0.109,0.296-10.361,28.556-2.476,75.692l2.881,1.179
							c-8.269-47.339,1.963-75.652,2.072-75.945C532.034,214.109,531.678,213.348,531.003,213.091z"/>
					</g>
					<g>
						<g>
							<path style="fill:#DEE6FF;" d="M693.186,251.84c0,0,10.39,5.553,19.839-4.425c8.661-9.142,2.828-19.529,2.828-19.529
								s-10.786,1.102-14.217,10.671C697.615,249.768,693.186,251.84,693.186,251.84z"/>
							<path style="fill:#DEE6FF;" d="M650.289,239.238c0,0,0.831-9.57,12.295-13.557c11.892-4.137,19.644,3.041,19.644,3.041
								s-5.353,6.692-15.274,9.337C656.363,240.882,650.289,239.238,650.289,239.238z"/>
							<path style="fill:#D3DCFA;" d="M640.576,249.241c0.015-0.163,0.058-0.327,0.133-0.482c6.6-13.617,23.142-17.898,23.841-18.09
								c0.734-0.204,1.431-0.166,1.633,0.569c0.206,0.734-0.624,0.828-1.357,1.03c-0.159,0.045-15.587,5.217-21.633,17.694
								c-0.332,0.687-1.158,0.972-1.844,0.641C640.82,250.346,640.528,249.794,640.576,249.241z"/>
							<path style="fill:#D3DCFA;" d="M574.545,284.725c0.014-0.167,0.06-0.334,0.138-0.491
								c7.841-15.855,35.092-43.491,82.112-34.612c41.353,7.811,49.31-6.11,49.382-6.255c0.335-0.678,0.825-1.399,1.506-1.071
								c0.681,0.328,0.424,0.988,0.105,1.671c-0.319,0.678-7.722,16.634-51.505,8.366c-45.393-8.573-71.607,17.918-79.127,33.124
								c-0.338,0.683-1.164,0.963-1.848,0.625C574.783,285.821,574.497,285.274,574.545,284.725z"/>
						</g>
						<g>
							<path style="fill:#DEE6FF;" d="M128.357,208.356c0,0,0.026-11.781-13.22-15.441c-12.137-3.356-18.571,6.67-18.571,6.67
								s6.037,9.007,16.096,7.544C124.448,205.418,128.357,208.356,128.357,208.356z"/>
							<path style="fill:#DEE6FF;" d="M137.366,252.149c0,0-8.84,3.758-17.742-4.492c-9.235-8.558-6.536-18.772-6.536-18.772
								s8.421,1.585,15.414,9.104C135.966,246.014,137.366,252.149,137.366,252.149z"/>
							<path style="fill:#D3DCFA;" d="M150.758,256.029c-0.151,0.063-0.316,0.102-0.488,0.109
								c-15.121,0.564-26.667-12.032-27.164-12.559c-0.524-0.552-0.818-1.185-0.264-1.709c0.552-0.526,1.024,0.162,1.547,0.715
								c0.114,0.119,11.923,11.314,25.778,10.795c0.762-0.029,1.402,0.566,1.431,1.328
								C151.619,255.295,151.269,255.812,150.758,256.029z"/>
							<path style="fill:#D3DCFA;" d="M213.085,297.677c-0.154,0.066-0.323,0.104-0.499,0.109
								c-17.68,0.52-54.875-10.57-69.106-56.255c-12.515-40.18-28.542-40.672-28.704-40.667c-0.756,0.023-1.622-0.072-1.652-0.827
								c-0.03-0.755,0.674-0.838,1.426-0.877c0.748-0.036,18.312-0.99,31.564,41.55c13.738,44.105,49.434,54.816,66.391,54.318
								c0.761-0.022,1.397,0.576,1.42,1.339C213.941,296.952,213.592,297.461,213.085,297.677z"/>
						</g>
						<g>
							<path style="fill:#DEE6FF;" d="M544.938,342.994c31.358-0.89,43.191,12.339,64.473,24.371
								c21.284,12.034,63.384,27.525,82.719-2.862c19.335-30.387-28.057-78.032-76.132-81.052
								C567.925,280.429,544.938,342.994,544.938,342.994z"/>
							<path style="fill:#EDF2FF;" d="M554.155,299.781c0.22,0.271,0.542,0.458,0.916,0.499
								c61.881,6.952,113.811,55.003,114.328,55.487c0.556,0.522,1.43,0.494,1.95-0.062c0.521-0.557,0.501-1.436-0.064-1.95
								c-0.524-0.492-53.125-49.162-115.906-56.216c-0.758-0.084-1.44,0.459-1.524,1.217
								C553.811,299.138,553.93,299.503,554.155,299.781z"/>
						</g>
						<g>
							<path style="fill:#EDF2FF;" d="M289.448,347.448c8.317-48.915,12.907-83.077-7.82-78.438
								c-20.727,4.639-23.283-1.662-17.941-36.651s-12.642-20.654-26.319-4.992s12.303-42.275-8.318-47.397
								c-20.621-5.122-22.69,29.135-25.343-0.628c-2.653-29.763-9.515-37.392-22.052-29.43
								c-12.537,7.961-8.345,13.896-21.068-19.914c-12.723-33.81-34.517-13.467-26.181,5.86
								c8.335,19.327,51.31,52.666,31.544,51.363c-19.766-1.303-37.319,17.518,4.232,31.701
								c41.551,14.183-32.532,15.873-16.503,31.187c16.029,15.314,65.787,4.749,55.504,20.225
								c-10.283,15.475-41.644-6.717-49.442,13.358c-7.798,20.074,70.851,31.109,87.734,50.241
								C264.357,353.065,287.047,361.569,289.448,347.448z"/>
							<path style="fill:#FFFFFF;" d="M241.709,281.088c-14.484-24.004-31.297-51.457-47.058-76.205
								c-8.286-2.251-32.478,0.652-32.478,0.652c9.11-2.907,28.984-2.461,31.366-2.396c-4.43-6.941-8.769-13.655-12.943-20.005
								c4.486,6.567,9.407,13.812,14.59,21.508l0.582,0.617c-0.072-0.03-0.15-0.059-0.226-0.088
								c5.531,8.216,11.352,16.934,17.249,25.875c0-0.003-2.089-16.613,4.171-25.746c0,0-5.911,15.814-1.269,30.154l-0.046-0.071
								c5.749,8.749,11.537,17.664,17.17,26.49c1.18-4.861,5.499-18.459,18.012-25.341c0,0-15.683,14.198-15.083,29.944
								c20.459,32.257,38.356,62.69,43.998,78.562c0,0-15.203-26.044-35.602-59.915c-16.265-5.056-46.433,4.962-46.433,4.962
								C212.175,282.021,239.692,281.142,241.709,281.088z"/>
						</g>
					</g>
					<g>
						<path style="fill:#EDF2FF;" d="M597.89,281.442c1.891-1.513,3.754-3.052,5.581-4.593c2.979-2.571,5.838-5.085,8.543-7.545
							c-1.048-4.342-2.924-14.329-1.353-25.436c2.094-14.874,9.571-26.114,9.571-26.114s4.072,12.871,1.97,27.737
							c-1.179,8.361-4.059,15.573-6.353,20.283c2.668-2.484,5.191-4.909,7.596-7.285c0.475-0.473,0.945-0.944,1.412-1.413
							c0.014-0.011,0.027-0.025,0.039-0.04c2.025-2.035,3.961-4.024,5.795-5.952c-1.341-3.253-3.697-10.104-3.611-18.027
							c0.121-11.046,4.949-19.949,4.949-19.949s4.636,9.005,4.517,20.05c-0.061,5.757-1.405,10.911-2.674,14.55
							c1.35-1.449,2.633-2.852,3.85-4.2c2.479-2.761,4.82-5.455,7.02-8.07c-1.491-2.002-4.471-6.667-4.886-12.325
							c-0.554-7.585,3.723-14.068,3.723-14.068s5.167,5.798,5.721,13.378c0.255,3.486-0.517,6.731-1.419,9.23
							c1.327-1.625,2.61-3.218,3.859-4.786l0.529-0.676c0,0,2.362-10.133,6.578-16.252c6.076-8.815,15.255-13.032,15.255-13.032
							s-0.663,10.084-6.742,18.893c-4.286,6.227-12.503,12.529-12.503,12.529c-0.077,0.1-1.641,2.133-4.449,5.513
							c2.198-0.995,4.905-1.859,7.871-2.01c7.587-0.393,13.986,4.015,13.986,4.015s-5.908,5.045-13.503,5.436
							c-5.156,0.269-9.727-1.671-12.148-2.947c-3.113,3.626-7.031,8.039-11.617,12.916c3.723-1.152,9.508-2.474,15.961-2.142
							c11.031,0.567,19.733,5.752,19.733,5.752s-9.19,4.267-20.224,3.698c-8.013-0.411-14.759-3.245-17.87-4.771
							c-4.737,4.947-10.093,10.291-15.951,15.718c5.047-1.142,13.49-2.464,22.813-1.395c14.92,1.709,26.349,8.881,26.349,8.881
							s-12.756,4.407-27.675,2.702c-11.125-1.273-20.269-5.569-24.223-7.678c-5.177,4.692-10.711,9.414-16.513,13.953
							c5.065-0.062,15.928,0.381,27.258,4.491c15.531,5.632,26.012,16.023,26.012,16.023s-14.704,1.257-30.24-4.379
							c-12.349-4.479-21.482-11.949-24.716-14.827c-0.782,0.602-1.568,1.199-2.357,1.794c-0.516,0.414-1.017,0.821-1.542,1.24
							c-0.014-0.018-0.029-0.04-0.042-0.058c-2.241,1.655-4.516,3.268-6.815,4.843l-1.326-3.03c3.908-2.69,7.732-5.504,11.441-8.399
							c-1.05-4.352-3.262-15.761-1.456-28.578c2.31-16.366,10.321-28.763,10.321-28.763s4.259,14.127,1.948,30.489
							C604.376,267.52,600.439,276.491,597.89,281.442z"/>
					</g>
				</g>
				<path id="XMLID_86_" style="fill:#DBE2FB;" d="M285.391,447.105h201.128c55.945-34.008,93.313-95.534,93.313-165.789
					c0-107.075-86.802-193.877-193.877-193.877s-193.877,86.802-193.877,193.877C192.078,351.571,229.446,413.098,285.391,447.105z"
					/>
			</g>
		</g>
		<path id="XMLID_102_" style="fill:#BDCAF8;" d="M446.965,105.822l-21.321-9.731l8.195-21.957l-21.348-21.348l-21.957,8.195
			l-9.731-21.321h-30.191l-9.731,21.321l-21.957-8.195l-21.348,21.348l8.195,21.957l-21.321,9.731v30.191l21.321,9.731
			l-8.195,21.957l21.348,21.348l21.957-8.195l9.731,21.321h30.191l9.731-21.321l21.957,8.195l21.348-21.348l-8.195-21.957
			l21.321-9.731V105.822z M365.707,157.474c-20.189,0-36.556-16.367-36.556-36.556c0-20.189,16.367-36.556,36.556-36.556
			c20.19,0,36.557,16.367,36.557,36.556C402.264,141.108,385.897,157.474,365.707,157.474z"/>
		<g>
			<g>
				<path style="fill:#829EEE;" d="M154.756,295.083c-13.434-92.293,50.494-178.004,142.782-191.437
					c92.293-13.431,177.999,50.5,191.432,142.79c13.436,92.295-50.493,177.998-142.785,191.432
					C253.892,451.302,168.186,387.373,154.756,295.083z"/>
				<path style="fill:#FFFFFF;" d="M325.395,116.684c-84.978-1.171-154.815,66.766-155.989,151.747
					c-1.169,84.982,66.77,154.821,151.747,155.991c84.982,1.173,154.823-66.768,155.996-151.747
					C478.321,187.694,410.38,117.859,325.395,116.684z"/>
				
					<rect x="192.357" y="123.37" transform="matrix(0.7745 -0.6326 0.6326 0.7745 -38.2027 164.5329)" style="fill:#4D73AA;" width="38.65" height="24.963"/>
				<path style="fill:#4D73AA;" d="M175.061,200.987c1.514,0.574,2.282,2.281,1.709,3.795l-7.275,19.191
					c-0.574,1.514-2.281,2.282-3.795,1.709l-17.839-6.762c-1.513-0.574-2.282-2.281-1.709-3.795l7.275-19.191
					c0.574-1.514,2.281-2.282,3.795-1.709L175.061,200.987z"/>
				<path style="fill:#4D73AA;" d="M308.886,108.739c0.26,1.598-0.834,3.117-2.432,3.377l-20.257,3.295
					c-1.598,0.26-3.117-0.834-3.377-2.432l-3.063-18.83c-0.26-1.598,0.834-3.117,2.432-3.377l20.257-3.295
					c1.598-0.26,3.117,0.835,3.377,2.432L308.886,108.739z"/>
				<path style="fill:#829EEE;" d="M225.003,110.69c0.512,0.627,0.418,1.558-0.209,2.07l-38.358,31.327
					c-0.627,0.512-1.558,0.418-2.07-0.209l-7.523-9.211c-0.512-0.627-0.418-1.558,0.209-2.07l38.358-31.327
					c0.627-0.512,1.558-0.418,2.07,0.209L225.003,110.69z"/>
				<g>
					<g>
						<path style="fill:#FFAE0C;" d="M331.321,398.265c0.846-0.053,1.576,0.591,1.63,1.437l0.781,12.402
							c0.052,0.847-0.592,1.578-1.439,1.632c-0.847,0.053-1.578-0.59-1.631-1.438l-0.782-12.4
							C329.827,399.05,330.471,398.319,331.321,398.265z"/>
					</g>
					<g>
						<path style="fill:#FFAE0C;" d="M314.262,127.37c0.848-0.054,1.577,0.591,1.632,1.439l0.78,12.401
							c0.053,0.848-0.591,1.577-1.438,1.631c-0.848,0.053-1.579-0.59-1.632-1.438l-0.781-12.402
							C312.77,128.154,313.414,127.422,314.262,127.37z"/>
					</g>
				</g>
				<g>
					<g>
						<path style="fill:#4D73AA;" d="M365.966,396.125c0.677-0.042,1.327,0.37,1.553,1.045l2.491,7.405
							c0.271,0.805-0.162,1.676-0.966,1.948c-0.802,0.268-1.677-0.162-1.948-0.967l-2.494-7.405
							c-0.27-0.804,0.164-1.678,0.968-1.948C365.701,396.16,365.834,396.135,365.966,396.125z"/>
					</g>
					<g>
						<path style="fill:#4D73AA;" d="M277.904,134.504c0.678-0.043,1.327,0.371,1.554,1.045l2.492,7.404
							c0.27,0.805-0.163,1.677-0.968,1.948c-0.798,0.267-1.675-0.163-1.947-0.967l-2.492-7.406c-0.27-0.804,0.162-1.676,0.967-1.947
							C277.642,134.538,277.774,134.512,277.904,134.504z"/>
					</g>
				</g>
				<g>
					<g>
						<path style="fill:#4D73AA;" d="M423.79,357.705c0.39-0.023,0.794,0.1,1.109,0.383l5.863,5.166
							c0.636,0.562,0.699,1.533,0.137,2.17c-0.563,0.636-1.534,0.698-2.173,0.138l-5.859-5.167
							c-0.638-0.562-0.698-1.533-0.137-2.171C423.012,357.905,423.394,357.73,423.79,357.705z"/>
					</g>
					<g>
						<path style="fill:#4D73AA;" d="M216.714,175.164c0.391-0.024,0.793,0.101,1.113,0.381l5.859,5.167
							c0.639,0.561,0.7,1.533,0.137,2.171c-0.561,0.636-1.532,0.698-2.168,0.136l-5.862-5.166c-0.636-0.563-0.698-1.534-0.137-2.171
							C215.937,175.364,216.32,175.188,216.714,175.164z"/>
					</g>
				</g>
				<g>
					<g>
						<path style="fill:#4D73AA;" d="M454.652,295.519c0.131-0.008,0.265,0.001,0.401,0.028l7.659,1.544
							c0.832,0.168,1.371,0.978,1.204,1.812c-0.17,0.833-0.983,1.371-1.813,1.203l-7.658-1.545
							c-0.834-0.167-1.371-0.979-1.204-1.811C453.382,296.053,453.973,295.562,454.652,295.519z"/>
					</g>
					<g>
						<path style="fill:#4D73AA;" d="M184.048,240.972c0.133-0.009,0.267-0.001,0.402,0.029l7.66,1.542
							c0.831,0.169,1.372,0.979,1.204,1.81c-0.169,0.835-0.982,1.372-1.812,1.204l-7.659-1.544c-0.833-0.167-1.372-0.979-1.204-1.81
							C182.78,241.507,183.372,241.015,184.048,240.972z"/>
					</g>
				</g>
				<g>
					<g>
						<path style="fill:#4D73AA;" d="M457.695,223.742c0.678-0.045,1.325,0.369,1.554,1.043c0.27,0.804-0.163,1.678-0.968,1.947
							l-7.405,2.493c-0.799,0.267-1.675-0.161-1.947-0.967c-0.271-0.806,0.163-1.677,0.967-1.949l7.405-2.491
							C457.431,223.775,457.564,223.748,457.695,223.742z"/>
					</g>
					<g>
						<path style="fill:#4D73AA;" d="M196.074,311.801c0.677-0.041,1.326,0.372,1.553,1.045c0.271,0.806-0.164,1.678-0.967,1.949
							l-7.403,2.491c-0.805,0.271-1.679-0.161-1.949-0.966c-0.271-0.805,0.161-1.675,0.966-1.947l7.404-2.494
							C195.809,311.835,195.941,311.811,196.074,311.801z"/>
					</g>
				</g>
				<g>
					<g>
						<path style="fill:#4D73AA;" d="M234.495,369.624c0.392-0.025,0.793,0.101,1.112,0.382c0.636,0.561,0.699,1.532,0.136,2.171
							l-5.167,5.86c-0.561,0.638-1.531,0.698-2.17,0.136c-0.636-0.561-0.698-1.533-0.137-2.169l5.168-5.862
							C233.717,369.824,234.1,369.649,234.495,369.624z"/>
					</g>
				</g>
				<g>
					<g>
						<path style="fill:#4D73AA;" d="M351.225,129.886c0.131-0.008,0.267,0.001,0.401,0.028c0.833,0.167,1.373,0.978,1.204,1.811
							l-1.543,7.658c-0.167,0.834-0.984,1.37-1.811,1.205c-0.833-0.169-1.372-0.98-1.204-1.812l1.544-7.66
							C349.956,130.42,350.548,129.928,351.225,129.886z"/>
					</g>
					<g>
						<path style="fill:#4D73AA;" d="M296.678,400.487c0.13-0.006,0.267,0.001,0.401,0.029c0.832,0.168,1.371,0.979,1.204,1.81
							l-1.544,7.66c-0.168,0.833-0.985,1.371-1.81,1.204c-0.833-0.168-1.373-0.979-1.204-1.812l1.543-7.659
							C295.409,401.022,296.001,400.532,296.678,400.487z"/>
					</g>
				</g>
				<g>
					<g>
						<path style="fill:#FFAE0C;" d="M394.851,376.881c0.53-0.034,1.063,0.209,1.378,0.684l6.879,10.348
							c0.468,0.708,0.277,1.661-0.431,2.131c-0.706,0.471-1.663,0.28-2.132-0.429l-6.877-10.349c-0.47-0.707-0.276-1.66,0.43-2.13
							C394.332,376.98,394.592,376.896,394.851,376.881z"/>
					</g>
					<g>
						<path style="fill:#FFAE0C;" d="M244.63,150.807c0.531-0.034,1.064,0.209,1.379,0.683l6.877,10.351
							c0.47,0.707,0.277,1.661-0.428,2.13c-0.707,0.471-1.661,0.279-2.133-0.429l-6.876-10.349
							c-0.472-0.707-0.278-1.662,0.429-2.133C244.111,150.905,244.371,150.823,244.63,150.807z"/>
					</g>
				</g>
				<g>
					<g>
						<path style="fill:#FFAE0C;" d="M439.182,326.593c0.26-0.016,0.528,0.034,0.78,0.159l11.13,5.523
							c0.76,0.378,1.071,1.301,0.693,2.063c-0.378,0.76-1.303,1.07-2.06,0.692l-11.13-5.524c-0.761-0.377-1.072-1.301-0.693-2.06
							C438.155,326.934,438.653,326.626,439.182,326.593z"/>
					</g>
					<g>
						<path style="fill:#FFAE0C;" d="M196.052,205.917c0.26-0.016,0.528,0.035,0.777,0.159l11.13,5.524
							c0.762,0.377,1.074,1.299,0.696,2.06c-0.378,0.763-1.302,1.07-2.061,0.694l-11.132-5.524c-0.758-0.379-1.071-1.3-0.694-2.06
							C195.023,206.259,195.522,205.95,196.052,205.917z"/>
					</g>
				</g>
				<g>
					<g>
						<path style="fill:#FFAE0C;" d="M452.429,260.88l12.401-0.782c0.849-0.054,1.578,0.592,1.631,1.44
							c0.055,0.847-0.589,1.577-1.438,1.631l-12.401,0.781c-0.847,0.052-1.577-0.591-1.631-1.438
							C450.938,261.663,451.581,260.933,452.429,260.88z"/>
					</g>
					<g>
						<path style="fill:#FFAE0C;" d="M193.934,277.155c0.847-0.052,1.577,0.591,1.632,1.438c0.052,0.847-0.59,1.577-1.439,1.633
							l-12.401,0.78c-0.847,0.054-1.579-0.588-1.632-1.437c-0.051-0.848,0.592-1.578,1.438-1.631L193.934,277.155z"/>
					</g>
				</g>
				<g>
					<g>
						<path style="fill:#FFAE0C;" d="M215.316,340.69c0.532-0.034,1.064,0.209,1.379,0.683c0.47,0.708,0.279,1.661-0.43,2.132
							l-10.348,6.877c-0.706,0.47-1.661,0.28-2.131-0.43c-0.47-0.708-0.278-1.662,0.43-2.132l10.348-6.877
							C214.798,340.788,215.057,340.706,215.316,340.69z"/>
					</g>
				</g>
				<g>
					<g>
						<path style="fill:#FFAE0C;" d="M265.607,385.018c0.261-0.016,0.528,0.033,0.779,0.156c0.76,0.379,1.068,1.303,0.692,2.064
							l-5.523,11.129c-0.377,0.762-1.302,1.072-2.061,0.693c-0.761-0.376-1.07-1.3-0.693-2.06l5.523-11.13
							C264.579,385.359,265.076,385.052,265.607,385.018z"/>
					</g>
				</g>
			</g>
		</g>
		<g>
			<path id="XMLID_85_" style="fill:#3A314E;" d="M603.191,447.05h-492.51c-1.727,0-3.127-1.4-3.127-3.127l0,0
				c0-1.727,1.4-3.127,3.127-3.127h492.51c1.727,0,3.127,1.4,3.127,3.127l0,0C606.318,445.65,604.918,447.05,603.191,447.05z"/>
			<path id="XMLID_84_" style="fill:#3A314E;" d="M192.766,454.086h195.441c1.727,0,3.127,1.4,3.127,3.127l0,0
				c0,1.727-1.4,3.127-3.127,3.127H192.766c-1.727,0-3.127-1.4-3.127-3.127l0,0C189.639,455.486,191.039,454.086,192.766,454.086z"
				/>
			<path id="XMLID_83_" style="fill:#3A314E;" d="M427.294,454.086h85.994c1.727,0,3.127,1.4,3.127,3.127l0,0
				c0,1.727-1.4,3.127-3.127,3.127h-85.994c-1.727,0-3.127-1.4-3.127-3.127l0,0C424.167,455.486,425.567,454.086,427.294,454.086z"
				/>
		</g>
		<g>
			<g>
				<path style="fill:#9CB0FB;" d="M613.71,109.067h-0.761H484.721c-0.747,0-1.36,0.613-1.36,1.361v80.127
					c0,0.749,0.613,1.362,1.36,1.362h128.229h0.761c0.747,0,1.36-0.613,1.36-1.362v-80.127
					C615.07,109.68,614.457,109.067,613.71,109.067z"/>
				<g>
					<g>
						<rect x="508.527" y="173.443" style="fill:#FFFFFF;" width="8.374" height="9.704"/>
						<rect x="520.694" y="162.485" style="fill:#FFFFFF;" width="8.374" height="20.663"/>
						<rect x="532.863" y="150.421" style="fill:#FFFFFF;" width="8.372" height="32.726"/>
						<rect x="545.028" y="141.337" style="fill:#FFFFFF;" width="8.374" height="41.811"/>
						<rect x="569.364" y="163.368" style="fill:#FFFFFF;" width="8.374" height="19.779"/>
						<rect x="581.532" y="152.587" style="fill:#FFFFFF;" width="8.374" height="30.561"/>
						<rect x="593.701" y="137.872" style="fill:#FFFFFF;" width="8.372" height="45.276"/>
						<rect x="508.527" y="173.443" style="fill:#FFFFFF;" width="8.374" height="9.704"/>
						<rect x="520.694" y="162.485" style="fill:#FFFFFF;" width="8.374" height="20.663"/>
						<rect x="532.863" y="150.421" style="fill:#FFFFFF;" width="8.372" height="32.726"/>
						<rect x="545.028" y="141.337" style="fill:#FFFFFF;" width="8.374" height="41.811"/>
						<rect x="569.364" y="163.368" style="fill:#FFFFFF;" width="8.374" height="19.779"/>
						<rect x="581.532" y="152.587" style="fill:#FFFFFF;" width="8.374" height="30.561"/>
						<rect x="593.701" y="137.872" style="fill:#FFFFFF;" width="8.372" height="45.276"/>
						<rect x="557.197" y="152.587" style="fill:#FFFFFF;" width="8.372" height="30.561"/>
						<rect x="557.197" y="152.587" style="fill:#FFFFFF;" width="8.372" height="30.561"/>
					</g>
					<polygon style="fill:#FFAE0C;" points="609.801,116.987 600.229,116.987 603.105,119.861 574.12,148.852 549.005,123.617 
						488.632,183.998 495.599,183.998 548.997,130.59 574.112,155.826 606.587,123.346 609.801,126.559 					"/>
				</g>
			</g>
			<g>
				<path style="fill:#9CB0FB;" d="M623.273,373.237h-59.144c-8.941,0-16.189-7.248-16.189-16.189v-88.933
					c0-8.941,7.248-16.189,16.189-16.189h59.144c8.941,0,16.189,7.248,16.189,16.189v88.933
					C639.462,365.989,632.214,373.237,623.273,373.237z"/>
				<path style="fill:#9CB0FB;" d="M623.273,251.926h-17.685l0,14.475c0,8.941,7.248,16.189,16.189,16.189l17.685,0v-14.475
					C639.462,259.174,632.214,251.926,623.273,251.926z"/>
				<path style="fill:#6F88E7;" d="M605.588,251.926l0,14.475c0,8.941,7.248,16.189,16.189,16.189l17.685,0L605.588,251.926z"/>
				<g>
					<rect x="561.618" y="268.784" style="fill:#CED9FD;" width="37.151" height="4.607"/>
					<rect x="561.618" y="282.606" style="fill:#CED9FD;" width="43.055" height="4.607"/>
					<rect x="561.617" y="296.428" style="fill:#CED9FD;" width="64.338" height="4.607"/>
					<rect x="561.618" y="310.251" style="fill:#CED9FD;" width="64.338" height="4.607"/>
					<rect x="561.617" y="324.073" style="fill:#CED9FD;" width="64.338" height="4.607"/>
					<rect x="561.618" y="337.895" style="fill:#CED9FD;" width="64.338" height="4.607"/>
					<rect x="561.617" y="351.717" style="fill:#CED9FD;" width="64.338" height="4.607"/>
				</g>
			</g>
			<g>
				<rect x="355.123" y="219.687" style="fill:#9CB0FB;" width="94.883" height="18.593"/>
				<g>
					<path style="fill:#FFFFFF;" d="M371.433,226.309l-1.205-1.205c-0.144-0.144-0.38-0.144-0.523,0l-4.412,4.412l-1.558-1.558
						c-0.144-0.144-0.379-0.144-0.523,0l-1.204,1.205c-0.144,0.144-0.144,0.379,0,0.523l3.285,3.286l6.14-6.139
						C371.577,226.688,371.577,226.453,371.433,226.309z"/>
					<g>
						<path style="fill:#FFFFFF;" d="M365.708,234.517c-3.051,0-5.534-2.482-5.534-5.533c0-3.051,2.482-5.533,5.534-5.533
							c1.147,0,2.247,0.348,3.183,1.006l-0.367,0.521c-0.827-0.583-1.8-0.891-2.815-0.891c-2.699,0-4.896,2.196-4.896,4.896
							c0,2.699,2.197,4.895,4.896,4.895s4.895-2.196,4.895-4.895h0.637C371.24,232.035,368.759,234.517,365.708,234.517z"/>
					</g>
				</g>
				<path style="fill:#FFFFFF;" d="M444.954,226.317c0,0.642-0.525,1.167-1.166,1.167h-66.487c-0.642,0-1.167-0.525-1.167-1.167
					v-0.641c0-0.642,0.525-1.167,1.167-1.167h66.487c0.641,0,1.166,0.525,1.166,1.167V226.317z"/>
				<path style="fill:#FFFFFF;" d="M422.401,231.711c0,0.642-0.525,1.167-1.166,1.167h-43.933c-0.642,0-1.167-0.525-1.167-1.167
					v-0.641c0-0.642,0.525-1.166,1.167-1.166h43.933c0.642,0,1.166,0.525,1.166,1.166V231.711z"/>
				<rect x="355.123" y="196.622" style="fill:#9CB0FB;" width="94.883" height="18.593"/>
				<g>
					<path style="fill:#FFFFFF;" d="M371.433,203.244l-1.205-1.205c-0.144-0.144-0.38-0.144-0.523,0l-4.412,4.412l-1.558-1.558
						c-0.144-0.144-0.379-0.144-0.523,0l-1.204,1.205c-0.144,0.144-0.144,0.379,0,0.523l3.285,3.285l6.14-6.139
						C371.577,203.623,371.577,203.388,371.433,203.244z"/>
					<g>
						<path style="fill:#FFFFFF;" d="M365.708,211.452c-3.051,0-5.534-2.482-5.534-5.533c0-3.051,2.482-5.533,5.534-5.533
							c1.147,0,2.247,0.348,3.183,1.006l-0.367,0.522c-0.827-0.583-1.8-0.891-2.815-0.891c-2.699,0-4.896,2.196-4.896,4.896
							c0,2.699,2.197,4.895,4.896,4.895s4.895-2.196,4.895-4.895h0.637C371.24,208.969,368.759,211.452,365.708,211.452z"/>
					</g>
				</g>
				<path style="fill:#FFFFFF;" d="M444.954,203.252c0,0.642-0.525,1.167-1.166,1.167h-66.487c-0.642,0-1.167-0.525-1.167-1.167
					v-0.642c0-0.642,0.525-1.166,1.167-1.166h66.487c0.641,0,1.166,0.525,1.166,1.166V203.252z"/>
				<path style="fill:#FFFFFF;" d="M422.401,208.646c0,0.642-0.525,1.167-1.166,1.167h-43.933c-0.642,0-1.167-0.525-1.167-1.167
					v-0.642c0-0.642,0.525-1.166,1.167-1.166h43.933c0.642,0,1.166,0.525,1.166,1.166V208.646z"/>
				<rect x="355.123" y="173.557" style="fill:#9CB0FB;" width="94.883" height="18.593"/>
				<g>
					<path style="fill:#FFFFFF;" d="M371.433,180.179l-1.205-1.205c-0.144-0.144-0.38-0.144-0.523,0l-4.412,4.412l-1.558-1.558
						c-0.144-0.144-0.379-0.144-0.523,0l-1.204,1.205c-0.144,0.144-0.144,0.379,0,0.523l3.285,3.286l6.14-6.14
						C371.577,180.558,371.577,180.322,371.433,180.179z"/>
					<g>
						<path style="fill:#FFFFFF;" d="M365.708,188.386c-3.051,0-5.534-2.482-5.534-5.533c0-3.051,2.482-5.533,5.534-5.533
							c1.147,0,2.247,0.348,3.183,1.007l-0.367,0.521c-0.827-0.583-1.8-0.891-2.815-0.891c-2.699,0-4.896,2.197-4.896,4.896
							c0,2.699,2.197,4.896,4.896,4.896s4.895-2.196,4.895-4.896h0.637C371.24,185.904,368.759,188.386,365.708,188.386z"/>
					</g>
				</g>
				<path style="fill:#FFFFFF;" d="M444.954,180.187c0,0.641-0.525,1.167-1.166,1.167h-66.487c-0.642,0-1.167-0.525-1.167-1.167
					v-0.641c0-0.642,0.525-1.167,1.167-1.167h66.487c0.641,0,1.166,0.525,1.166,1.167V180.187z"/>
				<path style="fill:#FFFFFF;" d="M422.401,185.58c0,0.641-0.525,1.167-1.166,1.167h-43.933c-0.642,0-1.167-0.525-1.167-1.167
					v-0.641c0-0.642,0.525-1.166,1.167-1.166h43.933c0.642,0,1.166,0.525,1.166,1.166V185.58z"/>
				<rect x="355.123" y="150.491" style="fill:#9CB0FB;" width="94.883" height="18.593"/>
				<g>
					<path style="fill:#FFFFFF;" d="M371.433,157.113l-1.205-1.205c-0.144-0.144-0.38-0.144-0.523,0l-4.412,4.412l-1.558-1.558
						c-0.144-0.144-0.379-0.144-0.523,0l-1.204,1.205c-0.144,0.144-0.144,0.379,0,0.523l3.285,3.286l6.14-6.139
						C371.577,157.492,371.577,157.257,371.433,157.113z"/>
					<g>
						<path style="fill:#FFFFFF;" d="M365.708,165.321c-3.051,0-5.534-2.482-5.534-5.533c0-3.051,2.482-5.533,5.534-5.533
							c1.147,0,2.247,0.348,3.183,1.006l-0.367,0.521c-0.827-0.583-1.8-0.891-2.815-0.891c-2.699,0-4.896,2.197-4.896,4.896
							c0,2.699,2.197,4.895,4.896,4.895s4.895-2.196,4.895-4.895h0.637C371.24,162.839,368.759,165.321,365.708,165.321z"/>
					</g>
				</g>
				<path style="fill:#FFFFFF;" d="M444.954,157.122c0,0.642-0.525,1.167-1.166,1.167h-66.487c-0.642,0-1.167-0.525-1.167-1.167
					v-0.641c0-0.642,0.525-1.167,1.167-1.167h66.487c0.641,0,1.166,0.525,1.166,1.167V157.122z"/>
				<path style="fill:#FFFFFF;" d="M422.401,162.515c0,0.642-0.525,1.167-1.166,1.167h-43.933c-0.642,0-1.167-0.525-1.167-1.167
					v-0.641c0-0.642,0.525-1.166,1.167-1.166h43.933c0.642,0,1.166,0.525,1.166,1.166V162.515z"/>
				<rect x="355.123" y="127.426" style="fill:#9CB0FB;" width="94.883" height="18.593"/>
				<g>
					<path style="fill:#FFFFFF;" d="M371.433,134.048l-1.205-1.205c-0.144-0.144-0.38-0.144-0.523,0l-4.412,4.412l-1.558-1.558
						c-0.144-0.144-0.379-0.144-0.523,0.001l-1.204,1.205c-0.144,0.144-0.144,0.379,0,0.523l3.285,3.285l6.14-6.139
						C371.577,134.427,371.577,134.192,371.433,134.048z"/>
					<g>
						<path style="fill:#FFFFFF;" d="M365.708,142.256c-3.051,0-5.534-2.482-5.534-5.533c0-3.051,2.482-5.533,5.534-5.533
							c1.147,0,2.247,0.348,3.183,1.006l-0.367,0.521c-0.827-0.583-1.8-0.891-2.815-0.891c-2.699,0-4.896,2.197-4.896,4.896
							c0,2.699,2.197,4.896,4.896,4.896s4.895-2.196,4.895-4.896h0.637C371.24,139.774,368.759,142.256,365.708,142.256z"/>
					</g>
				</g>
				<path style="fill:#FFFFFF;" d="M444.954,134.057c0,0.641-0.525,1.166-1.166,1.166h-66.487c-0.642,0-1.167-0.525-1.167-1.166
					v-0.642c0-0.642,0.525-1.167,1.167-1.167h66.487c0.641,0,1.166,0.525,1.166,1.167V134.057z"/>
				<path style="fill:#FFFFFF;" d="M422.401,139.45c0,0.641-0.525,1.166-1.166,1.166h-43.933c-0.642,0-1.167-0.525-1.167-1.166
					v-0.642c0-0.642,0.525-1.166,1.167-1.166h43.933c0.642,0,1.166,0.525,1.166,1.166V139.45z"/>
			</g>
			<g>
				<g>
					<g>
						<rect x="497.089" y="331.797" style="fill:#9CB0FB;" width="27.782" height="2"/>
					</g>
					<g>
						<rect x="528.336" y="331.797" style="fill:#9CB0FB;" width="5.541" height="2"/>
					</g>
				</g>
				<g>
					<g>
						<rect x="488.604" y="320.251" style="fill:#FFFFFF;" width="27.782" height="2"/>
					</g>
					<g>
						<rect x="479.598" y="320.251" style="fill:#FFFFFF;" width="5.542" height="2"/>
					</g>
				</g>
				<g>
					<g>
						<g>
							<path style="fill:#9CB0FB;" d="M512.053,363.398l-1.306-1.516l3.728-3.214l-3.736-3.291l1.322-1.5l4.597,4.049
								c0.217,0.19,0.34,0.466,0.339,0.755s-0.128,0.563-0.347,0.753L512.053,363.398z"/>
						</g>
						<g>
							<rect x="494.523" y="357.537" style="fill:#9CB0FB;" width="21.475" height="2"/>
						</g>
					</g>
					<g>
						<rect x="484.132" y="357.537" style="fill:#9CB0FB;" width="6.928" height="2"/>
					</g>
				</g>
				<g>
					<g>
						<path style="fill:#9CB0FB;" d="M535.605,374.536l-1.306-1.516l3.729-3.215l-3.737-3.29l1.321-1.502l4.598,4.049
							c0.217,0.191,0.341,0.467,0.339,0.756s-0.128,0.563-0.347,0.753L535.605,374.536z"/>
					</g>
					<g>
						<rect x="517.384" y="368.621" style="fill:#9CB0FB;" width="22.166" height="2"/>
					</g>
				</g>
				<g>
					<rect x="491.06" y="368.621" style="fill:#FFFFFF;" width="22.859" height="2"/>
				</g>
				<g>
					<g>
						<rect x="484.103" y="381.183" style="fill:#9CB0FB;" width="27.782" height="2"/>
					</g>
					<g>
						<rect x="515.349" y="381.183" style="fill:#9CB0FB;" width="5.542" height="2"/>
					</g>
				</g>
			</g>
			<g>
				<g>
					<g>
						<rect x="479.615" y="148.679" style="fill:#FFFFFF;" width="27.782" height="2"/>
					</g>
					<g>
						<rect x="510.861" y="148.679" style="fill:#FFFFFF;" width="5.541" height="2"/>
					</g>
				</g>
				<g>
					<g>
						<rect x="471.129" y="137.133" style="fill:#FFFFFF;" width="27.782" height="2"/>
					</g>
					<g>
						<rect x="462.123" y="137.133" style="fill:#FFFFFF;" width="5.542" height="2"/>
					</g>
				</g>
			</g>
			<g>
				<g>
					<g>
						<g>
							<path style="fill:#DFE7FF;" d="M82.64,297.123l-1.306-1.516l3.728-3.214l-3.736-3.291l1.322-1.5l4.597,4.049
								c0.217,0.19,0.34,0.466,0.339,0.755s-0.128,0.563-0.347,0.753L82.64,297.123z"/>
						</g>
						<g>
							<rect x="65.109" y="291.262" style="fill:#DFE7FF;" width="21.475" height="2"/>
						</g>
					</g>
					<g>
						<rect x="54.719" y="291.262" style="fill:#DFE7FF;" width="6.928" height="2"/>
					</g>
				</g>
				<g>
					<g>
						<path style="fill:#AFBFF6;" d="M106.192,308.26l-1.306-1.516l3.729-3.215l-3.737-3.29l1.321-1.502l4.598,4.049
							c0.217,0.191,0.341,0.467,0.339,0.756s-0.128,0.563-0.347,0.753L106.192,308.26z"/>
					</g>
					<g>
						<rect x="87.971" y="302.346" style="fill:#AFBFF6;" width="22.166" height="2"/>
					</g>
				</g>
				<g>
					<rect x="61.646" y="302.346" style="fill:#AFBFF6;" width="22.859" height="2"/>
				</g>
				<g>
					<g>
						<rect x="54.689" y="314.908" style="fill:#DFE7FF;" width="27.782" height="2"/>
					</g>
					<g>
						<rect x="85.936" y="314.908" style="fill:#DFE7FF;" width="5.542" height="2"/>
					</g>
				</g>
			</g>
			<g>
				<g>
					<polyline style="fill:#FFFFFF;" points="487.637,243.911 487.637,254.805 510.074,243.911 					"/>
				</g>
				<g>
					<rect x="472.505" y="203.162" style="fill:#FFFFFF;" width="173.652" height="40.749"/>
				</g>
				<g>
					<polyline style="fill:#FFFFFF;" points="483.106,229.001 483.106,238.737 503.154,229.001 					"/>
				</g>
				<g>
					<rect x="583.119" y="220.862" style="fill:#4D73AA;" width="49.685" height="5.348"/>
				</g>
				<g>
					<rect x="486.68" y="220.862" style="fill:#DBE2FB;" width="82.818" height="5.348"/>
				</g>
				<g>
					<rect x="486.68" y="229.482" style="fill:#FFAE0C;" width="146.124" height="5.342"/>
				</g>
				<g>
					<rect x="560.402" y="212.247" style="fill:#4D73AA;" width="59.894" height="5.342"/>
				</g>
				<g>
					<rect x="486.68" y="212.247" style="fill:#FFAE0C;" width="62.904" height="5.342"/>
				</g>
			</g>
		</g>
	</g>
	<g>
		<g>
			<g>
				<g>
					<path style="fill:#D8E9FD;" d="M125.769,408.681c-0.226,0.03-0.456,0.023-0.681-0.023c-1.052-0.219-1.604-1.246-1.232-2.293
						l85.156-239.889c0.372-1.047,1.525-1.718,2.578-1.498c1.052,0.219,1.604,1.246,1.232,2.293L127.665,407.16
						C127.373,407.982,126.598,408.573,125.769,408.681z"/>
				</g>
				<g>
					<path style="fill:#D8E9FD;" d="M169.561,415.604c-0.226,0.03-0.456,0.023-0.681-0.024c-1.052-0.219-1.604-1.246-1.232-2.293
						l85.156-239.889c0.372-1.047,1.526-1.717,2.578-1.498c1.052,0.219,1.604,1.246,1.232,2.293l-85.156,239.889
						C171.165,414.905,170.39,415.495,169.561,415.604z"/>
				</g>
				<g>
					<g>
						<path style="fill:#D8E9FD;" d="M172.906,403.945c-0.22,0.029-0.444,0.023-0.664-0.022l-41.728-8.594
							c-1.034-0.213-1.578-1.219-1.216-2.247c0.362-1.028,1.494-1.689,2.528-1.476l41.728,8.594
							c1.034,0.213,1.578,1.219,1.216,2.247C174.484,403.256,173.721,403.838,172.906,403.945z"/>
					</g>
					<g>
						<path style="fill:#D8E9FD;" d="M179.748,384.687c-0.22,0.029-0.444,0.023-0.664-0.022l-41.728-8.594
							c-1.034-0.213-1.578-1.219-1.216-2.247c0.362-1.028,1.494-1.689,2.528-1.476l41.728,8.594
							c1.034,0.213,1.578,1.219,1.216,2.247C181.327,383.998,180.564,384.58,179.748,384.687z"/>
					</g>
					<g>
						<path style="fill:#D8E9FD;" d="M186.591,365.428c-0.22,0.029-0.444,0.023-0.664-0.022l-41.729-8.594
							c-1.034-0.213-1.578-1.219-1.216-2.247c0.362-1.028,1.494-1.689,2.528-1.476l41.729,8.594
							c1.034,0.213,1.578,1.219,1.216,2.247C188.17,364.739,187.407,365.321,186.591,365.428z"/>
					</g>
					<g>
						<path style="fill:#D8E9FD;" d="M193.434,346.17c-0.22,0.029-0.444,0.023-0.664-0.022l-41.728-8.594
							c-1.034-0.213-1.578-1.219-1.216-2.247c0.362-1.028,1.494-1.689,2.528-1.476l41.728,8.594
							c1.034,0.213,1.578,1.219,1.216,2.247C195.013,345.481,194.25,346.063,193.434,346.17z"/>
					</g>
					<g>
						<path style="fill:#D8E9FD;" d="M200.277,326.912c-0.22,0.029-0.444,0.023-0.664-0.022l-41.728-8.594
							c-1.034-0.213-1.578-1.219-1.216-2.247c0.362-1.028,1.494-1.689,2.528-1.476l41.728,8.594
							c1.034,0.213,1.578,1.219,1.216,2.247C201.855,326.223,201.093,326.805,200.277,326.912z"/>
					</g>
					<g>
						<path style="fill:#D8E9FD;" d="M207.12,307.654c-0.22,0.029-0.444,0.023-0.664-0.022l-41.729-8.594
							c-1.034-0.213-1.578-1.219-1.216-2.247c0.362-1.028,1.494-1.689,2.528-1.476l41.729,8.594
							c1.034,0.213,1.578,1.219,1.216,2.247C208.698,306.965,207.936,307.547,207.12,307.654z"/>
					</g>
					<g>
						<path style="fill:#D8E9FD;" d="M213.963,288.395c-0.22,0.029-0.444,0.023-0.664-0.022l-41.729-8.594
							c-1.034-0.213-1.578-1.219-1.216-2.247c0.362-1.028,1.494-1.689,2.528-1.476l41.729,8.594
							c1.034,0.213,1.578,1.219,1.216,2.247C215.541,287.706,214.779,288.288,213.963,288.395z"/>
					</g>
					<g>
						<path style="fill:#D8E9FD;" d="M220.806,269.137c-0.22,0.029-0.444,0.023-0.664-0.022l-41.728-8.594
							c-1.034-0.213-1.578-1.219-1.216-2.247c0.363-1.028,1.494-1.689,2.528-1.476l41.728,8.594
							c1.034,0.213,1.578,1.219,1.216,2.247C222.384,268.448,221.622,269.03,220.806,269.137z"/>
					</g>
					<g>
						<path style="fill:#D8E9FD;" d="M227.649,249.879c-0.22,0.029-0.444,0.023-0.664-0.022l-41.728-8.594
							c-1.034-0.213-1.578-1.219-1.216-2.247c0.362-1.028,1.494-1.689,2.528-1.476l41.728,8.594
							c1.034,0.213,1.578,1.219,1.216,2.247C229.227,249.19,228.465,249.772,227.649,249.879z"/>
					</g>
					<g>
						<path style="fill:#D8E9FD;" d="M234.492,230.62c-0.22,0.029-0.444,0.023-0.664-0.022l-41.729-8.594
							c-1.034-0.213-1.578-1.219-1.216-2.247c0.362-1.028,1.494-1.689,2.528-1.476l41.729,8.594
							c1.034,0.213,1.578,1.219,1.216,2.247C236.07,229.932,235.308,230.514,234.492,230.62z"/>
					</g>
					<g>
						<path style="fill:#D8E9FD;" d="M241.335,211.362c-0.22,0.029-0.444,0.023-0.664-0.022l-41.729-8.594
							c-1.034-0.213-1.578-1.219-1.216-2.247c0.362-1.028,1.494-1.689,2.528-1.476l41.729,8.594
							c1.034,0.213,1.578,1.219,1.216,2.247C242.913,210.673,242.151,211.255,241.335,211.362z"/>
					</g>
					<g>
						<path style="fill:#D8E9FD;" d="M248.178,192.104c-0.22,0.029-0.444,0.023-0.664-0.022l-41.728-8.594
							c-1.034-0.213-1.578-1.219-1.216-2.247c0.362-1.028,1.494-1.689,2.528-1.476l41.728,8.594
							c1.034,0.213,1.578,1.219,1.216,2.247C249.756,191.415,248.993,191.997,248.178,192.104z"/>
					</g>
				</g>
			</g>
			<g>
				<path style="fill:#3A314E;" d="M131.452,232.463c-1.813,0.065-2.483-2.346-3.823-5.062c-1.34-2.716-4.392-8.509-1.644-10.203
					c-0.641-7.487,3.502-10.285,10.238-10.404c6.736-0.118,12.647,0.63,13.08,4.926c0.433,4.295-1.064,8.217-1.064,8.217
					l-3.231,0.294"/>
				<path style="fill:#A54C41;" d="M208.278,199.64c-0.301-0.322-0.718-0.508-1.128-0.668c-1.125-0.438-2.302-0.742-3.497-0.908
					c0.408-0.082,0.818-0.153,1.231-0.205c0.536-0.068,1.196-0.206,1.338-0.727c0.082-0.298-0.06-0.624-0.288-0.834
					c-0.227-0.209-0.527-0.321-0.826-0.403c-1.698-0.463-3.45-0.077-5.136,0.534c0.65-0.572,1.345-1.094,2.085-1.545
					c0.402-0.245,0.876-0.588,0.804-1.053c-0.041-0.266-0.27-0.474-0.524-0.56c-0.255-0.086-0.533-0.068-0.798-0.026
					c-2.102,0.327-3.708,1.986-5.147,3.553c-0.171,0.186-0.966,1.295-1.444,2.007c-0.608,0.324-1.373,1.022-2.131,1.712
					l-43.919,35.706l12.369,11.364l36.289-40.999c0.096-0.053,0.196-0.122,0.294-0.186c1.489,0.43,6.029,1.648,6.32,0.597
					c0.229-0.824-1.78-2.053-3.195-2.805c0.154-0.178,0.294-0.371,0.426-0.592l0,0c1.755,0.156,3.486,0.586,5.11,1.269
					c0.498,0.21,1.138,0.421,1.523,0.041c0.22-0.217,0.261-0.571,0.168-0.866c-0.092-0.295-0.296-0.542-0.513-0.762
					c-1.291-1.305-3.092-1.844-4.938-2.152c0.085-0.145,0.157-0.277,0.253-0.435c1.067,0.338,2.237,0.207,3.303,0.545
					c0.4,0.127,0.811,0.255,1.23,0.23c0.419-0.024,0.853-0.235,1.024-0.618C208.74,200.453,208.58,199.962,208.278,199.64z"/>
				<g>
					<g>
						<g>
							<g>
								<g>
									<path style="fill:#A54C41;" d="M144.013,240.197c-3.895,4.312-11.314,1.993-11.73,0.163
										c0.974-4.608,0.08-10.123,0.08-10.123l11.174,2.736c0.007,0.317,0.013,0.636,0.019,0.956
										c0.029,1.476,0.066,2.985,0.265,4.563C143.916,239.241,143.99,239.47,144.013,240.197z"/>
								</g>
							</g>
						</g>
					</g>
				</g>
				<g>
					<g>
						<g>
							<g>
								<g>
									<path style="fill:#302922;" d="M143.821,238.491c-5.786-0.671-10.068-6.118-10.068-6.118l9.803,1.555
										C143.585,235.405,143.622,236.913,143.821,238.491z"/>
								</g>
							</g>
						</g>
					</g>
				</g>
				<g>
					<g>
						<g>
							<g>
								<g>
									<g>
										<path style="fill:#A54C41;" d="M132.309,231.113c1.456,2.729,9.29,5.171,12.174,3.386c1.75-1.084,3.18-3.009,3.629-6.936
											c0.003-0.021,0.004-0.042,0.007-0.062c0.026-0.232,0.048-0.46,0.067-0.686c0.036-0.407,0.06-0.803,0.072-1.181
											c0.003-0.089,0.006-0.177,0.007-0.264c0.004-0.234,0.004-0.461-0.002-0.679c-0.006-0.268-0.02-0.522-0.041-0.759
											c-0.355-3.841-0.673-8.166-4.461-10.126c-3.787-1.96-9.31-1.938-12.018,1.876c0,0-1.953,3.274-1.17,8.792
											C131.355,229.991,131.257,229.142,132.309,231.113z"/>
									</g>
								</g>
							</g>
						</g>
					</g>
				</g>
				<path style="fill:#302922;" d="M139.653,228.827c0.064,0.002,0.128,0.029,0.173,0.081c1.053,1.215,3.051,0.946,3.071,0.943
					c0.128-0.019,0.249,0.071,0.267,0.2c0.018,0.129-0.071,0.249-0.2,0.267c-0.092,0.013-2.274,0.306-3.494-1.101
					c-0.085-0.099-0.075-0.248,0.024-0.333C139.539,228.845,139.597,228.826,139.653,228.827z"/>
				<g>
					<path style="fill:#3A314E;" d="M134.594,214.639c0,0-1.022,6.203-2.602,7.624c-1.58,1.421-3.431-1.298-3.431-1.298
						S130.877,211.366,134.594,214.639z"/>
				</g>
				<g>
					<path style="fill:#3A314E;" d="M142.051,213.851c0,0-2.718,5.368-7.158,4.793c-4.441-0.575-2.039-4.528-2.039-4.528
						S140.382,209.779,142.051,213.851z"/>
				</g>
				<path style="fill:#3A314E;" d="M140.851,213.598c0,0,2.988,6.086,7.031,4.427c4.043-1.66-2.709-7.153-5.476-6.52
					C139.639,212.137,140.851,213.598,140.851,213.598z"/>
				<g>
					<g>
						<g>
							<g>
								<g>
									<g>
										<path style="fill:#302922;" d="M142.775,227.23c-0.129,0.026-0.267,0.041-0.415,0.04c-0.143-0.001-0.259-0.117-0.258-0.26
											c0.001-0.143,0.118-0.258,0.261-0.258c0.565,0.003,0.944-0.301,1.129-0.496c-0.914-1.018-1.623-3.714-1.655-3.836
											c-0.036-0.139,0.047-0.28,0.186-0.316c0.142-0.035,0.28,0.047,0.316,0.185c0.218,0.839,0.944,3.147,1.669,3.746
											c0.101,0.083,0.124,0.229,0.053,0.34C144.039,226.407,143.61,227.06,142.775,227.23z"/>
									</g>
								</g>
							</g>
						</g>
					</g>
				</g>
				<g>
					<g>
						<g>
							<g>
								<g>
									<g>
										<g>
											<path style="fill:#933831;" d="M148.12,227.5c0.026-0.232,0.048-0.46,0.067-0.686c0.036-0.407,0.06-0.803,0.072-1.181
												c0.003-0.089,0.006-0.177,0.007-0.264c-0.064,0.003-0.129,0.008-0.194,0.014c-1.444,0.122-2.578,0.693-2.528,1.274
												C145.591,227.221,146.732,227.59,148.12,227.5z"/>
										</g>
									</g>
								</g>
							</g>
						</g>
					</g>
				</g>
				<g>
					<g>
						<g>
							<g>
								<g>
									<g>
										<g>
											<path style="fill:#933831;" d="M134.259,227.375c0.049,0.582,1.26,0.956,2.705,0.835
												c1.445-0.121,2.577-0.691,2.528-1.273c-0.049-0.582-1.26-0.956-2.705-0.835
												C135.343,226.223,134.211,226.793,134.259,227.375z"/>
										</g>
									</g>
								</g>
							</g>
						</g>
					</g>
				</g>
				<g>
					<g>
						<g>
							<g>
								<g>
									<g>
										<path style="fill:#302922;" d="M139.635,219.449c0,0-1.535-0.415-2.68,0.708c-0.639,0.627-0.096,1.314,0.778,0.794
											c0.61-0.363,0.956-0.518,1.715-0.569C140.206,220.33,140.013,219.505,139.635,219.449z"/>
									</g>
								</g>
							</g>
						</g>
					</g>
				</g>
				<g>
					<g>
						<g>
							<g>
								<g>
									<g>
										<path style="fill:#302922;" d="M144.984,218.809c0,0,1.538-0.405,2.675,0.724c0.635,0.631,0.088,1.314-0.782,0.789
											c-0.608-0.367-0.953-0.523-1.711-0.579C144.407,219.687,144.605,218.862,144.984,218.809z"/>
									</g>
								</g>
							</g>
						</g>
					</g>
				</g>
				<g>
					<g>
						<g>
							<g>
								<g>
									<g>
										<path style="fill:#A54C41;" d="M131.888,223.626c0,0-1.514-2.094-3.673-0.87c-2.159,1.224-0.334,8.963,4.02,7.628
											L131.888,223.626z"/>
									</g>
								</g>
							</g>
						</g>
					</g>
				</g>
				<g>
					<g>
						<g>
							<g>
								<g>
									<g>
										<g>
											<g>
												<path style="fill:#302922;" d="M131.328,227.388c0.041,0.111-0.015,0.233-0.126,0.274
													c-0.015,0.006-0.03,0.009-0.045,0.012c-0.097,0.014-0.194-0.043-0.229-0.138c-0.005-0.013-0.279-0.734-0.882-1.353
													c-0.396,0.435-0.706,0.832-0.711,0.837c-0.035,0.047-0.086,0.073-0.139,0.08c-0.055,0.007-0.112-0.006-0.161-0.042
													c-0.092-0.073-0.108-0.207-0.036-0.3c0.014-0.018,0.324-0.415,0.73-0.861c-0.372-0.295-0.837-0.527-1.403-0.577
													c-0.117-0.011-0.203-0.114-0.192-0.231c0.01-0.118,0.114-0.205,0.231-0.194
													C130.452,225.08,131.293,227.294,131.328,227.388z"/>
											</g>
										</g>
									</g>
								</g>
							</g>
						</g>
					</g>
				</g>
				<g>
					<g>
						<g>
							<g>
								<g>
									<g>
										<g>
											<path style="fill:#302922;" d="M139.088,224.089c0.038,0.521,0.311,0.926,0.609,0.904
												c0.298-0.022,0.508-0.462,0.47-0.983c-0.038-0.521-0.311-0.926-0.608-0.904
												C139.26,223.128,139.05,223.568,139.088,224.089z"/>
										</g>
									</g>
								</g>
							</g>
						</g>
					</g>
				</g>
				<g>
					<g>
						<g>
							<g>
								<g>
									<g>
										<g>
											<path style="fill:#302922;" d="M144.933,223.789c0.038,0.521,0.311,0.926,0.609,0.904
												c0.298-0.022,0.508-0.462,0.47-0.983c-0.038-0.521-0.311-0.926-0.609-0.904
												C145.105,222.828,144.894,223.268,144.933,223.789z"/>
										</g>
									</g>
								</g>
							</g>
						</g>
					</g>
				</g>
				<polygon style="fill:#FFAE0C;" points="59.008,390.653 42.712,399.269 68.936,438.231 72.682,437.294 70.622,401.704 				"/>
				<polygon style="fill:#FFAE0C;" points="139.31,420.103 136.562,438.331 183.482,440.379 184.954,436.809 155.099,417.325 				
					"/>
				<polygon style="fill:#2E283F;" points="137.878,290.132 166.753,350.597 175.464,423.3 132.981,423.3 130.288,358.115 
					99.316,308.068 100.444,288.663 				"/>
				<path style="fill:#3A314E;" d="M94.606,345.852l-0.151-42.521l7.083-17.445l40.597,1.898l-5.111,66.851l-57.967,66.517
					l-28.867-32.874C50.189,388.279,93.787,346.695,94.606,345.852z"/>
				<path style="fill:#829EEE;" d="M133.505,250.364l20.447-18.783c0,0,8.89,6.367,9.647,15.543c0,0-12.432,16.275-22.612,17.32
					L133.505,250.364z"/>
				<path style="fill:#829EEE;" d="M143.211,289.56c-1.302,6.254,1.395,13.51,1.395,13.51s-22.385,11.361-50.283-1.602
					c0,0,26.854-74.579,49.561-61.617c5.075,3.204,4.493,17.539,2.557,31.418C145.516,277.889,144.284,284.406,143.211,289.56z"/>
				<path style="fill:#A54C41;" d="M137.634,265.671c0,0,1.433,19.109,8.807,20.814c7.374,1.705,37.47-9.835,45.299-17.693
					l-4.371-6.396l-31.012,7.478l-3.285-8.21L137.634,265.671z"/>
				<path style="fill:#829EEE;" d="M139.093,238.363c0,0,12.062-0.198,16.177,25.722c0,0-10.834,11.059-21.211,6.886
					C134.06,270.971,127.81,241.334,139.093,238.363z"/>
				<path style="fill:#A54C41;" d="M190.027,268.852c1.754,1.092,4.178,0.979,5.822-0.272c1.644-1.251,2.4-3.558,1.814-5.539
					c1.067,0.338,2.237,0.207,3.303,0.545c0.4,0.127,0.811,0.255,1.23,0.23c0.419-0.024,0.854-0.235,1.024-0.618
					c0.179-0.403,0.019-0.894-0.283-1.215c-0.301-0.322-0.718-0.508-1.128-0.668c-1.489-0.579-3.067-0.927-4.661-1.026
					c-2.359-0.147-5.012-0.039-7.252,0.718c-1.093,0.369-1.307,0.659-2.528,1.39c-0.534,1.039-0.512,2.88,0.119,3.863
					C188.118,267.242,189.036,268.234,190.027,268.852z"/>
				<path style="fill:#A54C41;" d="M200.881,259.473c-0.143,0.522-0.802,0.659-1.338,0.727c-1.748,0.222-3.461,0.716-5.059,1.46
					c-0.604,0.281-1.219,0.604-1.885,0.61c-0.666,0.006-2.764,0.665-2.808,0c-0.026-0.397-0.491-0.605-0.19-0.866
					c0.301-0.261,2.731-1.698,3.097-1.856c2.246-0.969,4.71-1.956,7.07-1.313c0.298,0.081,0.598,0.193,0.826,0.403
					C200.82,258.849,200.962,259.175,200.881,259.473z"/>
				<path style="fill:#A54C41;" d="M203.08,266.794c-0.385,0.38-1.024,0.169-1.523-0.04c-1.624-0.683-3.355-1.113-5.11-1.269
					c-0.663-0.059-1.358-0.087-1.937-0.415c-0.58-0.328-2.725-0.809-2.431-1.406c0.176-0.357-0.122-0.769,0.269-0.845
					c0.391-0.075,3.214-0.103,3.61-0.056c2.429,0.286,5.057,0.665,6.777,2.404c0.217,0.22,0.421,0.467,0.513,0.762
					C203.341,266.224,203.3,266.577,203.08,266.794z"/>
				<path style="fill:#A54C41;" d="M197.267,255.812c0.113,0.457-0.33,0.841-0.708,1.12c-1.234,0.909-2.325,2.011-3.223,3.253
					c-0.34,0.469-0.67,0.976-1.173,1.263c-0.503,0.287-1.817,1.676-2.133,1.19c-0.189-0.291-0.629-0.251-0.511-0.577
					c0.118-0.326,1.354-2.447,1.565-2.722c1.295-1.688,2.748-3.482,4.813-3.994c0.261-0.065,0.536-0.107,0.798-0.044
					C196.957,255.363,197.203,255.551,197.267,255.812z"/>
				<path style="fill:#A54C41;" d="M187.368,262.396c0,0,0.826-5.285,2.132-5.285s1.18,5.457,1.18,5.457L187.368,262.396z"/>
			</g>
		</g>
		<g>
			<g>
				<g>
					<path style="fill:#3A314E;" d="M455.502,429.637l-8.02,3.958c-0.85,0.419-1.365,1.38-1.101,2.29
						c0.208,0.719,0.889,1.382,2.673,1.414c3.965,0.071,21.513-2.663,21.513-2.663v1.841l8.142-0.92c0,0,0.569-9.311-1.91-10.674
						L455.502,429.637z"/>
					<path style="fill:#D17363;" d="M468.429,421.444l-12.927,8.193c0,0,1.382,3.555,7.505,1.185
						c6.122-2.37,13.792-5.94,13.792-5.94l-1.118-5.57L468.429,421.444z"/>
					<path style="fill:#D17363;" d="M476.343,422.612c0.801-19.359,1.603-38.718,2.404-58.077l-20.302,4.358l1.834,59.445
						C465.635,426.429,470.989,424.52,476.343,422.612z"/>
					<path style="fill:#3A314E;" d="M477.942,430.074l-8.02,3.958c-0.85,0.419-1.365,1.38-1.101,2.29
						c0.208,0.719,0.889,1.382,2.673,1.414c3.965,0.071,21.513-2.663,21.513-2.663v1.841l8.142-0.92c0,0,0.569-9.311-1.91-10.674
						L477.942,430.074z"/>
					<path style="fill:#D17363;" d="M490.869,421.881l-12.927,8.193c0,0,1.383,3.555,7.505,1.185
						c6.122-2.37,13.792-5.94,13.792-5.94l-1.118-5.57L490.869,421.881z"/>
					<path style="fill:#D17363;" d="M498.783,423.05c0.801-19.359,1.603-38.718,2.404-58.077l-20.302,4.358l1.834,59.444
						C488.075,426.867,493.429,424.958,498.783,423.05z"/>
				</g>
				<g>
					<path style="fill:#FFAE0C;" d="M493.421,221.754c-1.04-3.946-1.418-3.241-4.917-11.09c-2.09-4.689-3.708-6.574-4.672-7.333l0,0
						c0,0-3.535-3.805-9.858-3.805c-6.037,0-9.533,3.615-9.533,3.615l0,0c-0.917,0.611-2.64,2.383-4.931,7.522
						c-3.499,7.849-3.877,7.143-4.917,11.09c-1.04,3.946,0.284,11.228,8.416,12.646c0,0-1.04-1.04-1.419-2.742
						c0,0,3.404,4.634,8.038,4.35h8.756c4.634,0.284,8.038-4.35,8.038-4.35c-0.378,1.702-1.419,2.742-1.419,2.742
						C493.137,232.981,494.461,225.7,493.421,221.754z"/>
					<path style="fill:#D17363;" d="M493.499,237.877c-0.269-4.559-9.556-8.091-16.893-8.071
						c-7.261,0.019-16.484,3.527-16.753,8.071c-0.273,4.615,8.717,9.837,16.823,9.836
						C484.781,247.713,493.771,242.491,493.499,237.877z"/>
					<rect x="468.69" y="242.858" style="fill:#FFFFFF;" width="26.379" height="51.681"/>
					<path style="fill:#7175B2;" d="M508.768,277.113c-16.467,2.225-32.933,4.45-49.4,6.676
						c-3.746,4.696-17.245,73.051-15.262,90.338c0.319,2.787,0.109,6.974,2.078,9.245c1.457,1.68,5.489,2.079,7.61,2.554
						c3.742,0.836,7.689,0.964,11.503,1.209c9.679,0.622,19.387,0.45,29.08,0.278c3.08-0.053,6.186-0.343,9.26-0.34
						c2.485,0.001,5.271,0.65,7.176-1.441c1.03-1.13,1.321-2.719,1.571-4.22c0.942-5.65,1.997-11.316,3.024-16.992
						C517.123,354.941,516.81,291.007,508.768,277.113z"/>
					<path style="fill:#C46E65;" d="M429.982,247.689c-0.031,0.012-0.062,0.02-0.093,0.025L429.982,247.689z"/>
					<g>
						<path style="fill:#D17363;" d="M450.388,247.053L450.388,247.053l-4.435,6.356l-4.435,6.356l-5.875,8.419l-24.071,9.009
							c-0.358-0.126-0.718-0.251-1.076-0.378c-1.498-0.526-3.161-1.077-4.746-0.591c-0.638,0.196-1.27,0.449-1.888,0.692
							c-0.595,0.234-1.237,0.185-1.861,0.265c-0.273,0.035-0.577,0.121-0.707,0.365c-0.096,0.18-0.069,0.407,0.028,0.587
							c0.096,0.18,0.252,0.32,0.415,0.442c0.497,0.374,1.049,0.615,1.629,0.781c-0.12,0.074-0.236,0.148-0.349,0.22
							c-0.406,0.264-0.75,0.511-0.914,0.678l-0.002,0.003c-0.443,0.267-0.641,0.828-0.437,1.32c0.208,0.51,0.773,0.77,1.29,0.617
							c-0.143,0.062-0.265,0.153-0.363,0.261c-0.269,0.296-0.361,0.733-0.199,1.126c0.213,0.519,0.795,0.78,1.319,0.608
							c0.024-0.007,0.051-0.016,0.076-0.026l0.045-0.019c-0.035,0.026-0.069,0.053-0.099,0.084
							c-0.021,0.018-0.038,0.036-0.054,0.055c-0.269,0.297-0.362,0.733-0.2,1.127c0.225,0.541,0.852,0.804,1.395,0.58l0.001,0
							c0.209-0.065,0.412-0.145,0.619-0.215c-0.01,0.008-0.022,0.014-0.032,0.023c-0.034,0.029-0.066,0.059-0.095,0.093
							c-0.037,0.039-0.069,0.083-0.101,0.129c-0.189,0.286-0.238,0.657-0.098,0.996c0.216,0.524,0.805,0.785,1.334,0.604
							c0.001,0,0.001,0,0.001,0c0,0-0.001,0-0.001,0.001c0.003-0.001,0.006-0.002,0.009-0.003c0.002-0.001,0.004-0.001,0.005-0.002
							c0.001,0,0.002-0.001,0.003-0.001c0.525-0.157,1.039-0.338,1.55-0.528c0.26-0.092,0.516-0.195,0.773-0.293l0.383-0.154
							l0.138-0.056c0,0,0,0,0,0c0.512-0.097,1.047-0.232,1.528-0.428c0.546-0.223,1.016-0.359,1.483-0.741
							c0.398-0.324,0.712-0.716,1.063-1.083l22.893,0.004c3.759,0.001,7.342-1.376,10.108-3.802
							c0.444-0.388,0.867-0.803,1.266-1.243c0.399-0.44,0.774-0.907,1.123-1.397l6.387-8.974l5.525-16.21L450.388,247.053
							L450.388,247.053z"/>
						<path style="fill:#D17363;" d="M521.222,269.912c-0.239-2.674-0.825-5.297-1.695-7.831c-1.394-4.066-3.515-7.904-6.085-11.36
							c-2.401-3.229-5.185-6.144-8.184-8.821c-2.654,0.737-5.322,1.429-7.99,2.129c-0.735,0.193-1.467,0.398-2.198,0.606
							c1.779,3.724,4.116,8.447,4.452,9.188c2.115,4.666,4.1,9.384,5.962,14.156c0.083,0.208,0.164,0.416,0.245,0.625
							c0.35,0.888,0.696,1.71,1.041,2.599l0.021,0.061c-0.634,4.553-1.296,9.109-2.074,13.643c-0.426,1.718-0.721,3.484-1.069,5.13
							c-0.55,2.612-1.073,5.231-1.57,7.855c-0.436,2.307-0.847,4.619-1.24,6.935c-0.801,1.053-1.533,2.157-2.127,3.338
							c-0.438,0.872-0.839,1.762-1.311,2.616c-0.331,0.599-1.162,1.457-0.882,2.208c0.385,1.034,1.835,0.346,2.381-0.111
							c0.757-0.634,1.382-1.476,2.089-2.187c0.015-0.016,0.031-0.031,0.047-0.047c0.172,0.658,0.228,1.344,0.213,2.023
							c-0.035,1.486-0.283,3.038-0.825,4.422c-0.249,0.635-0.564,1.24-0.836,1.865c-0.178,0.409-0.343,0.903-0.138,1.32
							c0.005,0.009,0.01,0.019,0.016,0.029c0.038,0.071,0.088,0.141,0.151,0.206c0.43,0.448,1.129,0.198,1.515-0.147
							c0.28-0.25,0.515-0.534,0.72-0.841l-0.001,0.004c-0.064,0.354-0.065,0.713,0.169,0.991c0.444,0.53,1.22-0.122,1.471-0.521
							c0.202-0.321,0.391-0.65,0.568-0.983c0-0.001,0.001-0.002,0.002-0.003c0,0.001,0.001,0.002,0,0.003
							c0.014,0.174,0.066,0.339,0.186,0.479c0.402,0.474,1.095-0.117,1.318-0.478c0.458-0.742,0.843-1.519,1.163-2.323
							c0,0,0.001,0,0.001,0.001c0.024,0.026,0.049,0.052,0.077,0.077c0.47,0.406,1.065-0.283,1.23-0.674
							c0.045-0.199,0.164-0.402,0.236-0.595c0.074-0.2,0.144-0.401,0.209-0.604c0.436-1.35,0.676-2.759,0.762-4.174
							c0.043-0.711,0.048-1.425,0.018-2.137c-0.014-0.357-0.037-0.713-0.067-1.068c-0.029-0.333-0.094-0.665-0.082-0.996
							c0.003-0.076-0.001-0.167,0.028-0.239c0.005-0.012,0.01-0.023,0.015-0.035c0.063-0.123,0.186-0.237,0.266-0.344
							c0.102-0.137,0.201-0.276,0.297-0.417c0.191-0.281,0.371-0.568,0.543-0.86c0.316-0.534,0.606-1.083,0.899-1.631
							C516.586,292.809,522.283,281.827,521.222,269.912z"/>
					</g>
					<path style="fill:#3A314E;" d="M476.067,297.403c0.119-0.955,0.224-1.911,0.323-2.868c0.046-0.446,0.104-0.894,0.137-1.341
						c0.016-0.213,0.008-0.426,0.011-0.639c0.001-0.047,0.03-0.332,0.027-0.425c0.155-1.449,0.304-2.898,0.442-4.349
						c0.222-2.299,0.416-4.601,0.573-6.906c0.232-3.409,0.408-6.835,0.379-10.253c-0.03-3.461-0.24-6.917-0.423-10.374
						c-0.159-3.338-0.24-6.672-0.218-10.015c0.02-2.684,0.037-5.413-0.252-8.096c0.82-0.236,1.605-0.575,2.32-1.016
						c0.833-0.515,1.559-1.096,2.188-1.768c0.656-0.698,1.207-1.492,1.667-2.402c0.642-1.275,0.955-2.766,0.989-4.189
						c0.036-1.588-0.189-3.185-0.629-4.719c0-0.001,0-0.001,0-0.002c0.049,0.008,0.063,0.009,0.112,0.019l0.087,0.012
						c0.056,0.006,0.24,0.034,0.277,0.036c0.002,0,0.304,0.042,0.305,0.042c3.229,0.155,17.142,1.185,27.443,12.502
						c5.447,5.985,7.668,12.412,8.627,16.151l-2.784,0.802h-0.001l-7.7,2.216l-6.962,2.003h-0.001
						c0.145,0.347,0.289,0.694,0.432,1.042c0.43,1.042,0.854,2.087,1.271,3.135h0.001c0.263,0.658,0.523,1.316,0.781,1.977
						c0.082,0.208,0.164,0.416,0.244,0.626c0.35,0.888,0.697,1.709,1.042,2.599l0.021,0.061c-0.634,4.552-1.297,9.109-2.074,13.643
						c-0.424,1.706-0.721,3.484-1.069,5.13c-0.323,1.533-0.635,3.068-0.939,4.604c0,0-12.289,2.998-25.742,3.144
						c-0.334,0.004-0.652,0.005-0.954,0.005C476.034,297.661,476.051,297.532,476.067,297.403z"/>
					<path style="fill:#3A314E;" d="M455.006,261.629l-13.018-5.905c1.36-4.419,5.278-14.831,15.557-21.237
						c2.438-1.519,4.843-2.57,7.046-3.305c-0.001,0.165,0.002,0.404,0.013,0.691c0.138,3.454,1.125,6.947,4.109,9.031
						c1.169,0.816,2.551,1.323,3.989,1.527c0.055,0.827,0.129,1.649,0.195,2.475c0.158,5.047,0.251,10.091-0.203,15.128
						c-0.205,2.279-0.469,4.555-0.632,6.838c-0.165,2.305-0.184,4.619-0.224,6.929c-0.08,4.534-0.109,9.068-0.017,13.603
						c0.002,0.154,0.006,0.308,0.009,0.462c0.05,2.258,0.13,4.518,0.244,6.775v3.149c0,0-4.534,0.361-9.982-0.626
						s-6.847-2.522-6.847-2.522c0.152-2.197,0.261-4.398,0.3-6.6c0.054-3.028-0.163-6.054-0.378-9.073
						c-0.197-2.772-0.473-5.549-0.482-8.316c-0.01-2.973,0.161-5.946,0.316-8.913C455.003,261.703,455.004,261.666,455.006,261.629z
						"/>
					<path style="fill:#FFFFFF;" d="M480.079,277.624c1.2,0,1.202,1.864,0,1.864C478.879,279.489,478.878,277.624,480.079,277.624z"
						/>
					<path style="fill:#FFFFFF;" d="M480.189,265.56c1.2,0,1.202,1.864,0,1.864C478.989,267.425,478.987,265.56,480.189,265.56z"/>
					<path style="fill:#FFFFFF;" d="M479.531,253.935c1.2,0,1.202,1.864,0,1.864C478.331,255.799,478.329,253.935,479.531,253.935z"
						/>
					<path style="fill:#FFFFFF;" d="M479.202,242.858c1.2,0,1.202,1.864,0,1.864C478.002,244.722,478,242.858,479.202,242.858z"/>
					<path style="fill:#29233D;" d="M503.004,261.824c-0.437-1.268-0.927-2.505-1.423-3.739c-0.499-1.232-1.013-2.455-1.526-3.677
						c-0.513-1.222-1.039-2.438-1.546-3.661c-0.512-1.223-1.017-2.444-1.503-3.694c0.149,1.336,0.498,2.639,0.891,3.918
						c0.399,1.279,0.876,2.529,1.395,3.76c0.518,1.231,1.087,2.439,1.7,3.626C501.609,259.54,502.257,260.709,503.004,261.824z"/>
					<path style="fill:#29233D;" d="M455.006,261.629c0.508-1.168,0.937-2.358,1.342-3.556c0.402-1.198,0.772-2.405,1.116-3.62
						c0.344-1.214,0.66-2.437,0.945-3.668c0.282-1.232,0.539-2.471,0.716-3.733c-0.509,1.168-0.939,2.358-1.343,3.555
						c-0.402,1.198-0.772,2.405-1.115,3.62c-0.343,1.215-0.659,2.437-0.943,3.668C455.442,259.129,455.184,260.368,455.006,261.629z
						"/>
					<g>
						<g>
							<g>
								<g>
									<path style="fill:#D17363;" d="M468.41,231.005c3.987,4.414,11.58,2.04,12.006,0.166
										c-0.997-4.716-0.081-10.362-0.081-10.362l-11.437,2.8c-0.007,0.325-0.013,0.651-0.02,0.978
										c-0.029,1.511-0.068,3.055-0.272,4.67C468.509,230.026,468.433,230.261,468.41,231.005z"/>
								</g>
							</g>
						</g>
					</g>
					<g>
						<g>
							<g>
								<g>
									<path style="fill:#302922;" d="M468.606,229.258c5.923-0.687,10.305-6.262,10.305-6.262l-10.034,1.592
										C468.849,226.099,468.81,227.643,468.606,229.258z"/>
								</g>
							</g>
						</g>
					</g>
					<g>
						<g>
							<g>
								<g>
									<path style="fill:#D17363;" d="M480.389,221.706c-1.49,2.793-9.509,5.293-12.461,3.465
										c-1.791-1.109-3.255-3.08-3.715-7.099c-0.003-0.021-0.004-0.043-0.007-0.064c-0.027-0.237-0.049-0.471-0.069-0.702
										c-0.036-0.416-0.061-0.822-0.074-1.209c-0.003-0.091-0.006-0.182-0.007-0.27c-0.004-0.24-0.004-0.472,0.002-0.695
										c0.006-0.275,0.02-0.534,0.042-0.777c0.363-3.931,0.689-8.358,4.566-10.365c3.877-2.007,9.529-1.984,12.301,1.92
										c0,0,1.999,3.352,1.198,8.999C481.366,220.558,481.467,219.689,480.389,221.706z"/>
								</g>
							</g>
						</g>
					</g>
					<path style="fill:#302922;" d="M472.872,219.367c-0.066,0.002-0.13,0.03-0.177,0.083c-1.078,1.243-3.123,0.968-3.143,0.965
						c-0.132-0.019-0.255,0.073-0.273,0.205c-0.019,0.132,0.073,0.254,0.205,0.273c0.094,0.014,2.328,0.313,3.577-1.127
						c0.087-0.101,0.077-0.253-0.024-0.341C472.989,219.385,472.93,219.366,472.872,219.367z"/>
					<g>
						<path style="fill:#FFAE0C;" d="M478.051,204.845c0,0,1.046,6.349,2.663,7.803c1.617,1.454,3.512-1.328,3.512-1.328
							S481.856,201.494,478.051,204.845z"/>
					</g>
					<g>
						<path style="fill:#FFAE0C;" d="M470.418,204.038c0,0,2.782,5.494,7.327,4.905c4.545-0.589,2.087-4.635,2.087-4.635
							S472.127,199.87,470.418,204.038z"/>
					</g>
					<path style="fill:#FFAE0C;" d="M471.647,203.779c0,0-3.058,6.23-7.196,4.531c-4.138-1.699,2.773-7.321,5.605-6.674
						C472.887,202.283,471.647,203.779,471.647,203.779z"/>
					<g>
						<g>
							<g>
								<g>
									<g>
										<g>
											<path style="fill:#302922;" d="M469.677,217.732c0.132,0.027,0.273,0.042,0.425,0.041
												c0.147-0.001,0.265-0.12,0.264-0.267c-0.001-0.147-0.121-0.264-0.267-0.264c-0.578,0.003-0.966-0.308-1.156-0.508
												c0.936-1.042,1.662-3.801,1.694-3.926c0.037-0.142-0.048-0.287-0.19-0.323c-0.145-0.036-0.287,0.048-0.323,0.19
												c-0.223,0.859-0.966,3.221-1.708,3.834c-0.103,0.085-0.126,0.235-0.054,0.348
												C468.384,216.89,468.823,217.558,469.677,217.732z"/>
										</g>
									</g>
								</g>
							</g>
						</g>
					</g>
					<g>
						<g>
							<g>
								<g>
									<g>
										<g>
											<g>
												<path style="fill:#BA5A4D;" d="M464.207,218.008c-0.027-0.237-0.049-0.471-0.069-0.702
													c-0.036-0.416-0.061-0.822-0.074-1.209c-0.003-0.091-0.006-0.182-0.007-0.27c0.066,0.003,0.132,0.008,0.198,0.014
													c1.478,0.124,2.638,0.709,2.588,1.304C466.795,217.722,465.627,218.101,464.207,218.008z"/>
											</g>
										</g>
									</g>
								</g>
							</g>
						</g>
					</g>
					<g>
						<g>
							<g>
								<g>
									<g>
										<g>
											<g>
												<path style="fill:#BA5A4D;" d="M478.393,217.881c-0.05,0.596-1.289,0.978-2.769,0.854
													c-1.479-0.124-2.638-0.707-2.588-1.303c0.05-0.596,1.289-0.978,2.769-0.854
													C477.285,216.702,478.443,217.285,478.393,217.881z"/>
											</g>
										</g>
									</g>
								</g>
							</g>
						</g>
					</g>
					<g>
						<g>
							<g>
								<g>
									<g>
										<g>
											<path style="fill:#302922;" d="M472.892,209.767c0,0,1.572-0.424,2.743,0.725c0.654,0.642,0.098,1.345-0.796,0.813
												c-0.624-0.371-0.978-0.53-1.755-0.582C472.307,210.67,472.505,209.825,472.892,209.767z"/>
										</g>
									</g>
								</g>
							</g>
						</g>
					</g>
					<g>
						<g>
							<g>
								<g>
									<g>
										<g>
											<path style="fill:#302922;" d="M467.417,209.112c0,0-1.574-0.415-2.738,0.741c-0.65,0.646-0.09,1.345,0.801,0.808
												c0.622-0.375,0.975-0.536,1.751-0.593C468.007,210.012,467.804,209.168,467.417,209.112z"/>
										</g>
									</g>
								</g>
							</g>
						</g>
					</g>
					<g>
						<g>
							<g>
								<g>
									<g>
										<path style="fill:#D17363;" d="M480.821,214.043c0,0,1.549-2.144,3.759-0.891c2.21,1.253,0.342,9.174-4.115,7.808
											L480.821,214.043z"/>
									</g>
								</g>
							</g>
						</g>
					</g>
					<g>
						<g>
							<g>
								<g>
									<g>
										<g>
											<g>
												<g>
													<path style="fill:#302922;" d="M481.394,217.894c-0.042,0.113,0.016,0.239,0.129,0.281
														c0.016,0.006,0.031,0.01,0.046,0.012c0.099,0.014,0.199-0.044,0.235-0.141c0.005-0.013,0.285-0.752,0.903-1.385
														c0.406,0.445,0.723,0.851,0.727,0.856c0.036,0.048,0.088,0.075,0.142,0.082c0.056,0.008,0.115-0.006,0.164-0.043
														c0.094-0.074,0.111-0.211,0.037-0.307c-0.014-0.018-0.332-0.424-0.747-0.882c0.381-0.302,0.857-0.54,1.436-0.591
														c0.12-0.011,0.208-0.117,0.197-0.237c-0.011-0.121-0.116-0.209-0.236-0.198
														C482.29,215.532,481.429,217.798,481.394,217.894z"/>
												</g>
											</g>
										</g>
									</g>
								</g>
							</g>
						</g>
					</g>
					<g>
						<g>
							<g>
								<g>
									<g>
										<g>
											<g>
												<path style="fill:#302922;" d="M473.451,214.517c-0.039,0.533-0.318,0.948-0.623,0.925
													c-0.305-0.022-0.52-0.473-0.481-1.006c0.039-0.533,0.318-0.948,0.623-0.925
													C473.275,213.533,473.49,213.984,473.451,214.517z"/>
											</g>
										</g>
									</g>
								</g>
							</g>
						</g>
					</g>
					<g>
						<g>
							<g>
								<g>
									<g>
										<g>
											<g>
												<path style="fill:#302922;" d="M467.469,214.21c-0.039,0.534-0.318,0.948-0.623,0.925
													c-0.305-0.022-0.52-0.473-0.481-1.007c0.039-0.533,0.318-0.948,0.623-0.925
													C467.293,213.226,467.508,213.677,467.469,214.21z"/>
											</g>
										</g>
									</g>
								</g>
							</g>
						</g>
					</g>
				</g>
			</g>
			<g>
				<g>
					<g>
						<path style="fill:#FFAE0C;" d="M242.924,295.14c-0.128,0.25-0.171,0.544-0.077,0.836c0.183,0.573,0.798,0.889,1.379,0.707
							l81.54-26.184c0.582-0.188,0.899-0.805,0.71-1.381c-0.182-0.576-0.798-0.891-1.372-0.705l-81.55,26.185
							C243.264,294.691,243.049,294.895,242.924,295.14z"/>
					</g>
					
						<linearGradient id="SVGID_1_" gradientUnits="userSpaceOnUse" x1="3248.2717" y1="927.8289" x2="3339.8862" y2="927.8289" gradientTransform="matrix(-0.8881 0.4596 -0.4596 -0.8881 3727.5789 -413.1709)">
						<stop  offset="0" style="stop-color:#8EA8FB"/>
						<stop  offset="1" style="stop-color:#829EEE"/>
					</linearGradient>
					<path style="fill:url(#SVGID_1_);" d="M320.753,268.798c0.331-2.243,2.425-3.796,4.67-3.465l101.557,14.802
						c2.244,0.33,3.8,2.428,3.468,4.672c-0.332,2.245-2.425,3.8-4.67,3.47l-101.556-14.807
						C321.977,273.139,320.42,271.044,320.753,268.798z"/>
					
						<linearGradient id="SVGID_00000015343323272263179410000002847448215730579606_" gradientUnits="userSpaceOnUse" x1="3321.9683" y1="988.094" x2="3339.886" y2="988.094" gradientTransform="matrix(-0.8881 0.4596 -0.4596 -0.8881 3727.5789 -413.1709)">
						<stop  offset="0" style="stop-color:#8EA8FB"/>
						<stop  offset="1" style="stop-color:#829EEE"/>
					</linearGradient>
					<path style="fill:url(#SVGID_00000015343323272263179410000002847448215730579606_);" d="M302.046,209.502
						c0.502-0.979,1.357-1.7,2.406-2.037c2.159-0.696,4.481,0.498,5.174,2.661l18.936,57.668c0.333,1.047,0.241,2.161-0.264,3.14
						c-0.5,0.977-1.348,1.697-2.391,2.034c-1.049,0.335-2.164,0.247-3.141-0.255c-0.976-0.5-1.702-1.355-2.041-2.406l-18.934-57.663
						C301.455,211.592,301.545,210.477,302.046,209.502z"/>
				</g>
				<path style="fill:#4D73AA;" d="M314.318,274.275c2.414,6.12,9.332,9.124,15.452,6.709c6.119-2.413,9.124-9.331,6.71-15.45
					c-2.413-6.119-9.333-9.124-15.452-6.709C314.909,261.238,311.905,268.155,314.318,274.275z"/>
				<path style="fill:#FFAE0C;" d="M319.515,272.226c1.281,3.251,4.956,4.845,8.204,3.564c3.249-1.283,4.845-4.957,3.563-8.207
					c-1.281-3.248-4.955-4.843-8.204-3.561C319.829,265.301,318.235,268.975,319.515,272.226z"/>
			</g>
		</g>
	</g>
</g>
</svg>
