<?xml version="1.0" encoding="utf-8"?>
<!-- Generator: Adobe Illustrator 27.5.0, SVG Export Plug-In . SVG Version: 6.00 Build 0)  -->
<svg version="1.1" xmlns="http://www.w3.org/2000/svg" xmlns:xlink="http://www.w3.org/1999/xlink" x="0px" y="0px"
	 viewBox="0 0 757.894 500" style="enable-background:new 0 0 757.894 500;" xml:space="preserve">
<g id="BACKGROUND">
	<rect y="-0.47" style="fill:#BDDDFC;" width="757.894" height="500.941"/>
	<rect y="347.307" style="fill:#8EBBE8;" width="757.894" height="153.163"/>
	<rect y="352.299" style="fill:#74AEE8;" width="757.894" height="14.076"/>
	<rect y="375.481" style="fill:#74AEE8;" width="757.894" height="14.076"/>
	<rect y="398.663" style="fill:#74AEE8;" width="757.894" height="14.076"/>
	<rect y="421.845" style="fill:#74AEE8;" width="757.894" height="14.076"/>
	<rect y="445.027" style="fill:#74AEE8;" width="757.894" height="14.076"/>
	<rect y="468.209" style="fill:#74AEE8;" width="757.894" height="14.076"/>
</g>
<g id="OBJECTS">
	<g>
		<path style="fill:#3A73AD;" d="M56.742,243.034c-3.171-13.214-13.214-12.157-13.214-12.157H0v58.878h66.413
			C64.947,282.252,59.474,254.417,56.742,243.034z"/>
		<path style="fill:#305F8F;" d="M66.785,291.662c0,0-0.136-0.7-0.372-1.907H0v16.642h100.39L66.785,291.662z"/>
		<polygon style="fill:#1B3652;" points="0,306.396 0,309.369 101.142,309.369 101.142,306.726 100.39,306.396 		"/>
		<path style="fill:#305F8F;" d="M215.613,306.122l-39.076-15.479c0,0-0.062-0.316-0.174-0.888H67.908l0.085,0.51l35.704,15.844
			l0.025,0.287h111.891V306.122z"/>
		<polygon style="fill:#1B3652;" points="103.722,306.396 103.984,309.369 215.613,309.369 215.613,306.396 		"/>
		<path style="fill:#3A73AD;" d="M165.777,243.827c-4.342-13.781-19.066-11.326-19.066-11.326h-92.31l-2.832-0.169
			c0,0,0.944,0.736,2.832,2.246c1.888,1.51,5.852,9.061,5.852,9.061l7.655,46.117h108.455
			C175.313,284.422,169.699,256.274,165.777,243.827z"/>
		<path style="fill:none;stroke:#1B3652;stroke-width:4;stroke-linecap:round;stroke-linejoin:round;stroke-miterlimit:10;" d="
			M174.053,278.384l51.018,8.794c4.643,0.8,8.035,4.827,8.035,9.539l0,0c0,5.346-4.334,9.68-9.68,9.68h-7.814v2.19
			c0,0,4.825,2.316,7.005,16.891c2.179,14.575,2.724,29.423,2.724,29.423"/>
		<g>
			<path style="fill:#4D9AE8;" d="M90.751,285.016c0,0,1.739,14.389,7.931,18.867c6.192,4.478,21.121,5.485,21.121,5.485
				l16.341,51.448c0,0,5.086,0.865,9.82,0c4.734-0.865,6.32-3.026,6.32-3.026s-10.255-48.604-10.964-51.394
				c-0.709-2.79-1.285-5.816-1.285-5.816l31.127-0.432l26.516,57.354c0,0,6.773,1.441,10.52,0.721
				c3.747-0.721,4.323-2.162,4.323-2.162s-20.031-58.513-21.904-63.193c-1.873-4.681-8.07-6.986-12.97-9.004
				c-4.9-2.017-31.682-4.221-31.682-4.221L90.751,285.016z"/>
			<path style="fill:#AD748C;" d="M104.27,201.652c0-0.185,4.864,17.918,4.864,17.918l-5.973,5.665c0,0,6.034,4.864,13.915,3.879
				c7.881-0.985,9.852-5.665,9.852-5.665l-5.049-3.879l-4.495-12.807c0,0,3.694-0.865,4.187-5.112s-1.539-12.929-3.756-15.576
				c-2.217-2.648-9.236-4.68-12.807,0.369c-3.571,5.049-2.34,8.682-2.34,8.682s-2.955,1.293-2.032,3.571
				C101.561,200.974,104.27,201.652,104.27,201.652z"/>
			<polygon style="fill:#854761;" points="113.693,191.941 116.461,197.428 114.091,196.887 			"/>
			<circle style="fill:#A65D7C;" cx="110.267" cy="196.762" r="2.162"/>
			<path style="fill:#A65D7C;" d="M120.243,194.684c0,1.194-0.968,2.161-2.162,2.161c-1.194,0-2.162-0.968-2.162-2.161
				c0-1.194,0.968-2.162,2.162-2.162C119.276,192.523,120.243,193.49,120.243,194.684z"/>
			<path style="fill:#FFFFFF;stroke:#2F2452;stroke-width:0.5;stroke-miterlimit:10;" d="M112.048,192.68
				c0,1.722-1.396,3.118-3.118,3.118c-1.722,0-3.118-1.396-3.118-3.118c0-1.722,1.396-3.118,3.118-3.118
				C110.652,189.562,112.048,190.958,112.048,192.68z"/>
			<path style="fill:#FFFFFF;stroke:#2F2452;stroke-width:0.5;stroke-miterlimit:10;" d="M120.799,190.635
				c0,1.722-1.396,3.118-3.118,3.118s-3.118-1.396-3.118-3.118c0-1.722,1.396-3.118,3.118-3.118S120.799,188.913,120.799,190.635z"
				/>
			
				<line style="fill:#FFFFFF;stroke:#2F2452;stroke-width:0.5;stroke-miterlimit:10;" x1="112.048" y1="192.211" x2="114.563" y2="191.54"/>
			<path style="fill:#522C24;" d="M110.829,192.523c0,0.31-0.252,0.562-0.562,0.562c-0.311,0-0.562-0.252-0.562-0.562
				c0-0.311,0.252-0.562,0.562-0.562C110.577,191.96,110.829,192.212,110.829,192.523z"/>
			<circle style="fill:#522C24;" cx="116.289" cy="191.197" r="0.562"/>
			<path style="fill:#522C24;" d="M101.772,195.662c0,0,0.554-0.457,2.23-0.69s3.351-1.232,3.677-3.432
				c0.326-2.2,0.288-2.991,2.588-3.782c2.3-0.791,3.039-3.119,3.039-3.119s0.896,2.698,3.155,2.878
				c2.259,0.179,3.749,1.213,3.972,2.634c0.223,1.421-0.379,2.315,0,2.934c0.379,0.619,0.455,0.959,0.455,0.959
				s2.71-0.235,2.571-4.098c-0.14-3.863-4.562-3.817-6.237-5.818c-1.676-2.001-2.141-3.445-4.282-3.561
				c-2.141-0.116-4.934,1.653-7.959,2.304c-3.025,0.652-4.468,2.234-4.887,3.724c-0.419,1.49-0.465,1.303-0.465,1.303
				s-3.724,1.065-3.072,5.187c0.652,4.122,2.78,4.634,3.903,4.681C100.458,197.765,100.521,196.166,101.772,195.662z"/>
			<polygon style="fill:#FFFFFF;" points="103.352,195.085 108.105,200.092 108.561,199.591 104.002,194.972 			"/>
			<path style="fill:#FFFFFF;" d="M108.105,200.592c0,0-0.025-2.555,4.323-4.559c4.348-2.004,8.878,0.263,8.878,0.263
				s2.584,7.78-2.275,9.996c-4.859,2.215-6.936,1.163-8.202,0.412c-1.266-0.751-2.268-1.954-2.268-1.954
				S107.649,201.594,108.105,200.592z"/>
			<polygon style="fill:#FFFFFF;" points="104.704,201.415 108.93,204.45 108.93,204.951 104.27,201.652 			"/>
			<path style="fill:#854761;" d="M106.756,203.412l1.805,1.339c0,0,2.666,2.835,5.658,2.653c2.992-0.181,3.227-0.466,3.227-0.466
				l0.875,2.494c0,0-3.649,2.717-7.246,0.39C107.479,207.494,106.756,203.412,106.756,203.412z"/>
			<path style="fill:#DE6F94;" d="M103.162,225.234c0,0-11.628,4.755-14.907,13.688c-3.279,8.933-4.297,22.121-4.297,22.121
				s5.428,2.643,11.195,2.643c5.767,0,6.445,0,6.445,0l0.678,26.069c0,0,23.181,4.123,32.34,2.879
				c9.159-1.244,13.795-4.636,13.795-4.636l-1.922-32.905l9.159-6.219c0,0-2.827-11.148-11.195-16.373
				c-8.368-5.225-17.525-9.052-17.525-9.052s-3.079,4.598-11.943,4.439C106.121,227.728,103.162,225.234,103.162,225.234z"/>
			<path style="fill:none;stroke:#944A63;stroke-width:0.5;stroke-miterlimit:10;" d="M96.989,235.405c0,0,3.283-0.547,5.016,6.931
				c1.733,7.478,1.277,20.337,1.277,20.337l-1.684,1.013l2.869-1.469l-0.73-18.969"/>
			<path style="fill:none;stroke:#944A63;stroke-width:0.5;stroke-miterlimit:10;" d="M137.389,232.578
				c0,0,5.837,5.746,7.296,12.494c1.459,6.749,1.842,10.674,1.842,10.674"/>
			<path style="fill:#AD748C;" d="M86.64,262.115c0,0-2.619,20.446,1.103,24.517c3.723,4.072,14.484,3.316,18.963,3.374
				c4.479,0.058,22.627,0.058,23.558,0.349c0.931,0.291,3.956,0.291,5.235,1.28c1.28,0.989,4.595,5.759,5.061,5.526
				c0.465-0.233,0.931-5.526,0.698-6.457c-0.233-0.931-1.222-2.385-1.861-3.083c-0.64-0.698-8.144-5.177-12.913-6.806
				c-4.77-1.629-24.14-7.911-24.14-7.911l0.508-9.861L86.64,262.115z"/>
			<polygon style="fill:#854761;" points="86.64,262.115 86.222,266.106 102.852,263.044 			"/>
			<path style="fill:#AD748C;" d="M154.664,249.541c0,0,11.926,34.067,11.686,35.146c-0.24,1.079-14.509,7.607-15.589,8.18
				c-1.079,0.573-4.796,4.302-4.796,4.302s0.12-7.445,1.319-9.964c1.199-2.518,4.677-7.563,4.677-7.563l-4.646-10.425l-0.825-14.124
				L154.664,249.541z"/>
			<polygon style="fill:#854761;" points="154.664,249.541 146.527,262.115 146.489,255.092 			"/>
			<path style="fill:none;stroke:#426180;stroke-width:0.5;stroke-linecap:round;stroke-linejoin:round;stroke-miterlimit:10;" d="
				M132.715,350.019c0,0,8.369,1.368,12.53,0c4.161-1.367,4.433-1.91,4.433-1.91s-3.166,4.252-6.242,5.066"/>
			
				<polyline style="fill:none;stroke:#426180;stroke-width:0.5;stroke-linecap:round;stroke-linejoin:round;stroke-miterlimit:10;" points="
				119.803,309.369 123.464,303.054 120.099,309.371 126.534,306.419 			"/>
			<path style="fill:none;stroke:#426180;stroke-width:0.5;stroke-linecap:round;stroke-linejoin:round;stroke-miterlimit:10;" d="
				M103.391,290.024c0,0-0.059,5.297-1.948,8.544c-1.889,3.247-2.893,3.896-2.893,3.896"/>
			
				<polyline style="fill:none;stroke:#426180;stroke-width:0.5;stroke-linecap:round;stroke-linejoin:round;stroke-miterlimit:10;" points="
				170.156,300.162 178.472,292.867 171.847,301.629 180.849,297.169 			"/>
			<path style="fill:none;stroke:#426180;stroke-width:0.5;stroke-linecap:round;stroke-linejoin:round;stroke-miterlimit:10;" d="
				M194.506,350.642c0,0,6.041,0.094,10.286,0s5.534-0.983,5.534-0.983"/>
			<path style="fill:#BF5E87;" d="M199.79,357.884l1.876,5.896l2.298,0.909c0,0,0.16-0.802,1.229-0.588
				c1.069,0.214,5.665,3.046,8.605,4.115c2.939,1.069,10.636,1.283,10.636,1.283s0.107-2.084-2.245-4.329
				c-2.352-2.245-11.516-7.685-11.516-7.685s-3.662,0.791-6.121,0.737C202.094,358.168,199.79,357.884,199.79,357.884z"/>
			<path style="fill:#BF5E87;" d="M148.43,360.17c0,0,4.343,4.075,7.966,8.717c3.623,4.641,4.189,7.245,4.189,7.245
				s-3.283,0-7.811-1.585c-4.528-1.585-8.604-5.049-8.604-5.049l-0.566,0.634l-3.509-1.981l-0.906-6.951
				c0,0,5.061,0.036,6.776-0.384C147.679,360.396,148.43,360.17,148.43,360.17z"/>
			<path style="fill:#FFFFFF;" d="M220.063,363.491c0,0-2.921-0.382-4.739,1.458c-1.818,1.84-1.526,3.266-1.526,3.266
				s3.323,1.283,6.979,1.283s3.656,0,3.656,0S224.908,366.706,220.063,363.491z"/>
			<path style="fill:#FFFFFF;" d="M155.811,368.151c0,0-2.185-0.489-4.608,1.347c-2.423,1.836-2.307,3.246-2.307,3.246
				s4.024,2.733,8.063,3.388c4.039,0.655,4.14,0,4.14,0s-2.926-6.324-4.847-8.04"/>
		</g>
		<path style="fill:none;stroke:#1B3652;stroke-width:4;stroke-linecap:round;stroke-linejoin:round;stroke-miterlimit:10;" d="
			M64.78,278.384l51.019,8.794c4.643,0.8,8.035,4.827,8.035,9.539l0,0c0,5.346-4.334,9.68-9.68,9.68h-7.814v2.19
			c0,0,4.825,2.316,7.004,16.891c2.18,14.575,2.724,29.423,2.724,29.423"/>
	</g>
	
		<ellipse transform="matrix(0.1573 -0.9875 0.9875 0.1573 264.7141 446.888)" style="fill:#FFFFFF;stroke:#2F2452;stroke-miterlimit:10;" cx="394.21" cy="68.335" rx="20.247" ry="20.247"/>
	<g>
		<rect x="658.406" y="147.954" style="opacity:0.51;fill:#7FA9D4;" width="99.208" height="136.727"/>
		<rect x="663.866" y="154.144" style="opacity:0.51;fill:#7094BA;" width="94.056" height="47.3"/>
		<rect x="663.866" y="207.59" style="opacity:0.51;fill:#7094BA;" width="94.056" height="47.3"/>
		<g>
			<rect x="669.034" y="161.035" style="fill:#BF5E87;" width="8.424" height="40.409"/>
			<rect x="676.254" y="161.035" style="fill:#964A6A;" width="2.006" height="40.409"/>
		</g>
		<g>
			<rect x="679.597" y="161.035" style="fill:#9D5EBF;" width="8.424" height="40.409"/>
			<rect x="686.818" y="161.035" style="fill:#7C4A96;" width="2.006" height="40.409"/>
		</g>
		<g>
			<rect x="690.562" y="161.035" style="fill:#9D5EBF;" width="8.424" height="40.409"/>
			<rect x="697.783" y="161.035" style="fill:#7C4A96;" width="2.006" height="40.409"/>
		</g>
		<g>
			<rect x="701.527" y="161.035" style="fill:#5E69BF;" width="8.424" height="40.409"/>
			<rect x="708.748" y="161.035" style="fill:#4A5296;" width="2.006" height="40.409"/>
		</g>
		<g>
			<rect x="712.492" y="161.035" style="fill:#9D5EBF;" width="8.424" height="40.409"/>
			<rect x="719.713" y="161.035" style="fill:#7C4A96;" width="2.006" height="40.409"/>
		</g>
		<g>
			<rect x="733.789" y="213.932" style="fill:#9D5EBF;" width="8.424" height="40.409"/>
			<rect x="741.009" y="213.932" style="fill:#7C4A96;" width="2.006" height="40.409"/>
		</g>
		<g>
			<rect x="744.187" y="213.932" style="fill:#9D5EBF;" width="8.424" height="40.409"/>
			<rect x="751.408" y="213.932" style="fill:#7C4A96;" width="2.006" height="40.409"/>
		</g>
		<g>
			<rect x="754.586" y="213.933" style="fill:#9D5EBF;" width="3.273" height="40.409"/>
		</g>
		<g>
			
				<rect x="725.6" y="160.362" transform="matrix(0.9912 -0.1327 0.1327 0.9912 -17.5088 98.4603)" style="fill:#5E61BF;" width="8.424" height="40.409"/>
			
				<rect x="732.786" y="159.829" transform="matrix(0.9912 -0.1327 0.1327 0.9912 -17.4026 98.9802)" style="fill:#4A4C96;" width="2.006" height="40.409"/>
		</g>
	</g>
	<g>
		<path style="fill:#4D9AE8;" d="M614.233,204.011c0,0-14.464,2.408-22.438,11.486c-7.974,9.078-37.661,48.786-37.661,48.786
			h114.332c0,0-1.472-28.054-2.576-36.028c-1.104-7.974-7.606-16.07-7.606-16.07s-24.109-8.127-24.445-8.173
			C633.505,203.965,614.233,204.011,614.233,204.011z"/>
		<g>
			<path style="fill:#4D9AE8;" d="M459.897,245.038h-47.218c0,0,0.072,3.763,1.39,8.1h44.553
				C459.284,250.87,459.76,248.193,459.897,245.038z"/>
			<path style="fill:#4D9AE8;" d="M414.736,255.054c1.364,3.549,3.625,7.168,7.412,9.229h28.928c0,0,4.29-2.292,6.899-9.229H414.736
				z"/>
			<path style="fill:#3A73AD;" d="M458.622,253.137h-44.553c0.191,0.63,0.42,1.272,0.667,1.916h43.239
				C458.204,254.447,458.424,253.817,458.622,253.137z"/>
			<path style="fill:#32875C;" d="M423.925,245.038c0,0-14.047-5.99-12.505-14.27c1.542-8.28,9.593-4.34,14.161,2.284
				c4.568,6.624,10.05,1.085,5.939-4.568c-4.111-5.653-13.419-9.536-12.905-19.243c0.514-9.707,5.367-12.048,9.136-7.766
				c3.769,4.283,1.827,14.732,7.537,16.217c5.71,1.485,0.799-6.681-0.114-11.477c-0.914-4.797-1.599-10.678,2.512-9.593
				s0.571,14.275,4.854,12.163c4.283-2.113,1.085-9.993,6.395-11.934c5.31-1.941,10.05-1.656,6.395,3.426
				c-3.654,5.082-9.536,8.051-10.449,13.533s1.37,10.621,4.968,5.082c3.597-5.539,7.309-9.821,12.277-8.508
				c4.968,1.313,4.34,7.823-4.283,10.564c-8.622,2.741-15.36,3.654-15.246,8.679c0.114,5.025,2.969,2.912,8.622-0.971
				c5.653-3.883,13.133-1.085,7.595,3.54c-5.539,4.625-12.562,2.684-13.019,5.939c-0.457,3.255,0.514,3.483,3.997,3.312
				c3.483-0.171,4.511,3.592,4.511,3.592H423.925z"/>
		</g>
		<g>
			<polygon style="fill:#3A73AD;" points="588,250.702 498.113,250.702 475.482,192.024 565.37,192.024 			"/>
			<polygon style="fill:#2D5A87;" points="588,250.702 584.79,250.702 562.16,192.024 565.37,192.024 			"/>
			<path style="fill:#2D5A87;" d="M534.311,222.764c0,2.438-1.977,4.415-4.415,4.415c-2.438,0-4.415-1.977-4.415-4.415
				c0-2.438,1.977-4.415,4.415-4.415C532.335,218.349,534.311,220.326,534.311,222.764z"/>
			<polygon style="fill:#2D5A87;" points="533.887,250.702 537.623,261.226 534.991,262.67 533.377,264.283 554.858,264.283 
				553.84,262.076 547.557,259.783 544.118,250.702 			"/>
			<polygon style="fill:#1D3A57;" points="542.462,250.702 546.028,260.887 552.651,262.924 553.33,264.283 554.858,264.283 
				553.84,262.076 547.557,259.783 544.118,250.702 			"/>
		</g>
		<path style="fill:#FFB0D1;" d="M617.14,150.052c-0.298,0-11.552,0.074-13.415,8.794c-1.863,8.72-2.31,23.104,2.534,28.992
			c4.844,5.888,12.67,0.298,12.67,0.298l-3.13,14.831l-1.565,1.043c0,0,0.745,6.708,6.41,7.006
			c5.664,0.298,13.341-7.602,13.341-7.602l-2.832-1.267l1.938-28.172c0,0,3.726-16.322-5.366-20.496
			C618.631,149.307,617.14,150.052,617.14,150.052z"/>
		<path style="fill:#1D3A57;" d="M604.562,156.57c0,0-0.363,3.89,7.017,5.489c7.38,1.599,7.688,1.292,10.025,3.567
			c2.337,2.276,2.644,2.706,2.644,2.706s1.046-3.444,4.674-1.968c3.629,1.476,2.768,6.15,0.615,7.811
			c-2.153,1.661-2.952,1.722-2.952,1.722s0.2,4.552,2.952,7.134c2.752,2.582,7.442,1.968,7.442,1.968s-6.583,15.448-7.488,26.026
			c-0.906,10.578-1.245,21.559,9.17,24.05c10.415,2.49,11.887-6.113,15.396-9.057c3.51-2.943,9.962-5.094,10.528-10.189
			c0.566-5.094-0.453-10.528-7.245-16.189c-6.792-5.66-12.226-10.302-14.151-13.472s-4.415-4.868-4.415-4.868
			s2.604-9.962,1.472-16.528c-1.132-6.566-9.905-17.774-22.047-16.755c-12.142,1.019-14.972,6.566-15.199,8.151
			c-0.226,1.585,0.617,3.203,0.617,3.203L604.562,156.57z"/>
		<polygon style="fill:#BF5E87;" points="610.421,166.614 607.691,176.146 610.787,174.191 		"/>
		<path style="fill:#E08DB0;" d="M607.936,171.38c0,1.125-0.912,2.037-2.037,2.037c-1.125,0-2.037-0.912-2.037-2.037
			c0-1.125,0.912-2.037,2.037-2.037C607.024,169.343,607.936,170.255,607.936,171.38z"/>
		<path style="fill:#E08DB0;" d="M616.694,171.38c0,1.125-0.912,2.037-2.037,2.037s-2.037-0.912-2.037-2.037
			c0-1.125,0.912-2.037,2.037-2.037S616.694,170.255,616.694,171.38z"/>
		<path style="fill:#1D3A57;" d="M612.783,166.98c0-0.45,0.365-0.815,0.815-0.815c0.45,0,0.815,0.365,0.815,0.815
			c0,0.45-0.365,0.815-0.815,0.815C613.148,167.795,612.783,167.43,612.783,166.98z"/>
		<path style="fill:#1D3A57;" d="M605.532,166.98c0-0.45,0.365-0.815,0.815-0.815c0.45,0,0.815,0.365,0.815,0.815
			c0,0.45-0.365,0.815-0.815,0.815C605.897,167.795,605.532,167.43,605.532,166.98z"/>
		<path style="fill:#1D3A57;" d="M607.936,161.993c0,0-0.964-0.263-1.861,0.088c-0.898,0.35-1.401,1.029-1.401,1.029
			s1.671-0.532,2.488-0.606C607.979,162.43,608.002,162.299,607.936,161.993z"/>
		<path style="fill:#FFB0D1;" d="M586.275,264.283h82.192c0,0-1.349-9.898-8.832-15.541c-7.483-5.643-20.855-0.736-31.405,4.048
			c-10.55,4.784-20.732,8.097-21.345,7.974c-0.613-0.123-4.539-2.822-10.795-0.613C589.832,262.358,586.275,264.283,586.275,264.283
			z"/>
		<path style="fill:#1D3A57;" d="M606.884,260.764c0,0,4.048-0.575,6.134,1.472c2.086,2.047,2.822,2.047,2.822,2.047h3.803
			c0,0-2.995-3.519-4.662-4.501c-1.667-0.981-2.329-0.749-2.329-0.749L606.884,260.764z"/>
		<path style="fill:#FFFFFF;" d="M602.629,176.57c0,0,1.841-3.153,6.935-3.153c5.093,0,7.917,2.397,8.977,3.644
			c1.06,1.247,2.307,7.606,1.933,9.164c-0.374,1.559-3.8,4.426-7.854,4.925C608.566,191.649,603.3,187.549,602.629,176.57z"/>
		<path style="fill:#E08DB0;" d="M618.929,188.137l6.47-10.327c0,0-3.179,10.037-4.426,12.219c-1.247,2.182-3.109,3.155-3.109,3.155
			L618.929,188.137z"/>
		<polyline style="fill:#FFFFFF;" points="616.694,177.061 623.695,167.72 624.248,168.333 617.864,177.56 		"/>
		<polygon style="fill:#FFFFFF;" points="618.929,188.137 626.585,175.897 626.147,175.897 619.85,184.854 		"/>
		<path style="fill:#FFFFFF;" d="M614.233,204.011l-2.324,0.503c0,0-3.732,15.551-3.324,18.982c0.409,3.432,3.513,1.879,7.19-0.082
			s13.714-12.39,13.714-12.39l0.587-4.181c0,0-5.178,5.05-9.535,3.171C616.185,208.136,614.233,204.011,614.233,204.011z"/>
		<path style="fill:none;stroke:#3B76B3;stroke-width:0.75;stroke-linecap:round;stroke-linejoin:round;stroke-miterlimit:10;" d="
			M663.866,241.241c0,0-1.433-0.956-8.695-0.764c-7.262,0.191-18.251,7.74-18.251,7.74s5.447-6.402,10.129-8.6
			c4.682-2.198,7.358-2.867,7.358-2.867"/>
		<path style="fill:none;stroke:#3B76B3;stroke-width:0.75;stroke-linecap:round;stroke-linejoin:round;stroke-miterlimit:10;" d="
			M597.438,216.264c0,0-5.989,8.293-7.141,13.131c-1.152,4.837-1.152,16.821-1.152,16.821L588,227.179"/>
	</g>
	<g>
		<rect x="394.21" y="282.32" style="fill:#D9ECFF;" width="363.684" height="114.349"/>
		<rect x="394.21" y="316.049" style="fill:#8EBBE8;" width="363.684" height="5.372"/>
		<rect x="394.21" y="364.039" style="fill:#7EA6CF;" width="363.684" height="5.372"/>
		<rect x="394.21" y="393.983" style="fill:#7093B8;" width="363.684" height="5.372"/>
		<rect x="391.952" y="274.846" style="fill:#3A8D9C;" width="365.942" height="7.474"/>
		<rect x="388.953" y="264.283" style="fill:#3A8D9C;" width="368.941" height="3.089"/>
		<polygon style="fill:#2E717D;" points="757.894,274.846 391.952,274.846 388.953,267.372 757.894,267.372 		"/>
	</g>
	<g>
		<rect x="510.651" y="-0.47" style="fill:#FFFFFF;" width="2.02" height="65.758"/>
		<rect x="601.403" y="-0.47" style="fill:#FFFFFF;" width="2.02" height="65.758"/>
		<path style="fill:#FFFFFF;" d="M660.157,84.144H452.735l0,0c0-10.414,8.442-18.856,18.857-18.856H641.3
			C651.714,65.288,660.157,73.73,660.157,84.144L660.157,84.144z"/>
	</g>
	<g>
		<rect x="143.859" y="-0.47" style="fill:#FFFFFF;" width="2.02" height="65.758"/>
		<rect x="234.611" y="-0.47" style="fill:#FFFFFF;" width="2.02" height="65.758"/>
		<path style="fill:#FFFFFF;" d="M293.364,84.144H85.942l0,0c0-10.414,8.442-18.856,18.857-18.856h169.709
			C284.922,65.288,293.364,73.73,293.364,84.144L293.364,84.144z"/>
	</g>
	<g>
		<g>
			<path style="fill:#BF5E87;" d="M350.459,140.937c0,0-11.261-2.342-14.128,2.146c-2.867,4.487-0.499,8.227-0.499,8.227
				s-9.598,0.513-16.079,14.653c-6.482,14.14-23.309,46.423-24.929,64.123c-1.62,17.7,0.374,20.099,5.858,24.01
				c5.484,3.911,6.108,3.288,6.108,3.288s-0.623,7.853,0.125,9.224c0.748,1.371,0.748,1.371,0.748,1.371s-0.499,5.759,0.125,6.868
				c0.623,1.109,22.686,4.101,34.278,2.855c11.592-1.247,17.949-3.864,17.949-3.864v-7.105c0,0,1.371-1.496,1.994-3.49
				c0.623-1.994,1.122-10.844,1.122-10.844s13.836,11.307,26.425,11.886c12.589,0.579,27.796,0,27.796,0h3.739l1.246-9.229
				l-8.269-3.778c0,0,0.045-1.87-1.39-2.742c-1.435-0.873-21.773-13.458-22.962-12.949c-1.189,0.509-0.339-2.547-0.764-2.547
				c-0.425,0-10.104-45.17-11.972-50.604c-1.868-5.434-4.7-13.755-4.7-13.755l-6.068-10.358c0,0,1.755-1.359,0.573-5.264
				S350.459,140.937,350.459,140.937z"/>
			<path style="fill:#522C24;" d="M364.415,95.772c0,0,5.747,2.291,10.835,12.26c5.088,9.969,8.515,24.409,8.515,24.409
				l-7.577,3.599l-1.984-5.639l0.722,5.639l-10.511,2.345l-2.704-39.809L364.415,95.772z"/>
			<path style="fill:#FFB0D1;" d="M351.179,114.755c0,0-2.804-3.127-6.201,0.27c-3.397,3.397-1.456,7.818,2.211,8.735
				c3.666,0.917,4.853-0.755,4.853-0.755s0.701,9.921-0.593,14.666c-1.294,4.745-3.559,10.298-3.559,10.298s5.23,9.705,8.842,13.641
				c3.612,3.936,6.201,5.176,6.848,3.828c0.647-1.348-1.132-12.779-1.132-12.779l4.583-20.866c0,0,7.764-1.456,8.195-8.034
				c0.431-6.578-5.23-20.327-7.98-23.939c-2.75-3.612-5.23-7.171-12.239-4.421s-8.573,9.166-7.387,12.724
				C348.807,111.682,351.179,114.755,351.179,114.755z"/>
			<path style="fill:#FFFFFF;" d="M360.679,119.362c0,0-2.341,4.181-2.509,6.983c-0.167,2.801-0.251,4.056-0.251,4.056
				s3.723,2.779,9.011,1.85c5.288-0.93,7.629-3.907,8.319-6.349c0.69-2.442-0.689-9.98-1.108-10.637
				c-0.418-0.657-0.475-0.848-0.475-0.848s-3.915-1.033-7.427,0.89C362.728,117.23,360.679,119.362,360.679,119.362z"/>
			<polygon style="fill:#BF5E87;" points="363.88,108.031 368.547,114.431 366.463,115.19 			"/>
			<path style="fill:#E08DB0;" d="M362.25,115.19c0,1.339-1.085,2.424-2.423,2.424c-1.339,0-2.424-1.085-2.424-2.424
				s1.085-2.424,2.424-2.424C361.165,112.767,362.25,113.852,362.25,115.19z"/>
			<circle style="fill:#1D3A57;" cx="359.233" cy="110.203" r="0.856"/>
			<path style="fill:#1D3A57;" d="M368.498,107.509c0,0.473-0.383,0.856-0.856,0.856c-0.473,0-0.856-0.383-0.856-0.856
				s0.383-0.856,0.856-0.856C368.115,106.654,368.498,107.037,368.498,107.509z"/>
			<circle style="fill:#E08DB0;" cx="369.857" cy="111.252" r="2.424"/>
			<path style="fill:#522C24;" d="M359.827,103.586c0,0-0.768-0.389-1.908,0.156c-1.14,0.545-2.074,2.063-2.074,2.063
				L359.827,103.586z"/>
			<path style="fill:#522C24;" d="M367.874,101.912c-0.195,0-1.869-0.779-2.569-0.467c-0.701,0.311-0.545,0.973-0.545,0.973
				L367.874,101.912z"/>
			<polygon style="fill:#FFFFFF;" points="351.765,113.97 359.827,121.201 360.226,120.226 352.073,113.676 			"/>
			<polygon style="fill:#FFFFFF;" points="352.151,125.085 358.377,129.162 357.919,130.401 351.996,125.47 			"/>
			<path style="fill:#522C24;" d="M350.999,114.512c0,0,1.77-0.088,2.725-2.681c0.955-2.593,0-7.408,3.457-9.937
				c3.458-2.529,6.163-4.394,6.698-5.258c0.535-0.864,0.535-0.864,0.535-0.864s-2.593-4.595-11.373-2.184
				c-8.78,2.411-13.739,7.234-16.287,13.921c-2.548,6.687-4.913,24.931-4.913,24.931l12.738,6.095l2.138-7.234l-0.091,7.234
				c0,0,4.913,0.728,6.915,0.5c2.002-0.227,3.185-0.5,3.185-0.5l-4.367-15.923c0,0-5.004,2.544-7.461-1.412
				C342.442,117.245,345.709,111.961,350.999,114.512z"/>
			<path style="fill:#9C4D6E;" d="M360.944,234.16l-5.951,16.542c0,0,10.887-0.331,12.193-1.614
				c1.307-1.283,1.742-1.864,1.742-1.864l1.742-10.597L360.944,234.16z"/>
			<polyline style="fill:#9C4D6E;" points="414.069,251.276 412.679,264.283 421.091,264.283 421.947,254.875 414.405,251.276 			
				"/>
			<path style="fill:none;stroke:#69344A;stroke-width:0.5;stroke-linecap:round;stroke-linejoin:round;stroke-miterlimit:10;" d="
				M343.217,149.64c0,0,3.167,7.573,7.143,11.455c3.976,3.881,7.559,6.059,7.559,6.059"/>
			<path style="fill:none;stroke:#69344A;stroke-width:0.5;stroke-linecap:round;stroke-linejoin:round;stroke-miterlimit:10;" d="
				M338.148,151.154c0,0,3.597,8.615,8.993,11.928c5.396,3.313,8.71,4.071,8.71,4.071"/>
			<path style="fill:none;stroke:#69344A;stroke-width:0.5;stroke-linecap:round;stroke-linejoin:round;stroke-miterlimit:10;" d="
				M330.057,160.924c0,0,7.359-1.019,9.396,10.189c2.038,11.208-12.34,51.849-12.34,51.849l-23.094,8.491l23.207-7.472l-8.943,8.038
				"/>
			<path style="fill:none;stroke:#69344A;stroke-width:0.5;stroke-linecap:round;stroke-linejoin:round;stroke-miterlimit:10;" d="
				M327.226,223.981"/>
			
				<line style="fill:none;stroke:#69344A;stroke-width:0.5;stroke-linecap:round;stroke-linejoin:round;stroke-miterlimit:10;" x1="327.226" y1="223.981" x2="360.944" y2="234.16"/>
			<path style="fill:none;stroke:#69344A;stroke-width:0.5;stroke-linecap:round;stroke-linejoin:round;stroke-miterlimit:10;" d="
				M374.252,174.461c0,0,2.157,9.571,0,21.277c-2.156,11.706-11.421,38.399-11.421,38.399"/>
			<path style="fill:#FFB0D1;" d="M421.947,256.777c0,0,9.136,3.326,10.179,3.978c1.044,0.652,6.783,1.956,7.695,2.478
				c0.913,0.522,1.174,1.239,1.174,1.239l-19.904-0.189L421.947,256.777z"/>
			<path style="fill:#E08DB0;" d="M356.469,129.193c0,0,2.744,2.413,5.781,2.824c3.038,0.411,4.924,0.187,4.924,0.187l-1.959,7.858
				c0,0-7.254-5.874-8.746-11.055"/>
			<path style="fill:#E08DB0;" d="M370.497,237.675c0,0,11.96-0.564,15.134,0c3.174,0.564,3.644,1.386,2.703,1.739
				c-0.94,0.353-11.402,1.058-11.402,1.058s-0.622,3.136-1.722,4.565c-1.099,1.43-6.283,2.186-6.283,2.186L370.497,237.675z"/>
			<path style="fill:#3A73AD;" d="M309.16,274.846l5.815,147.419h-4.307l2.584,21.968l25.844-1.292l0.215-5.815l28.429-7.107
				v-18.091l-3.23,1.292l-6.203-138.778c0,0-12.965,1.802-21.796,2.018C327.682,276.675,309.16,274.846,309.16,274.846z"/>
			<polygon style="fill:#2D5A87;" points="347.791,295.433 337.365,421.415 339.537,423.889 339.312,437.126 347.791,435.006 
				347.791,420.763 340.623,417.94 			"/>
			<polygon style="fill:#2D5A87;" points="343.124,298.77 354.871,288.895 345.515,301.264 			"/>
			<polygon style="fill:#4B96E0;" points="310.668,422.266 314.549,422.266 339.518,424.959 339.097,442.941 313.252,444.233 			"/>
			<polygon style="fill:#4B96E0;" points="344.022,419.279 347.791,420.763 347.791,434.589 367.741,430.019 367.741,411.928 			"/>
			<path style="fill:#9D5EBF;" d="M360.645,431.645c0,0,9.09,2.668,16.362,6.061c7.272,3.394,8.605,7.514,8.605,7.514
				s-12.12,0.97-21.088-0.121c-8.969-1.091-19.513-3.151-19.876-3.272c-0.364-0.121,0-6.034,0-6.034L360.645,431.645z"/>
			<path style="fill:#9D5EBF;" d="M334.945,443.149c0,0,6.672,2.314,14.187,5.343c7.514,3.03,8.726,6.181,8.726,6.181
				s-13.224,1.576-22.913,0.485c-9.689-1.091-18.537-3.151-18.537-3.151l0.608-7.962L334.945,443.149z"/>
			<path style="fill:#D9ECFF;" d="M373.725,436.266c0,0-4.742,2.147-6.334,3.923c-1.592,1.776-2.342,2.572-2.342,2.572
				l-20.563-3.247l0.162,2.313c0,0,11.875,2.545,20.401,3.791c8.526,1.246,20.563-0.397,20.563-0.397s-0.771-3.01-4.506-5.766
				C377.371,436.699,373.725,436.266,373.725,436.266z"/>
			<path style="fill:#D9ECFF;" d="M344.486,446.663c0,0-4.523,0.868-6.561,2.682c-2.038,1.815-2.292,2.324-2.292,2.324
				l-19.224-1.698v2.035c0,0,11.752,3.569,23.639,3.993c11.887,0.424,17.811-1.327,17.811-1.327s-0.405-1.645-3.716-4.192
				C350.83,447.934,344.486,446.663,344.486,446.663z"/>
		</g>
		<path style="fill:#DEB46D;" d="M327.226,155.507c0,0,9.962,0.457,13.124,9.18c3.162,8.723-3.585,26.472-3.585,26.472
			s4.9-15.544-0.34-25.197c-5.24-9.653-15.033-3.183-15.033-3.183L327.226,155.507z"/>
		<path style="fill:#DEB46D;" d="M327.226,156.619c0,0,0.367-2.986-7.81-1.111c-8.178,1.874-15.701,6.345-17.337,12.451
			c-1.635,6.106-5.343,17.228-7.196,20.608c-1.854,3.38-10.031,13.738-6.215,21.48c3.816,7.742,8.444,8.969,8.444,8.969
			s6.712-16.166,9.765-24.343c3.053-8.178,12.13-28.131,14.515-31.184s5.834-7.98,5.834-7.98"/>
		<path style="fill:#A8803D;" d="M297.952,193.499c0,0-2.96,7.209-1.29,10.093c1.669,2.884,6.754-3.111,6.754-3.111l1.048,0.434
			l-6.865,16.924c0,0-6.401-5.444-6.325-10.376c0.076-4.933,2.367-10.167,3.005-11.003
			C294.916,195.624,297.952,193.499,297.952,193.499z"/>
		<path style="fill:#A8803D;" d="M299.925,199.646c0,0-0.152-0.152-0.987,0c-0.835,0.152-1.442,2.125-0.531,2.58
			C299.318,202.681,300.077,200.632,299.925,199.646z"/>
	</g>
	<g>
		<path style="fill:#9C4D6E;" d="M190.553,197.498c0,0.248,20.81,30.389,20.81,30.389l19.819-4.377l-18.663-30.012l-21.966,2.926
			V197.498z"/>
		<path style="fill:#FFFFFF;" d="M210.867,195.12c-0.254,0-16.907,2.226-16.907,2.226l16.406,25.639l14.757-2.968"/>
		<path style="fill:#FFB0D1;" d="M261.092,168.674l-3.817-10.612c0,0,2.979-14.708-0.652-22.156
			c-3.631-7.447-17.966-9.309-21.783-3.072c-3.817,6.237-5.399,16.477-5.399,16.477l2.141-0.931c0,0,0.279,10.054,5.027,11.078
			c4.748,1.024,6.889-2.793,6.889-2.793l0.465,10.798l-2.607,1.955c0,0,7.82,3.724,13.405,3.072c5.585-0.652,6.796-3.91,6.796-3.91"
			/>
		<polyline style="fill:#BF5E87;" points="231.583,148.381 231.466,140.756 229.441,149.311 		"/>
		<polygon style="fill:#522C24;" points="231.891,151.427 234.003,150.028 232.136,152.756 		"/>
		<polygon style="fill:#E08DB0;" points="243.498,156.666 247.121,152.038 243.704,161.443 		"/>
		<path style="fill:#522C24;" d="M234.341,133.699l0.5-0.865c0,0,1.057,4.428,2.308,6.931c1.252,2.503,1.565,2.441,1.565,2.441
			s2.816-3.442,5.445-1.189s1.189,5.57,0,6.384c-1.189,0.814-1.94,1.001-1.94,1.001s-0.063,7.01,7.26,9.576
			c7.323,2.566,12.58-1.172,14.77-7.158c2.19-5.985-3.88-15.749-3.88-15.749s2.754-1.377,1.565-5.695
			c-1.189-4.318-4.631-4.569-6.947-2.879c-2.316,1.69-2.128,3.442-2.128,3.442s-4.819-3.818-10.702-2.19
			c-5.883,1.627-7.369,3.129-7.815,4.318c-0.446,1.189-0.173,1.952-0.173,1.952"/>
		<path style="fill:#FFFFFF;stroke:#2F2452;stroke-width:0.5;stroke-miterlimit:10;" d="M235.018,142.163
			c0,2.423-0.927,4.387-2.07,4.387c-1.143,0-2.07-1.964-2.07-4.387s0.927-4.387,2.07-4.387
			C234.091,137.776,235.018,139.74,235.018,142.163z"/>
		
			<line style="fill:none;stroke:#2F2452;stroke-width:0.5;stroke-linecap:round;stroke-linejoin:round;stroke-miterlimit:10;" x1="235.018" y1="142.32" x2="240.815" y2="140.583"/>
		<path style="fill:#FFFFFF;" d="M241.357,169.419c0,0-14.861,7.979-16.204,14.934c-1.342,6.955-4.271,43.804-4.271,43.804
			l-16.594-12.812l-5.247,16.673l10.615,15.173c0,0,3.88,6.101,10.542,7.565c6.662,1.464,9.469-1.342,9.469-1.342v66.792h57.997
			c0,0,3.221-29.14-1.986-49.098c-5.208-19.958-11.774-33.684-11.774-33.684l-0.679-5.094c0,0,6.34-32.576,5.208-44.35
			c-1.132-11.774-7.472-14.648-7.472-14.648l-10.409-6.158c0,0-3.627,3.529-8.52,3.208
			C247.141,170.063,241.357,169.419,241.357,169.419z"/>
		<path style="fill:#1C3854;" d="M237.891,320.207l0.987,72.199l3.555,1.576c0,0-1.382,3.828-2.271,4.68
			c-0.889,0.853-10.17,13.264-10.17,13.264s4.937-0.959,7.109-2.538c2.172-1.58,6.745-9.084,6.745-9.084v9.479l2.141-0.79v-12.325
			l4.542-2.686l5.332-73.776H237.891z"/>
		<path style="fill:#1C3854;" d="M260.995,320.207l1.185,71.805l4.739,1.971c0,0-3.555,8.297-5.134,10.667
			c-1.58,2.37-3.357,4.937-3.357,4.937s4.937,0.79,7.504-1.975c2.567-2.765,5.134-8.257,5.134-8.257l-0.198,8.849l2.567-0.592
			v-12.046c0,0,4.344-1.389,5.134-1.583c0.79-0.194,1.185-73.776,1.185-73.776H260.995z"/>
		<path style="fill:none;stroke:#5E7387;stroke-width:0.5;stroke-linecap:round;stroke-linejoin:round;stroke-miterlimit:10;" d="
			M231.583,179.251c0,0,10.016,1.417,11.344,12.774c1.328,11.357-2.111,45.401-2.111,45.401l5.488-37.847"/>
		<path style="fill:none;stroke:#5E7387;stroke-width:2;stroke-linecap:round;stroke-linejoin:round;stroke-miterlimit:10;" d="
			M232.947,174.305c0,0,2.293-3.926,7.929-1.738c5.636,2.189,15.216,11.882,21.979,11.206c6.763-0.676,6.773-8.393,5.134-12.199"/>
		<polygon style="fill:#2D5A87;" points="204.289,215.346 199.68,210.722 196.684,215.346 201.415,224.477 		"/>
		<path style="fill:#FFB0D1;" d="M197.446,214.169c0,0-3.056-5.166-3.453-6.61c-0.397-1.444-0.433-5.991-0.433-5.991
			s1.732,2.021,1.841,2.202c0.108,0.181,1.696,2.599,1.696,2.599s1.877-2.202,2.418-3.068c0.541-0.866,2.021-2.563,2.021-2.563
			s0.722,0.65,0.613,1.48c-0.108,0.83-1.696,5.414-1.877,5.847c-0.18,0.433-1.231,1.408-1.231,1.408l0.797,1.409L197.446,214.169z"
			/>
		<path style="fill:#DEB46D;" d="M197.384,195.515l-1.451,0.193l0.554-0.589l-0.554-3.205l8.356-1.549l1.966,2.671l1.072,0.462
			l0.879,0.574l-2.904,0.403c0,0,0.774,1.608-1.37,2.085C201.788,197.037,197.384,195.515,197.384,195.515z"/>
		<path style="fill:#FFFFFF;" d="M229.441,149.198c0,0-0.019,0.388,0.037,1.035c0.304,3.528,2.245,6.71,5.169,8.707l1.022,0.698
			c0,0,0.976-1.673,0.383-5.699c-0.382-2.597-2.003-4.418-3.106-5.383c-0.607-0.531-1.057-0.804-1.057-0.804L229.441,149.198z"/>
		<polygon style="fill:#FFFFFF;" points="232.568,148.867 238.807,141.617 239.289,141.617 233.09,149.844 		"/>
		<polygon style="fill:#FFFFFF;" points="235.774,157.826 242.746,148.519 243.06,148.972 235.774,159.411 		"/>
	</g>
	<polyline style="fill:#FFFFFF;stroke:#2F2452;stroke-miterlimit:10;" points="394.21,55.996 394.21,68.335 406.08,68.335 	"/>
	<rect x="133.302" y="113.676" style="fill:#8EBBE8;" width="56.352" height="20.859"/>
	<rect x="133.302" y="150.821" style="fill:#A0C4E8;" width="86.264" height="29.746"/>
	<rect x="417.313" y="125.526" style="fill:#A0C4E8;" width="75.989" height="48.935"/>
	<rect x="423.595" y="134.535" style="fill:#BDDDFC;" width="14.68" height="17.503"/>
	<rect x="444.145" y="134.535" style="fill:#BDDDFC;" width="37.489" height="3.85"/>
	<rect x="140.042" y="155.507" style="fill:#BDDDFC;" width="72.185" height="3.646"/>
	<rect x="140.042" y="164.139" style="fill:#BDDDFC;" width="72.185" height="3.647"/>
	<rect x="452.735" y="84.144" style="fill:#A0C4E8;" width="207.422" height="4.438"/>
	<rect x="85.942" y="84.144" style="fill:#A0C4E8;" width="207.422" height="4.438"/>
</g>
</svg>
