<svg xmlns="http://www.w3.org/2000/svg" xmlns:xlink="http://www.w3.org/1999/xlink" version="1.1" x="0px" y="0px" style="enable-background:new 0 0 500 500;" xml:space="preserve" viewBox="7.8 36.78 487.97 396.33">
<g id="Background_Simple">
	<g>
		<path style="fill:#92E3A9;" d="M21.726,244.858c0,0-6.269,43.557,19.787,92.158c22.698,42.338,63.781,71.853,112.604,84.355    c32.227,8.252,65.436,7.864,98.126,5.825c42.055-2.623,88.807-0.166,127.631-16.012c60.439-24.668,97.367-89.253,100.17-149.203    c1.811-38.733-13.084-83.215-52.693-103.627c-14.665-7.558-30.952-13.174-43.797-23.507    c-15.39-12.381-22.107-30.352-33.597-45.348c-14.195-18.526-34.529-29.081-56.596-37.617    C221.64,24.14,153.202,36.59,97.323,73.241C41.443,109.892,18.386,223.505,21.726,244.858z"/>
		<path style="opacity:0.7;fill:#FFFFFF;" d="M21.726,244.858c0,0-6.269,43.557,19.787,92.158    c22.698,42.338,63.781,71.853,112.604,84.355c32.227,8.252,65.436,7.864,98.126,5.825c42.055-2.623,88.807-0.166,127.631-16.012    c60.439-24.668,97.367-89.253,100.17-149.203c1.811-38.733-13.084-83.215-52.693-103.627    c-14.665-7.558-30.952-13.174-43.797-23.507c-15.39-12.381-22.107-30.352-33.597-45.348    c-14.195-18.526-34.529-29.081-56.596-37.617C221.64,24.14,153.202,36.59,97.323,73.241    C41.443,109.892,18.386,223.505,21.726,244.858z"/>
	</g>
</g>
<g id="Equipment">
	<g>
		<rect x="80.338" y="123.296" style="fill:#BDBDBD;" width="153.298" height="175.725"/>
		<rect x="87.253" y="132.593" style="fill:#DBDBDB;" width="139.468" height="166.429"/>
		<rect x="87.253" y="161.159" style="fill:#BDBDBD;" width="139.468" height="9.297"/>
		<g>
			<rect x="191.156" y="38.798" style="fill:#BDBDBD;" width="10.038" height="3.137"/>
			<rect x="191.156" y="43.19" style="fill:#BDBDBD;" width="10.038" height="3.137"/>
			<rect x="191.156" y="47.582" style="fill:#BDBDBD;" width="10.038" height="3.137"/>
			<rect x="191.156" y="51.973" style="fill:#BDBDBD;" width="10.038" height="3.137"/>
			<rect x="191.156" y="56.365" style="fill:#BDBDBD;" width="10.038" height="3.137"/>
			<rect x="191.156" y="60.757" style="fill:#BDBDBD;" width="10.038" height="3.137"/>
			<rect x="191.156" y="65.148" style="fill:#BDBDBD;" width="10.038" height="3.137"/>
			<rect x="191.156" y="69.54" style="fill:#BDBDBD;" width="10.038" height="3.137"/>
			<rect x="191.156" y="73.932" style="fill:#BDBDBD;" width="10.038" height="3.137"/>
			<rect x="191.156" y="78.324" style="fill:#BDBDBD;" width="10.038" height="3.137"/>
			<rect x="191.156" y="82.715" style="fill:#BDBDBD;" width="10.038" height="3.137"/>
			<rect x="191.156" y="87.107" style="fill:#BDBDBD;" width="10.038" height="3.137"/>
			<rect x="191.156" y="91.499" style="fill:#BDBDBD;" width="10.038" height="3.137"/>
			<rect x="191.156" y="95.891" style="fill:#BDBDBD;" width="10.038" height="3.137"/>
			<rect x="191.156" y="100.282" style="fill:#BDBDBD;" width="10.038" height="3.137"/>
			<rect x="191.156" y="104.674" style="fill:#BDBDBD;" width="10.038" height="3.137"/>
			<rect x="191.156" y="109.066" style="fill:#BDBDBD;" width="10.038" height="3.137"/>
			<rect x="191.156" y="113.458" style="fill:#BDBDBD;" width="10.038" height="3.137"/>
			<rect x="191.156" y="117.849" style="fill:#BDBDBD;" width="10.038" height="3.137"/>
			<rect x="191.156" y="122.241" style="fill:#BDBDBD;" width="10.038" height="3.137"/>
		</g>
	</g>
	<g>
		<rect x="254.093" y="123.296" style="fill:#BDBDBD;" width="78.327" height="175.725"/>
		<rect x="260.202" y="132.593" style="fill:#DBDBDB;" width="66.11" height="166.429"/>
		<rect x="260.202" y="161.159" style="fill:#BDBDBD;" width="66.11" height="9.297"/>
		<g>
			<rect x="289.941" y="38.798" style="fill:#BDBDBD;" width="10.038" height="3.137"/>
			<rect x="289.941" y="43.19" style="fill:#BDBDBD;" width="10.038" height="3.137"/>
			<rect x="289.941" y="47.582" style="fill:#BDBDBD;" width="10.038" height="3.137"/>
			<rect x="289.941" y="51.973" style="fill:#BDBDBD;" width="10.038" height="3.137"/>
			<rect x="289.941" y="56.365" style="fill:#BDBDBD;" width="10.038" height="3.137"/>
			<rect x="289.941" y="60.757" style="fill:#BDBDBD;" width="10.038" height="3.137"/>
			<rect x="289.941" y="65.148" style="fill:#BDBDBD;" width="10.038" height="3.137"/>
			<rect x="289.941" y="69.54" style="fill:#BDBDBD;" width="10.038" height="3.137"/>
			<rect x="289.941" y="73.932" style="fill:#BDBDBD;" width="10.038" height="3.137"/>
			<rect x="289.941" y="78.324" style="fill:#BDBDBD;" width="10.038" height="3.137"/>
			<rect x="289.941" y="82.715" style="fill:#BDBDBD;" width="10.038" height="3.137"/>
			<rect x="289.941" y="87.107" style="fill:#BDBDBD;" width="10.038" height="3.137"/>
			<rect x="289.941" y="91.499" style="fill:#BDBDBD;" width="10.038" height="3.137"/>
			<rect x="289.941" y="95.891" style="fill:#BDBDBD;" width="10.038" height="3.137"/>
			<rect x="289.941" y="100.282" style="fill:#BDBDBD;" width="10.038" height="3.137"/>
			<rect x="289.941" y="104.674" style="fill:#BDBDBD;" width="10.038" height="3.137"/>
			<rect x="289.941" y="109.066" style="fill:#BDBDBD;" width="10.038" height="3.137"/>
			<rect x="289.941" y="113.458" style="fill:#BDBDBD;" width="10.038" height="3.137"/>
			<rect x="289.941" y="117.849" style="fill:#BDBDBD;" width="10.038" height="3.137"/>
			<rect x="289.941" y="122.241" style="fill:#BDBDBD;" width="10.038" height="3.137"/>
		</g>
	</g>
	<g>
		<rect x="47" y="274.799" style="fill:#BDBDBD;" width="220.606" height="38.641"/>
		<path style="fill:#92E3A9;" d="M63.845,283.21c0,2.582-2.093,4.675-4.675,4.675c-2.582,0-4.675-2.093-4.675-4.675    s2.093-4.675,4.675-4.675C61.752,278.534,63.845,280.627,63.845,283.21z"/>
		<rect x="72.611" y="278.534" style="fill:#92E3A9;" width="12.273" height="9.351"/>
		<rect x="87.806" y="278.534" style="fill:#808080;" width="12.273" height="9.351"/>
		<rect x="47" y="186" style="fill:#DBDBDB;" width="220.606" height="88.913"/>
		<rect x="47" y="313.498" style="fill:#DBDBDB;" width="220.606" height="119.11"/>
		<rect x="101.522" y="189.355" style="fill:#BDBDBD;" width="111.561" height="82.203"/>
		<g>
			<path style="fill:#92E3A9;" d="M105.462,258.096c-0.262,0.886-0.408,1.821-0.408,2.792c0,5.437,4.408,9.845,9.845,9.845     c5.437,0,9.844-4.408,9.844-9.845c0-0.971-0.146-1.906-0.408-2.792H105.462z"/>
			<path style="fill:none;stroke:#FFFFFF;stroke-miterlimit:10;" d="M118.719,250.562v-13.037h-7.641v13.037     c-4.2,1.555-7.2,5.585-7.2,10.326c0,6.086,4.934,11.02,11.02,11.02c6.086,0,11.02-4.934,11.02-11.02     C125.918,256.147,122.919,252.117,118.719,250.562z"/>
		</g>
		<g>
			<path style="fill:#92E3A9;" d="M150.031,258.096c-0.262,0.886-0.408,1.821-0.408,2.792c0,5.437,4.408,9.845,9.845,9.845     s9.844-4.408,9.844-9.845c0-0.971-0.146-1.906-0.408-2.792H150.031z"/>
			<path style="fill:none;stroke:#FFFFFF;stroke-miterlimit:10;" d="M163.289,250.562v-13.037h-7.641v13.037     c-4.2,1.555-7.2,5.585-7.2,10.326c0,6.086,4.934,11.02,11.02,11.02s11.02-4.934,11.02-11.02     C170.488,256.147,167.489,252.117,163.289,250.562z"/>
		</g>
		<g>
			<path style="fill:#92E3A9;" d="M129.246,261.677c-0.194,0.656-0.302,1.349-0.302,2.068c0,4.027,3.265,7.292,7.292,7.292     s7.292-3.265,7.292-7.292c0-0.719-0.108-1.412-0.302-2.068H129.246z"/>
			<path style="fill:none;stroke:#FFFFFF;stroke-miterlimit:10;" d="M139.066,256.096v-9.657h-5.66v9.657     c-3.111,1.152-5.333,4.137-5.333,7.649c0,4.508,3.655,8.163,8.163,8.163s8.163-3.655,8.163-8.163     C144.399,260.233,142.178,257.248,139.066,256.096z"/>
		</g>
		<g>
			<rect x="114.572" y="201.292" style="fill:#858585;" width="4.969" height="6.375"/>
			<path style="fill:#DBDBDB;" d="M120.708,207.681h-7.303c-2.1,0-3.802,1.702-3.802,3.802v14.89h14.906v-14.89     C124.51,209.383,122.808,207.681,120.708,207.681z"/>
		</g>
		<g>
			<rect x="145.984" y="201.292" style="fill:#858585;" width="4.969" height="6.375"/>
			<path style="fill:#DBDBDB;" d="M152.12,207.681h-7.303c-2.099,0-3.802,1.702-3.802,3.802v14.89h14.906v-14.89     C155.922,209.383,154.22,207.681,152.12,207.681z"/>
		</g>
		<g>
			<rect x="173.203" y="201.292" style="fill:#858585;" width="4.969" height="6.375"/>
			<path style="fill:#DBDBDB;" d="M179.339,207.681h-7.303c-2.1,0-3.802,1.702-3.802,3.802v14.89h14.906v-14.89     C183.14,209.383,181.438,207.681,179.339,207.681z"/>
		</g>
		<g>
			<rect x="192.872" y="201.292" style="fill:#858585;" width="4.969" height="6.375"/>
			<path style="fill:#DBDBDB;" d="M199.008,207.681h-7.303c-2.099,0-3.802,1.702-3.802,3.802v14.89h14.906v-14.89     C202.809,209.383,201.107,207.681,199.008,207.681z"/>
		</g>
		<rect x="101.522" y="226.263" style="fill:#DBDBDB;" width="111.561" height="8.388"/>
		<g>
			<polygon style="fill:#808080;" points="62.024,319.012 64.256,323.128 76.943,323.128 79.184,319.012    "/>
			<polygon style="fill:#808080;" points="120.423,319.012 122.655,323.128 135.342,323.128 137.583,319.012    "/>
			<polygon style="fill:#808080;" points="178.822,319.012 181.054,323.128 193.741,323.128 195.981,319.012    "/>
			<polygon style="fill:#808080;" points="237.22,319.012 239.452,323.128 252.139,323.128 254.38,319.012    "/>
			<polygon style="fill:#808080;" points="62.024,346.048 64.256,350.165 76.943,350.165 79.184,346.048    "/>
			<polygon style="fill:#808080;" points="120.423,346.048 122.655,350.165 135.342,350.165 137.583,346.048    "/>
			<polygon style="fill:#808080;" points="178.822,346.048 181.054,350.165 193.741,350.165 195.981,346.048    "/>
			<polygon style="fill:#808080;" points="237.22,346.048 239.452,350.165 252.139,350.165 254.38,346.048    "/>
		</g>
		<line style="fill:none;stroke:#808080;stroke-miterlimit:10;" x1="49.477" y1="319.014" x2="264.052" y2="319.014"/>
		<line style="fill:none;stroke:#808080;stroke-miterlimit:10;" x1="49.477" y1="345.927" x2="264.052" y2="345.927"/>
	</g>
	<g>
		<g>
			<path style="fill:#BDBDBD;" d="M428.456,263.809l-4.403-17.099v-4.674h-6.232v4.674l-4.402,17.099     c-0.296,1.148,0.571,2.266,1.756,2.266H426.7C427.885,266.075,428.752,264.957,428.456,263.809z"/>
			<path style="fill:#808080;" d="M424.852,255.168h-7.83l-2.31,8.974c-0.051,0.197,0.031,0.343,0.085,0.412     s0.174,0.185,0.378,0.185H426.7c0.204,0,0.324-0.116,0.378-0.185c0.054-0.069,0.136-0.215,0.085-0.412L424.852,255.168z"/>
		</g>
		<g>
			<path style="fill:#BDBDBD;" d="M455.064,263.809l-4.403-17.099v-4.674h-6.232v4.674l-4.402,17.099     c-0.296,1.148,0.571,2.266,1.756,2.266h11.525C454.493,266.075,455.36,264.957,455.064,263.809z"/>
			<path style="fill:#808080;" d="M451.46,255.168h-7.83l-2.31,8.974c-0.051,0.197,0.032,0.343,0.085,0.412     c0.054,0.069,0.174,0.185,0.378,0.185h11.525c0.204,0,0.324-0.116,0.378-0.185s0.136-0.215,0.085-0.412L451.46,255.168z"/>
		</g>
		<line style="fill:none;stroke:#BDBDBD;stroke-miterlimit:10;" x1="420.5" y1="246" x2="420.5" y2="195"/>
		<rect x="313.712" y="265.998" style="fill:#DBDBDB;" width="168.811" height="99.417"/>
		<rect x="318.378" y="269.946" style="fill:#BDBDBD;" width="159.48" height="95.469"/>
		<g>
			<polygon style="fill:#808080;" points="403.564,308.426 409.307,316.321 453.811,316.321 459.923,308.426    "/>
			<rect x="414.997" y="312.927" style="fill:#5C5C5C;" width="34.543" height="3.394"/>
		</g>
		<rect x="370.072" y="295.311" style="fill:#808080;" width="28.353" height="8.586"/>
		<g>
			<rect x="411.004" y="283.686" style="fill:#263238;stroke:#263238;stroke-miterlimit:10;" width="4.193" height="10.264"/>
			<path style="fill:#DBDBDB;" d="M415.589,289.077h-4.976c-2.1,0-3.802,1.702-3.802,3.802v11.972h12.579v-11.972     C419.39,290.779,417.688,289.077,415.589,289.077z"/>
		</g>
		<g>
			<rect x="428.275" y="283.686" style="fill:#263238;stroke:#263238;stroke-miterlimit:10;" width="4.193" height="10.264"/>
			<path style="fill:#DBDBDB;" d="M432.86,289.077h-4.976c-2.099,0-3.801,1.702-3.801,3.802v11.972h12.579v-11.972     C436.662,290.779,434.96,289.077,432.86,289.077z"/>
		</g>
		<g>
			<rect x="445.547" y="283.686" style="fill:#263238;stroke:#263238;stroke-miterlimit:10;" width="4.193" height="10.264"/>
			<path style="fill:#DBDBDB;" d="M450.131,289.077h-4.976c-2.1,0-3.802,1.702-3.802,3.802v11.972h12.579v-11.972     C453.933,290.779,452.231,289.077,450.131,289.077z"/>
		</g>
		<rect x="370.072" y="287.924" style="fill:#A3A3A3;" width="28.353" height="7.388"/>
		<rect x="318.378" y="303.324" style="fill:#DBDBDB;" width="159.48" height="6.46"/>
		<g>
			
				<rect x="365.879" y="333.113" style="fill:#263238;stroke:#263238;stroke-linecap:round;stroke-linejoin:round;stroke-miterlimit:10;" width="11.036" height="33.647"/>
			<g>
				<rect x="345.691" y="316.693" style="fill:#545454;" width="51.413" height="42.53"/>
				<rect x="349.27" y="319.654" style="fill:#FFFFFF;" width="44.254" height="36.609"/>
				<g>
					<polyline style="fill:none;stroke:#828282;stroke-miterlimit:10;" points="358.762,328.4 372.443,338.263 363.216,343.354             "/>
					<polyline style="fill:none;stroke:#828282;stroke-miterlimit:10;" points="379.124,329.036 372.443,338.263 375.624,350.353             "/>
					<line style="fill:none;stroke:#828282;stroke-miterlimit:10;" x1="372.443" y1="338.263" x2="386.76" y2="346.535"/>
					<path style="fill:#92E3A9;" d="M360.034,327.605c0,1.845-1.496,3.341-3.341,3.341c-1.845,0-3.341-1.496-3.341-3.341       s1.496-3.341,3.341-3.341C358.539,324.264,360.034,325.76,360.034,327.605z"/>
					<path style="fill:#92E3A9;" d="M366.557,343.354c0,1.845-1.496,3.341-3.341,3.341c-1.845,0-3.341-1.496-3.341-3.341       s1.496-3.341,3.341-3.341C365.061,340.013,366.557,341.509,366.557,343.354z"/>
					<path style="fill:#92E3A9;" d="M382.465,329.036c0,1.845-1.496,3.341-3.341,3.341c-1.845,0-3.341-1.496-3.341-3.341       s1.496-3.341,3.341-3.341C380.969,325.696,382.465,327.191,382.465,329.036z"/>
					<path style="fill:#92E3A9;" d="M390.101,346.535c0,1.845-1.496,3.341-3.341,3.341c-1.845,0-3.341-1.496-3.341-3.341       s1.496-3.341,3.341-3.341C388.605,343.195,390.101,344.69,390.101,346.535z"/>
					<circle style="fill:#92E3A9;" cx="375.624" cy="350.353" r="3.341"/>
				</g>
			</g>
		</g>
		<g>
			
				<rect x="432.905" y="344.957" style="fill:#263238;stroke:#263238;stroke-linecap:round;stroke-linejoin:round;stroke-miterlimit:10;" width="13.459" height="2.961"/>
			<path style="fill:#C4C4C4;" d="M414.735,366.491v-6.633c0-1.943,0.84-3.79,2.305-5.067l8.193-7.143h29.879l7.786,7.155     c1.385,1.273,2.174,3.068,2.174,4.95v7.815L414.735,366.491z"/>
			<path style="fill:#DBDBDB;" d="M454.305,356.128c0,2.75-6.448,4.98-14.401,4.98c-7.954,0-14.401-2.23-14.401-4.98     c0-2.75,6.448-4.98,14.401-4.98C447.857,351.148,454.305,353.378,454.305,356.128z"/>
		</g>
		<g>
			<rect x="313.712" y="365.415" style="fill:#DBDBDB;" width="169.475" height="67.194"/>
			<line style="fill:none;stroke:#808080;stroke-miterlimit:10;" x1="313.658" y1="400.408" x2="482.434" y2="400.408"/>
			<rect x="430.482" y="365.415" style="fill:#BDBDBD;" width="52.705" height="67.194"/>
			<rect x="310.428" y="365.415" style="fill:#808080;" width="176.044" height="6.46"/>
			<polygon style="fill:#808080;" points="396.566,371.934 399.227,376.842 414.352,376.842 417.023,371.934    "/>
			<polygon style="fill:#808080;" points="396.566,400.198 399.227,405.106 414.352,405.106 417.023,400.198    "/>
			<polygon style="fill:#808080;" points="339.769,371.934 342.43,376.842 357.555,376.842 360.226,371.934    "/>
			<polygon style="fill:#808080;" points="339.769,400.198 342.43,405.106 357.555,405.106 360.226,400.198    "/>
		</g>
		<line style="fill:none;stroke:#BDBDBD;stroke-miterlimit:10;" x1="417.15" y1="212.5" x2="464" y2="212.5"/>
		<line style="fill:none;stroke:#BDBDBD;stroke-width:3;stroke-miterlimit:10;" x1="413" y1="212.5" x2="417.15" y2="212.5"/>
		<line style="fill:none;stroke:#BDBDBD;stroke-miterlimit:10;" x1="447.5" y1="213" x2="447.5" y2="244.5"/>
	</g>
</g>
<g id="Device">
	<g>
		<rect x="78.187" y="307.272" style="fill:#263238;stroke:#263238;stroke-miterlimit:10;" width="8.255" height="9.332"/>
		<rect x="73.88" y="303.683" style="fill:#263238;stroke:#263238;stroke-miterlimit:10;" width="15.792" height="5.742"/>
		<rect x="64.189" y="313.732" style="fill:#FFFFFF;stroke:#263238;stroke-miterlimit:10;" width="35.532" height="94.751"/>
		<circle style="fill:#263238;stroke:#263238;stroke-miterlimit:10;" cx="78.007" cy="341.906" r="9.152"/>
		<polygon style="fill:#FFFFFF;stroke:#263238;stroke-miterlimit:10;" points="152.626,432.609 136.329,412.151 89.313,412.151     73.145,432.609   "/>
		<path style="fill:#FFFFFF;stroke:#263238;stroke-miterlimit:10;" d="M152.197,412.431H87.801c-3.13,0-5.667-2.537-5.667-5.667    v-0.435h75.729v0.435C157.864,409.895,155.327,412.431,152.197,412.431z"/>
		<g>
			
				<rect x="112.571" y="285.857" transform="matrix(0.8378 -0.546 0.546 0.8378 -137.356 112.7447)" style="fill:#FFFFFF;stroke:#263238;stroke-miterlimit:10;" width="17.03" height="3.406"/>
			
				<rect x="123.553" y="275.212" transform="matrix(0.8378 -0.546 0.546 0.8378 -131.7145 117.256)" style="fill:#263238;stroke:#263238;stroke-miterlimit:10;" width="15.894" height="10.218"/>
		</g>
		<rect x="80.34" y="258.819" style="fill:#263238;stroke:#263238;stroke-miterlimit:10;" width="3.23" height="10.408"/>
		<rect x="78.546" y="268.51" style="fill:#FFFFFF;stroke:#263238;stroke-miterlimit:10;" width="6.46" height="20.458"/>
		<rect x="74.239" y="286.814" style="fill:#FFFFFF;stroke:#263238;stroke-miterlimit:10;" width="15.074" height="11.844"/>
		<polygon style="fill:#FFFFFF;stroke:#263238;stroke-miterlimit:10;" points="113.669,281.148 96.499,295.65 58.386,299.011     59.25,308.812 105.241,304.757 120.779,293.162   "/>
	</g>
</g>
<g id="Characters_2">
	<g>
		<path style="fill:#B5B5B5;stroke:#263238;stroke-miterlimit:10;" d="M395.184,167.538l-1.712,17.979c0,0-9.931-0.685-12.842-6.507    c-2.911-5.822-1.61-13.433-1.61-13.433l1.267-6.943c0,0,5.137-2.74,10.445,0.514C396.04,162.401,395.184,167.538,395.184,167.538z    "/>
		<g>
			<path style="fill:#FFFFFF;stroke:#263238;stroke-miterlimit:10;" d="M324.573,225.224l36.4-8.87l18.047-50.776     c0,0,4.282,7.953,7.341,11.623s8.871,7.035,8.871,7.035s-6.118,33.341-8.259,44.046c-2.141,10.706-2.447,12.541-5.2,14.988     c-2.753,2.447-35.788,23.247-35.788,23.247s11.012,20.494,12.235,34.87c1.223,14.376,2.141,31.199,2.141,31.199     s-26.917-42.823-36.705-55.364c-9.788-12.541-13.764-31.505-11.623-41.293C314.174,226.141,324.573,225.224,324.573,225.224z"/>
			<polyline style="fill:none;stroke:#263238;stroke-miterlimit:10;" points="337.509,234.978 345.985,266.517 352.191,229.166         "/>
			<path style="fill:none;stroke:#263238;stroke-miterlimit:10;" d="M361.979,217.237c0,0,9.482,3.365,11.012,14.376"/>
			<path style="fill:none;stroke:#263238;stroke-miterlimit:10;" d="M368.708,217.237c0,0,11.623,2.447,12.235,14.682"/>
			<polyline style="fill:none;stroke:#263238;stroke-miterlimit:10;" points="325.58,237.119 340.874,268.93 337.509,274.742      345.156,280.859 347.297,292.788    "/>
		</g>
		<path style="fill:#263238;stroke:#263238;stroke-miterlimit:10;" d="M270.897,197.785c0,0-18.047,5.812-23.858,17.129    c-5.812,11.318,8.259,31.811,10.4,39.458c2.141,7.647-0.918,10.4-3.671,8.259c-2.753-2.141-5.812,2.141-2.753,7.035    c3.059,4.894,19.882,1.224,25.388-1.529c5.506-2.753,4.282-21.106,1.224-33.035c-3.059-11.929-6.729-25.388-4.894-31.199    C274.568,198.09,270.897,197.785,270.897,197.785z"/>
		<g>
			<path style="fill:#B5B5B5;stroke:#263238;stroke-miterlimit:10;" d="M327.938,172.919c0,0,8.87,10.706,9.482,14.988     c0.612,4.282,0.306,6.729,0.306,6.729s4.282,4.894,5.2,5.506c0.918,0.612,3.976,2.447,2.141,4.894     c-1.835,2.447-4.894,2.447-4.894,2.447s0.306,9.482-0.612,13.765c-0.918,4.282-2.753,5.812-6.118,6.117     c-3.365,0.306-7.647,0.306-7.647,0.306l-3.365,17.129l4.282,22.329l-31.811-34.564c0,0,3.059-12.541,3.059-14.988     c0-2.447-4.588-7.035-0.612-19.882C301.327,184.848,327.938,172.919,327.938,172.919z"/>
			<path style="fill:#263238;stroke:#263238;stroke-miterlimit:10;" d="M297.044,205.648c0,0,5.506,1.835,7.035-2.141     c1.529-3.976-0.918-8.87,6.729-13.153c7.647-4.282,21.105-7.341,23.858-14.376c2.753-7.035-0.306-14.376-4.588-15.294     c-4.282-0.918-9.482,1.529-17.741,1.835c-8.259,0.306-32.47,0.18-40.117,11.804c-7.647,11.623-0.259,32.548,1.882,37.137     c2.141,4.588,2.141,16.517,11.012,17.129c8.87,0.612,14.988-6.117,15.6-11.012C301.327,212.683,297.044,205.648,297.044,205.648z     "/>
			<g style="opacity:0.5;">
				<path style="fill:#FFFFFF;" d="M294.903,201.977l44.046-14.988c0,0,7.953,4.894,2.447,11.317l-22.635,7.341l-23.553-0.612      L294.903,201.977z"/>
				<line style="fill:#FFFFFF;" x1="294.903" y1="201.977" x2="338.95" y2="186.989"/>
				<line style="fill:#FFFFFF;" x1="314.174" y1="196.471" x2="318.762" y2="205.648"/>
			</g>
			<g>
				<path style="fill:none;stroke:#263238;stroke-miterlimit:10;" d="M294.903,201.977l44.046-14.988c0,0,7.953,4.894,2.447,11.317      l-22.635,7.341l-23.553-0.612L294.903,201.977z"/>
				
					<line style="fill:none;stroke:#263238;stroke-width:2;stroke-linecap:round;stroke-miterlimit:10;" x1="294.903" y1="201.977" x2="338.95" y2="186.989"/>
				<line style="fill:none;stroke:#263238;stroke-miterlimit:10;" x1="314.174" y1="196.471" x2="318.762" y2="205.648"/>
			</g>
			<path style="fill:#B5B5B5;stroke:#263238;stroke-miterlimit:10;" d="M302.856,207.789c-0.918,0-8.87-10.706-12.847-7.647     c-3.976,3.059-0.306,14.07,4.588,16.212c4.894,2.141,8.871-3.059,8.871-3.059"/>
			<path style="fill:#263238;" d="M332.526,195.554c0,1.52-0.548,2.753-1.224,2.753c-0.676,0-1.224-1.233-1.224-2.753     c0-1.52,0.548-2.753,1.224-2.753C331.978,192.801,332.526,194.033,332.526,195.554z"/>
		</g>
		<g>
			<path style="fill:#FFFFFF;stroke:#263238;stroke-miterlimit:10;" d="M293.986,228.894c0,0,15.906,13.153,24.776,27.529     c8.87,14.376,31.505,40.07,35.176,48.634c3.671,8.565,6.729,17.435,6.729,24.776c0,7.341,0.612,63.011,0.612,64.234     c0,1.223,0,38.541,0,38.541h-93.904c0,0,5.812-80.446,5.812-97.575c0-17.129-7.341-32.729-1.835-57.199     C276.857,253.365,286.033,239.294,293.986,228.894z"/>
			<polyline style="fill:none;stroke:#263238;stroke-miterlimit:10;" points="287.868,237.765 321.82,284.564 330.385,281.811      329.773,292.211 351.185,303.528    "/>
			<polyline style="fill:none;stroke:#263238;stroke-miterlimit:10;" points="351.996,392.498 302.604,392.498 302.604,400.401      348.045,400.401    "/>
		</g>
		<g>
			<g>
				<path style="fill:#FFFFFF;stroke:#263238;stroke-miterlimit:10;" d="M404.641,202.521h-0.329c-1.186,0-2.147-0.962-2.147-2.148      v-13.406h4.625v13.406C406.789,201.559,405.827,202.521,404.641,202.521z"/>
				<rect x="401.058" y="184.152" style="fill:#FFFFFF;stroke:#263238;stroke-miterlimit:10;" width="6.836" height="4.625"/>
			</g>
			<g>
				<path style="fill:#92E3A9;stroke:#263238;stroke-linecap:round;stroke-linejoin:round;stroke-miterlimit:10;" d="      M427.888,159.49c0,0,2.397,3.767,2.055,5.993c-0.342,2.226-3.596,11.986-4.623,12.157c-1.027,0.171-1.199-1.027-0.856-4.452      c0.342-3.425,0.856-5.65,0.856-6.678C425.32,165.484,426.005,157.436,427.888,159.49z"/>
				<path style="fill:#92E3A9;stroke:#263238;stroke-linecap:round;stroke-linejoin:round;stroke-miterlimit:10;" d="      M381.828,154.867c0,0-3.938,6.849-1.027,10.788c2.911,3.938,9.246,4.281,9.246,4.281s1.027,7.705,2.569,8.904      c1.541,1.199,5.308,6.507,5.822,8.39c0.514,1.883,4.109-0.514,4.109-2.055c0-1.541-2.568-7.705-3.253-9.418      c-0.685-1.712,0.856-6.335,1.37-7.876c0.514-1.541,1.027-2.226,1.027-2.226s4.966,4.794,5.479,7.534      c0.514,2.74-0.856,12.842,0.514,14.041c1.37,1.199,4.966,0.856,5.651-1.199c0.685-2.055,1.884-14.041,1.884-16.096      c0-2.055-3.253-9.075-3.253-9.075s5.308,5.308,5.479,7.192c0.171,1.883-1.37,13.869-0.514,14.212      c0.856,0.342,2.226,0.856,3.425-0.171c1.199-1.027,2.226-3.767,2.226-3.767s3.425-8.048,4.794-11.815      c1.37-3.767,2.568-8.048-0.514-9.589c-3.082-1.541-5.479-2.911-14.212-6.336c-8.733-3.424-21.061-5.993-25.513-2.74      C382.684,151.1,381.828,154.867,381.828,154.867z"/>
				<line style="fill:none;stroke:#263238;stroke-miterlimit:10;" x1="390.047" y1="169.936" x2="389.362" y2="157.607"/>
				<path style="fill:none;stroke:#263238;stroke-miterlimit:10;" d="M389.876,165.484c0,0-6.849-0.171-7.534-8.904"/>
				<path style="fill:none;stroke:#263238;stroke-miterlimit:10;" d="M424.464,173.189c0,0,2.226-6.507,0.342-9.589      c-1.884-3.082-9.075-7.877-9.075-7.877"/>
			</g>
		</g>
		<g>
			<g>
				<path style="fill:#B5B5B5;stroke:#263238;stroke-miterlimit:10;" d="M376.377,275.236c0.603-0.402,11.26-11.662,11.461-12.466      c0.201-0.804,0.402-11.662,1.608-14.075c1.206-2.413,5.228-9.45,5.429-11.662c0.201-2.212,0.201-9.651,0-12.265      c-0.201-2.614,2.413-2.815,4.222-0.402c1.81,2.413,2.212,5.831,2.212,8.847c0,3.016,0.201,5.429,0.603,6.032      c0.402,0.603,3.82,3.619,5.429,4.021c1.609,0.402,11.26-4.423,14.075-5.429c2.815-1.005,4.625-9.249,5.027-10.053      c0.402-0.804,0.603-6.836,0.804-8.244c0.201-1.408,2.815-3.217,3.82,0.201c1.005,3.418,0.603,11.461,0.402,13.673      c-0.201,2.212,0,6.836-1.005,8.043c-1.005,1.206-7.439,6.836-8.043,7.641c-0.603,0.804-3.016,8.646-3.82,9.852      c-0.804,1.206-7.641,3.82-12.265,6.635c-4.625,2.815-9.45,7.238-9.45,7.238s1.408,1.609,0,3.016      c-1.407,1.408-4.021,2.413-4.021,2.413l-4.222,10.053L376.377,275.236z"/>
				<path style="fill:#92E3A9;stroke:#263238;stroke-linecap:round;stroke-linejoin:round;stroke-miterlimit:10;" d="      M418.601,258.95c0.804-1.206,3.217-9.048,3.82-9.852c0.603-0.804,7.037-6.434,8.043-7.641c1.005-1.206,0.804-5.831,1.005-8.043      c0.201-2.212,0.603-10.254-0.402-13.673c-1.005-3.418-3.619-1.609-3.82-0.201c-0.201,1.407-0.402,7.439-0.804,8.244      c-0.402,0.804-2.212,9.048-5.027,10.053c-2.815,1.005-12.466,5.831-14.075,5.429c-1.609-0.402-5.027-3.418-5.429-4.021      c-0.402-0.603-0.603-3.016-0.603-6.032c0-3.016-0.402-6.434-2.212-8.847c-1.81-2.413-4.423-2.212-4.222,0.402      c0.201,2.614,0.201,10.053,0,12.265c-0.201,2.212-4.222,9.249-5.429,11.662c-1.206,2.413-1.408,13.27-1.608,14.075      c-0.104,0.417-3.016,3.641-5.881,6.707l10.731,9.198l0.177-0.422c0,0,2.614-1.005,4.021-2.413c1.408-1.408,0-3.016,0-3.016      s4.826-4.423,9.45-7.238C410.961,262.77,417.797,260.156,418.601,258.95z"/>
				<line style="fill:none;stroke:#263238;stroke-miterlimit:10;" x1="422.422" y1="249.097" x2="415.585" y2="254.124"/>
			</g>
			<g>
				<path style="fill:#FFFFFF;stroke:#263238;stroke-miterlimit:10;" d="M286.951,260.706c0,0,10.4-1.835,16.517,3.059      c6.117,4.894,8.259,14.07,8.565,14.988c0.306,0.918,29.058,27.223,29.058,27.223l36.094-33.341l17.741,17.435      c0,0-22.635,28.753-34.258,39.764s-20.188,16.212-22.329,17.129c-2.141,0.918-4.282,0-6.729-1.529      c-2.447-1.529-53.223-52.611-53.223-52.611"/>
				<path style="fill:none;stroke:#263238;stroke-miterlimit:10;" d="M286.339,282.117c0,0,9.482-8.87,14.376-9.176      c4.894-0.306,8.259,3.671,8.259,3.671"/>
				<path style="fill:none;stroke:#263238;stroke-miterlimit:10;" d="M281.445,274.776c0,0,11.623-7.647,18.353-3.977"/>
				<path style="fill:none;stroke:#263238;stroke-miterlimit:10;" d="M341.091,305.975c0,0-7.953,16.823-6.729,24.776"/>
				<path style="fill:none;stroke:#263238;stroke-miterlimit:10;" d="M339.561,306.893c0,0-8.259,5.2-11.317,14.988"/>
			</g>
			<g>
				<path style="fill:#FFFFFF;stroke:#263238;stroke-miterlimit:10;" d="M415.7,224.035h-0.329c-1.186,0-2.148-0.962-2.148-2.148      v-13.406h4.625v13.406C417.847,223.074,416.886,224.035,415.7,224.035z"/>
				<rect x="412.117" y="205.667" style="fill:#FFFFFF;stroke:#263238;stroke-miterlimit:10;" width="6.836" height="4.624"/>
			</g>
			<g>
				<path style="fill:#FFFFFF;stroke:#263238;stroke-miterlimit:10;" d="M424.346,224.035h-0.329c-1.186,0-2.148-0.962-2.148-2.148      v-13.406h4.625v13.406C426.493,223.074,425.532,224.035,424.346,224.035z"/>
				<rect x="420.763" y="205.667" style="fill:#FFFFFF;stroke:#263238;stroke-miterlimit:10;" width="6.836" height="4.624"/>
			</g>
			<rect x="400.103" y="215.519" style="fill:#263238;stroke:#263238;stroke-miterlimit:10;" width="29.356" height="15.08"/>
		</g>
	</g>
</g>
<g id="Character_1">
	<g>
		<g>
			<path style="fill:#FFFFFF;stroke:#263238;stroke-miterlimit:10;" d="M132.551,250.528c0,0-0.351,11.594,2.108,16.161     c2.459,4.567,6.675,6.324,7.027,10.189c0.351,3.865-1.405,9.135,1.054,10.54s20.026,18.972,25.647,18.621     c5.621-0.351,11.594-8.432,11.594-8.432l12.648,8.081l16.864-34.782l-11.243-10.188c0,0-4.567-27.404-10.891-35.133     c-6.324-7.729-29.863-9.837-41.808-4.216c-11.945,5.621-16.161,18.269-18.972,20.728c-2.811,2.459-8.783,4.919-5.621,9.486     C124.119,256.15,132.551,250.528,132.551,250.528z"/>
			<path style="fill:#263238;stroke:#263238;stroke-miterlimit:10;" d="M195.088,267.744c1.34-1.042,2.678-3.724,3.777-6.469     l-0.616-0.558c0,0-4.567-27.404-10.891-35.133c-6.324-7.729-29.863-9.837-41.808-4.216     c-11.945,5.621-16.161,18.269-18.972,20.729c-2.811,2.459-8.783,4.919-5.621,9.486c2.949,4.26,10.475-0.339,11.477-0.979     l0.117-0.075c0,0,5.621-1.757,9.486-3.865c3.865-2.108,8.081-5.621,8.081-5.621s-7.378,12.297-4.567,16.161     c2.811,3.865,11.243,2.108,11.243,2.108s5.621,7.378,9.135,5.621c3.513-1.757-1.405-8.432,3.865-10.891     c5.27-2.459,9.486,8.081,9.486,9.837C179.278,265.636,191.926,270.203,195.088,267.744z"/>
			<path style="fill:#92E3A9;stroke:#263238;stroke-linecap:round;stroke-linejoin:round;stroke-miterlimit:10;" d="     M198.924,261.328l-24.565,28.549c0,0-5.973-0.703-10.189-3.865c-4.216-3.162-7.729-10.891-7.729-10.891     s17.918-19.674,27.052-25.296c7.973-4.907,10.592-5.798,11.129-5.945c-0.311-1.192-0.638-2.392-0.983-3.584     c-1.909,0.843-7.509,3.653-16.47,10.934c-9.793,7.957-30.508,28.701-35.689,33.921c0.14,1.022,0.497,1.83,1.259,2.266     c2.459,1.405,20.026,18.972,25.647,18.621c1.106-0.069,2.223-0.444,3.308-0.991c1.073-4.375,2.922-11.018,4.421-13.765     c1.82-3.337,19.862-22.894,24.764-28.182L198.924,261.328z"/>
			<path style="fill:#FFFFFF;stroke:#263238;stroke-miterlimit:10;" d="M167.684,265.987c0,0-3.162-11.243,1.054-13.351     c4.216-2.108,9.486,2.459,10.188,7.378c0.703,4.919-1.757,10.891-1.757,10.891s2.459,4.919,1.405,10.189"/>
			<path style="fill:#263238;" d="M149.609,274.69c0.698,1.356,0.694,2.749-0.009,3.111s-1.839-0.444-2.537-1.8     c-0.698-1.356-0.694-2.749,0.009-3.111C147.775,272.528,148.911,273.334,149.609,274.69z"/>
			<path style="fill:none;stroke:#263238;stroke-miterlimit:10;" d="M140.528,268.158c0,0,0.409-4.91,6.342-3.887"/>
		</g>
		<g>
			<polygon style="fill:#FFFFFF;stroke:#263238;stroke-miterlimit:10;" points="208.829,266.794 182.27,309.145 192.678,316.682      217.083,270.742    "/>
			<g>
				<path style="fill:#FFFFFF;stroke:#263238;stroke-miterlimit:10;" d="M215.289,271.46c0,0-20.458,35.532-24.406,43.428      c-3.948,7.896-15.433,27.277-16.151,38.762c-0.718,11.485-4.307,78.96-4.307,78.96h82.548c0,0,6.101-51.324,5.742-71.064      c-0.359-19.74-5.384-48.811-20.458-68.551C223.185,273.254,215.289,271.46,215.289,271.46z"/>
				<path style="fill:none;stroke:#263238;stroke-miterlimit:10;" d="M222.467,276.843c0,0-12.203,22.97-20.458,36.25      c-8.255,13.28-19.022,27.636-21.893,35.891c-2.871,8.255-2.871,11.844-2.871,11.844"/>
			</g>
		</g>
		<g>
			<path style="fill:#92E3A9;stroke:#263238;stroke-linecap:round;stroke-linejoin:round;stroke-miterlimit:10;" d="M116.59,367.288     l-9.691-7.178c0,0-4.666-11.844-7.537-15.074c-2.871-3.23-6.819-2.512-9.332-5.384c-2.512-2.871-5.384-9.332-6.819-10.049     c-1.436-0.718-4.666,1.077-4.666,3.948c0,2.871,3.23,7.537,3.23,8.614c0,1.077,0,1.077,0,1.077s-12.203-3.589-13.639-2.512     s-2.871,4.666-1.795,6.46c1.077,1.795,3.23,2.512,3.23,3.948s-2.512,6.101-1.077,7.896c1.436,1.795,3.589,2.871,3.589,2.871     s0,6.819,2.153,9.69c2.153,2.871,18.663,5.025,23.688,5.742s19.74,7.896,19.74,7.896L116.59,367.288z"/>
			<g>
				<path style="fill:#FFFFFF;stroke:#263238;stroke-miterlimit:10;" d="M211.7,305.556c0,0-15.433,7.537-21.175,27.277      c-5.743,19.74-9.332,40.198-9.332,40.198s-3.589-0.718-3.589,1.436c0,2.153-0.359,3.23-0.359,3.23l-62.45-11.844l-1.436,29.43      c0,0,81.113,15.074,85.42,15.074s8.973-1.436,10.408-5.025c1.436-3.589,24.765-55.989,24.765-55.989"/>
				<path style="fill:none;stroke:#263238;stroke-miterlimit:10;" d="M218.878,322.066c0,0,12.203,6.819,14.356,16.151"/>
				<path style="fill:none;stroke:#263238;stroke-miterlimit:10;" d="M210.264,332.474c1.077,0,19.381,1.436,23.329,11.844"/>
				<path style="fill:none;stroke:#263238;stroke-miterlimit:10;" d="M227.133,364.417c0,0,13.997-6.46,18.304-20.458"/>
				<path style="fill:none;stroke:#263238;stroke-miterlimit:10;" d="M180.475,378.055c0,0,7.178,13.28,6.819,22.611"/>
				<path style="fill:none;stroke:#263238;stroke-miterlimit:10;" d="M184.782,375.902c0,0,7.178,1.436,12.203,11.126"/>
			</g>
		</g>
	</g>
	<path style="fill:#263238;stroke:#263238;stroke-miterlimit:10;" d="M281.286,362.263h-12.921c-2.379,0-4.693,1.928-5.168,4.307   l-13.351,66.039h21.534l13.351-66.039C285.207,364.191,283.664,362.263,281.286,362.263z"/>
</g>
<g id="Bottles">
	<line style="fill:none;stroke:#263238;stroke-miterlimit:10;" x1="8.299" y1="432.609" x2="495.27" y2="432.609"/>
	<g>
		<g>
			<g>
				<path style="fill:#FFFFFF;stroke:#263238;stroke-linecap:round;stroke-linejoin:round;stroke-miterlimit:10;" d="      M38.257,430.374h-0.619c-2.227,0-4.032-1.805-4.032-4.032v-40.646h8.684v40.646C42.29,428.569,40.484,430.374,38.257,430.374z"/>
				<path style="fill:#92E3A9;stroke:#263238;stroke-linecap:round;stroke-linejoin:round;stroke-miterlimit:10;" d="      M33.606,402.174v23.858c0,2.398,1.944,4.342,4.342,4.342c2.398,0,4.342-1.944,4.342-4.342v-23.858H33.606z"/>
			</g>
			
				<rect x="32.074" y="384.419" style="fill:#FFFFFF;stroke:#263238;stroke-linecap:round;stroke-linejoin:round;stroke-miterlimit:10;" width="11.748" height="8.173"/>
		</g>
		<g>
			<g>
				<path style="fill:#FFFFFF;stroke:#263238;stroke-linecap:round;stroke-linejoin:round;stroke-miterlimit:10;" d="      M54.836,430.374L54.836,430.374c-2.398,0-4.342-1.944-4.342-4.342v-40.336h8.683v40.336      C59.177,428.43,57.234,430.374,54.836,430.374z"/>
				<path style="fill:#92E3A9;stroke:#263238;stroke-linecap:round;stroke-linejoin:round;stroke-miterlimit:10;" d="      M50.494,402.174v23.858c0,2.398,1.944,4.342,4.342,4.342s4.342-1.944,4.342-4.342v-23.858H50.494z"/>
			</g>
			
				<rect x="48.962" y="384.419" style="fill:#FFFFFF;stroke:#263238;stroke-linecap:round;stroke-linejoin:round;stroke-miterlimit:10;" width="11.748" height="8.173"/>
		</g>
		<g>
			<g>
				<path style="fill:#FFFFFF;stroke:#263238;stroke-linecap:round;stroke-linejoin:round;stroke-miterlimit:10;" d="      M71.724,430.374L71.724,430.374c-2.398,0-4.342-1.944-4.342-4.342v-40.336h8.683v40.336      C76.065,428.43,74.121,430.374,71.724,430.374z"/>
				<path style="fill:#92E3A9;stroke:#263238;stroke-linecap:round;stroke-linejoin:round;stroke-miterlimit:10;" d="      M67.382,402.174v23.858c0,2.398,1.944,4.342,4.342,4.342l0,0c2.398,0,4.342-1.944,4.342-4.342v-23.858H67.382z"/>
			</g>
			
				<rect x="65.85" y="384.419" style="fill:#FFFFFF;stroke:#263238;stroke-linecap:round;stroke-linejoin:round;stroke-miterlimit:10;" width="11.748" height="8.173"/>
		</g>
		<g>
			<g>
				<path style="fill:#FFFFFF;stroke:#263238;stroke-linecap:round;stroke-linejoin:round;stroke-miterlimit:10;" d="      M88.612,430.374L88.612,430.374c-2.398,0-4.342-1.944-4.342-4.342v-40.336h8.683v40.336      C92.953,428.43,91.009,430.374,88.612,430.374z"/>
				<path style="fill:#92E3A9;stroke:#263238;stroke-linecap:round;stroke-linejoin:round;stroke-miterlimit:10;" d="M84.27,402.174      v23.858c0,2.398,1.944,4.342,4.342,4.342c2.398,0,4.342-1.944,4.342-4.342v-23.858H84.27z"/>
			</g>
			
				<rect x="82.737" y="384.419" style="fill:#FFFFFF;stroke:#263238;stroke-linecap:round;stroke-linejoin:round;stroke-miterlimit:10;" width="11.748" height="8.173"/>
		</g>
		<polygon style="fill:#FFFFFF;stroke:#263238;stroke-linecap:round;stroke-linejoin:round;stroke-miterlimit:10;" points="    101.828,396.997 26.2,396.997 26.2,399.567 101.828,399.567 101.828,426.368 22.528,426.368 22.528,432.609 106.968,432.609     106.968,431.14 106.968,426.368 106.968,399.567 106.968,396.997   "/>
	</g>
	<g>
		<path style="fill:#FFFFFF;stroke:#263238;stroke-miterlimit:10;" d="M385.349,427.519l-9.89-38.411v-10.5h-14v10.5l-9.89,38.411    c-0.664,2.578,1.283,5.089,3.945,5.089h25.889C384.066,432.609,386.013,430.097,385.349,427.519z"/>
		<path style="fill:#92E3A9;" d="M377.254,408.109h-17.588l-5.19,20.158c-0.114,0.443,0.071,0.771,0.191,0.926    c0.121,0.155,0.391,0.416,0.848,0.416h25.89c0.457,0,0.727-0.261,0.848-0.416s0.306-0.482,0.191-0.926L377.254,408.109z"/>
	</g>
	<g>
		<path style="fill:#FFFFFF;stroke:#263238;stroke-miterlimit:10;" d="M413.835,396.29v-22.181h-13v22.181    c-7.146,2.646-12.25,9.502-12.25,17.569c0,10.355,8.395,18.75,18.75,18.75c10.355,0,18.75-8.395,18.75-18.75    C426.085,405.792,420.981,398.936,413.835,396.29z"/>
		<g>
			<path style="fill:#92E3A9;" d="M391.278,409.109c-0.445,1.507-0.694,3.099-0.694,4.75c0,9.251,7.499,16.75,16.75,16.75     s16.75-7.499,16.75-16.75c0-1.651-0.248-3.243-0.694-4.75H391.278z"/>
		</g>
	</g>
	<g>
		<path style="fill:#FFFFFF;stroke:#263238;stroke-miterlimit:10;" d="M452.375,408.638v-40.64h-8.58v40.64    c-4.717,1.746-8.085,6.272-8.085,11.595c0,6.835,5.54,12.375,12.375,12.375c6.835,0,12.375-5.54,12.375-12.375    C460.46,414.91,457.091,410.385,452.375,408.638z"/>
		<g>
			<path style="fill:#92E3A9;" d="M437.488,417.099c-0.294,0.995-0.458,2.045-0.458,3.135c0,6.105,4.949,11.055,11.055,11.055     c6.106,0,11.055-4.949,11.055-11.055c0-1.09-0.164-2.14-0.458-3.135H437.488z"/>
		</g>
	</g>
</g>
</svg>