<?xml version="1.0" encoding="utf-8"?>
<!-- Generator: Adobe Illustrator 27.5.0, SVG Export Plug-In . SVG Version: 6.00 Build 0)  -->
<svg version="1.1" xmlns="http://www.w3.org/2000/svg" xmlns:xlink="http://www.w3.org/1999/xlink" x="0px" y="0px"
	 viewBox="0 0 500 500" style="enable-background:new 0 0 500 500;" xml:space="preserve">
<g id="BACKGROUND">
	<rect style="fill:#FEFEFE;" width="500" height="500"/>
</g>
<g id="OBJECTS">
	<g>
		<path style="fill:#F2F6FF;" d="M403.038,132.763v-27.215l-16.513-2.8c-0.856-2.631-1.911-5.172-3.15-7.604l9.696-13.657
			l-19.244-19.244l-13.657,9.696c-2.432-1.239-4.973-2.293-7.604-3.15l-2.8-16.513h-13.608h-13.608l-2.8,16.513
			c-2.631,0.856-5.172,1.911-7.603,3.15l-13.657-9.696l-19.244,19.244l9.696,13.657c-1.239,2.432-2.293,4.973-3.15,7.604
			l-16.513,2.8v27.215l16.513,2.8c0.857,2.631,1.911,5.172,3.15,7.604l-9.696,13.657l19.244,19.244l13.657-9.696
			c2.432,1.239,4.973,2.293,7.603,3.15l2.8,16.513h13.608h13.608l2.8-16.513c2.631-0.856,5.172-1.911,7.604-3.15l13.657,9.696
			l19.244-19.244l-9.696-13.657c1.239-2.432,2.293-4.973,3.15-7.604L403.038,132.763z M336.159,160.482
			c-22.824,0-41.327-18.503-41.327-41.327c0-22.824,18.502-41.327,41.327-41.327c22.824,0,41.327,18.503,41.327,41.327
			C377.486,141.979,358.983,160.482,336.159,160.482z"/>
		<path style="fill:#D6E2FF;" d="M336.159,154.743c-19.655,0-35.588-15.933-35.588-35.588s15.933-35.588,35.588-35.588
			c19.655,0,35.588,15.933,35.588,35.588S355.814,154.743,336.159,154.743z"/>
		<polyline style="fill:none;stroke:#FEFEFE;stroke-width:5;stroke-miterlimit:10;" points="325.147,119.484 332.27,126.606 
			347.171,111.704 		"/>
	</g>
	<g>
		<g>
			<path style="fill:#EBF1FF;" d="M111.971,393.759h60.281c57.337,0,103.817-46.48,103.817-103.817v0
				c0-57.336-46.48-103.817-103.817-103.817h-60.281c-57.336,0-103.817,46.48-103.817,103.817v0
				C8.154,347.279,54.634,393.759,111.971,393.759z"/>
			<polygon style="fill:#EBF1FF;" points="272.293,394.625 259.162,364.12 246.032,333.616 228.658,350.99 211.283,368.364 
				241.788,381.494 			"/>
		</g>
	</g>
	<g>
		<g>
			<rect x="170.751" y="82.412" style="fill:none;stroke:#EBF1FF;stroke-miterlimit:10;" width="20.841" height="20.841"/>
			<g>
				<rect x="201.572" y="87.352" style="fill:#C1CCFF;" width="28.723" height="2.785"/>
				<rect x="201.572" y="95.529" style="fill:#C1CCFF;" width="11.506" height="2.785"/>
				<rect x="216.139" y="95.529" style="fill:#C1CCFF;" width="19.058" height="2.785"/>
				<rect x="235.196" y="87.352" style="fill:#C1CCFF;" width="11.979" height="2.785"/>
			</g>
			<path style="fill:none;stroke:#F2727C;stroke-width:3;stroke-miterlimit:10;" d="M174.386,89.878
				c2.23,1.377,4.46,2.755,6.69,4.132c3.375-6.205,7.822-12.027,12.844-16.994"/>
			<rect x="170.751" y="117.313" style="fill:none;stroke:#EBF1FF;stroke-miterlimit:10;" width="20.841" height="20.841"/>
			<g>
				<rect x="201.572" y="122.253" style="fill:#C1CCFF;" width="28.723" height="2.785"/>
				<rect x="201.572" y="130.429" style="fill:#C1CCFF;" width="11.506" height="2.785"/>
				<rect x="216.139" y="130.429" style="fill:#C1CCFF;" width="19.058" height="2.785"/>
				<rect x="235.196" y="122.253" style="fill:#C1CCFF;" width="11.979" height="2.785"/>
			</g>
			<path style="fill:none;stroke:#F2727C;stroke-width:3;stroke-miterlimit:10;" d="M174.386,124.778
				c2.23,1.377,4.46,2.755,6.69,4.132c3.375-6.205,7.822-12.027,12.844-16.994"/>
			<rect x="170.751" y="152.214" style="fill:none;stroke:#EBF1FF;stroke-miterlimit:10;" width="20.841" height="20.841"/>
			<g>
				<rect x="201.572" y="157.153" style="fill:#C1CCFF;" width="28.723" height="2.785"/>
				<rect x="201.572" y="165.33" style="fill:#C1CCFF;" width="11.506" height="2.785"/>
				<rect x="216.139" y="165.33" style="fill:#C1CCFF;" width="19.058" height="2.785"/>
				<rect x="235.196" y="157.153" style="fill:#C1CCFF;" width="11.979" height="2.785"/>
			</g>
			<path style="fill:none;stroke:#F2727C;stroke-width:3;stroke-miterlimit:10;" d="M174.386,159.679
				c2.23,1.377,4.46,2.755,6.69,4.132c3.375-6.205,7.822-12.027,12.844-16.994"/>
		</g>
		<polyline style="fill:none;stroke:#382B71;stroke-width:0.75;stroke-miterlimit:10;" points="161.244,182.735 161.244,55.902 
			254.134,55.902 254.134,189.112 184.37,189.112 		"/>
		<g>
			<text transform="matrix(1 0 0 1 187.635 72.0094)" style="fill:#382B71; font-family:'Montserrat-Bold'; font-size:10.5661px;">ETHICS</text>
		</g>
		<g>
			<path style="fill:#382B71;" d="M228.077,58.869H187.3c-1.74,0-3.15-1.41-3.15-3.15v-3.985c0-1.74,1.41-3.15,3.15-3.15h40.777
				c1.74,0,3.15,1.41,3.15,3.15v3.985C231.227,57.459,229.817,58.869,228.077,58.869z"/>
			<path style="fill:#382B71;" d="M207.689,39.484c-3.933,0-7.121,3.188-7.121,7.121v7.121h14.242v-7.121
				C214.81,42.673,211.621,39.484,207.689,39.484z M207.689,48.583c-1.529,0-2.769-1.24-2.769-2.769c0-1.529,1.24-2.769,2.769-2.769
				s2.769,1.24,2.769,2.769C210.458,47.343,209.218,48.583,207.689,48.583z"/>
		</g>
	</g>
	<g>
		<g>
			<g>
				
					<ellipse transform="matrix(0.1581 -0.9874 0.9874 0.1581 16.9355 437.4172)" style="fill:none;stroke:#D6E2FF;stroke-width:0.5;stroke-miterlimit:10;" cx="264.979" cy="208.777" rx="42.373" ry="42.372"/>
			</g>
			<g>
				
					<ellipse style="fill:none;stroke:#D6E2FF;stroke-width:0.5;stroke-miterlimit:10;" cx="264.979" cy="208.777" rx="27.246" ry="42.373"/>
			</g>
			<path style="fill:none;stroke:#D6E2FF;stroke-width:0.5;stroke-miterlimit:10;" d="M299.761,184.576
				c-9.91,3.04-21.885,4.817-34.782,4.817c-12.898,0-24.873-1.777-34.783-4.817"/>
			<path style="fill:none;stroke:#D6E2FF;stroke-width:0.5;stroke-miterlimit:10;" d="M230.197,232.979
				c9.91-3.04,21.885-4.817,34.783-4.817c12.806,0,24.702,1.752,34.571,4.752"/>
			
				<line style="fill:none;stroke:#D6E2FF;stroke-width:0.5;stroke-miterlimit:10;" x1="307.352" y1="208.777" x2="222.607" y2="208.777"/>
			
				<line style="fill:none;stroke:#D6E2FF;stroke-width:0.5;stroke-miterlimit:10;" x1="264.979" y1="166.405" x2="264.979" y2="251.15"/>
		</g>
	</g>
	<path style="fill:#93A6FF;" d="M283.022,212.339v-7.342l-4.455-0.756c-0.231-0.71-0.516-1.395-0.85-2.051l2.616-3.685l-5.192-5.192
		l-3.684,2.616c-0.656-0.334-1.342-0.619-2.051-0.85l-0.755-4.455h-3.671h-3.671l-0.755,4.455c-0.71,0.231-1.395,0.515-2.051,0.85
		l-3.684-2.616l-5.192,5.192l2.616,3.685c-0.334,0.656-0.619,1.342-0.85,2.051l-4.455,0.756v7.342l4.455,0.756
		c0.231,0.71,0.515,1.395,0.85,2.051l-2.616,3.684l5.192,5.192l3.684-2.616c0.656,0.334,1.342,0.619,2.051,0.85l0.755,4.455h3.671
		h3.671l0.755-4.455c0.71-0.231,1.395-0.516,2.051-0.85l3.684,2.616l5.192-5.192l-2.616-3.684c0.334-0.656,0.619-1.342,0.85-2.051
		L283.022,212.339z M264.979,216.039c-4.071,0-7.371-3.3-7.371-7.371c0-4.071,3.3-7.371,7.371-7.371c4.071,0,7.371,3.3,7.371,7.371
		C272.35,212.739,269.05,216.039,264.979,216.039z"/>
	<g>
		<g>
			<path style="fill:#DBE3FF;" d="M353.313,394.403h50.89c48.404,0,87.643-39.239,87.643-87.643v0
				c0-48.404-39.239-87.643-87.643-87.643h-50.89c-48.404,0-87.643,39.239-87.643,87.643v0
				C265.671,355.164,304.91,394.403,353.313,394.403z"/>
			<polygon style="fill:#DBE3FF;" points="278.645,406.395 327.655,377.181 310.908,364.335 294.161,351.489 			"/>
		</g>
	</g>
	<g>
		<g>
			<defs>
				<path id="SVGID_1_" d="M353.071,394.403h50.89c48.404,0,87.643-39.239,87.643-87.643v0c0-48.404-39.239-87.643-87.643-87.643
					h-50.89c-48.404,0-87.643,39.239-87.643,87.643v0C265.428,355.164,304.667,394.403,353.071,394.403z"/>
			</defs>
			<clipPath id="SVGID_00000055693350179067226360000002296048678689840780_">
				<use xlink:href="#SVGID_1_"  style="overflow:visible;"/>
			</clipPath>
			<g style="clip-path:url(#SVGID_00000055693350179067226360000002296048678689840780_);">
				<polygon style="fill:#6975ED;" points="394.892,302.184 412.083,393.988 460.271,393.988 441.073,302.184 				"/>
				<polygon style="fill:#6975ED;" points="360.205,302.184 369.078,393.988 422.538,393.988 407.377,302.184 				"/>
				
					<line style="opacity:0.2;fill:none;stroke:#FFFFFF;stroke-miterlimit:10;" x1="401.933" y1="343.144" x2="405.843" y2="393.988"/>
				<path style="fill:#0C0A0B;" d="M416.793,393.988l-6.615-49.934c0,0-8.986-6.032-15.286-10.818
					C394.892,333.236,398.389,370.608,416.793,393.988z"/>
				
					<line style="opacity:0.2;fill:none;stroke:#FFFFFF;stroke-miterlimit:10;" x1="432.467" y1="302.184" x2="450.341" y2="393.988"/>
				
					<line style="fill:none;stroke:#0C0A0B;stroke-width:0.75;stroke-miterlimit:10;" x1="360.793" y1="308.263" x2="442.344" y2="308.263"/>
				<path style="fill:none;stroke:#0C0A0B;stroke-width:0.75;stroke-miterlimit:10;" d="M378.515,302.184
					c0,0,5.636,20.024,14.734,25.651l-4.709-25.651"/>
				
					<line style="fill:none;stroke:#0C0A0B;stroke-width:0.75;stroke-miterlimit:10;" x1="416.793" y1="302.184" x2="418.566" y2="312.279"/>
				
					<line style="fill:none;stroke:#0C0A0B;stroke-width:0.75;stroke-miterlimit:10;" x1="365.75" y1="302.184" x2="367.522" y2="312.279"/>
			</g>
		</g>
		<g>
			<path style="fill:#0C0A0B;" d="M349.143,147.359c0,0-10.947-7.549-12.594-15.69c-0.975-4.82,7.127-12.562,7.127-12.562
				s-3.667-8.756-2.56-10.188c1.106-1.432,18.181,3.285,18.181,3.285s1.073-4.767,2.594-5.34c1.52-0.573,17.327,8.066,17.327,8.066
				s0.519-4.801,1.433-4.912c0.914-0.11,2.055,5.627,2.055,5.627s6.349-3.609,8.085-2.836c1.735,0.773-4.476,6.058-4.476,6.058
				s6.236,0.717,6.554,2.236c0.318,1.52-3.043,27.089-3.043,27.089L349.143,147.359z"/>
			<path style="fill:#0C0A0B;" d="M316.795,290.9c0,0,18.639,8.618,38.729,2.379C355.524,293.279,340.393,280.858,316.795,290.9z"/>
			<path style="fill:#FFA1A8;" d="M329.04,358.286l15.273,0.019l7.881-76.395c0,0-11.15-13.75-16.238-14.431
				c0,0-6.434,3.762-7.795,9.138C326.8,281.993,329.04,358.286,329.04,358.286z"/>
			<path style="fill:#382B71;" d="M341.27,184.618c-12.067,1.618-18.284,96.216-18.284,96.216l32.342,4.836
				C355.327,285.67,351.611,183.231,341.27,184.618z"/>
			<path style="fill:#C1CCFF;" d="M355.524,293.279c0,0,5.167-5.035,0.379-9.694c-4.723-4.595-30.966-4.604-30.966-4.604
				s-8.022,0.488-5.642,6.559c0,0-3.892,1.116-2.5,5.359C316.795,290.9,339.677,283.1,355.524,293.279z"/>
			<path style="fill:#382B71;" d="M441.316,302.184h-80.868c0,0-10.805-9.127-10.219-14.73c0.854-8.167-1.148-61.234-8.959-102.836
				c-0.431-2.296,25.25-2.966,25.25-2.966l19.46,1.066c9.291,1.613,25.669,6.399,31.368,14.497
				c4.021,5.713,15.803,60.022,22.644,88.916c0,0,5.533,5.324,6.62,9.116C447.699,299.039,441.316,302.184,441.316,302.184z"/>
			<path style="fill:none;stroke:#0C0A0B;stroke-width:0.75;stroke-miterlimit:10;" d="M344.385,203.8
				c0,0,5.038,40.893,5.528,60.208"/>
			<path style="fill:none;stroke:#0C0A0B;stroke-width:0.75;stroke-miterlimit:10;" d="M361.714,181.83
				c0,0,1.733,26.847,17.851,38.315"/>
			<path style="fill:#0C0A0B;" d="M410.44,267.581c11.243-18.218,4.697-33.667,4.697-33.667l-7.518,30.094L410.44,267.581z"/>
			<path style="fill:#FFA1A8;" d="M313.135,254.464c0,0-14.41-3.915-18.085-3.833c-3.675,0.082-6.916,4.301-6.916,4.301
				s-10.777,11.01-11.673,12.72c-2.628,5.017,2.264,2.722,2.264,2.722s-0.994,2.696,1.997,2.889
				c2.565,0.165,3.707,0.167,3.707,0.167s-0.331,1.298,1.986,2.125c2.317,0.827,17.211,2.087,25.155-6.519L313.135,254.464z"/>
			<path style="fill:#382B71;" d="M402.07,195.196c-5.981-0.983-18.885,55.435-18.885,55.435s18.388,15.364,21.367,22.039
				C404.552,272.67,432.794,200.245,402.07,195.196z"/>
			<path style="fill:#0C0A0B;" d="M376.477,250.63c0,0,7.057,22.811,29.234,25.514C405.711,276.145,397.885,252.202,376.477,250.63z
				"/>
			<path style="fill:#FFA1A8;" d="M311.57,269.036l1.565-14.571l77.959-2.675c0,0,12.901,12.122,13.21,17.246
				c0,0-4.22,6.144-9.682,7.109C389.161,277.111,311.57,269.036,311.57,269.036z"/>
			<path style="fill:#C1CCFF;" d="M376.477,250.63c0,0-0.14-7.213,6.541-7.165c6.59,0.048,25.272,18.477,25.272,18.477
				s5.366,5.983-0.592,8.632c0,0,1.986,3.529-1.986,5.57C405.711,276.145,394.906,254.519,376.477,250.63z"/>
			<path style="fill:none;stroke:#0C0A0B;stroke-width:0.75;stroke-miterlimit:10;" d="M384.559,243.737
				c0,0,12.115-41.952,14.321-46.911c1.311-2.947,5.424-2.603,6.831-1.643"/>
			<path style="fill:none;stroke:#0C0A0B;stroke-width:0.75;stroke-miterlimit:10;" d="M425.428,280.834
				c0,0,10.592,0.83,14.564,5.296"/>
			<path style="fill:#9B646A;" d="M376.392,401.756l4.392,50.786c0,0-49.068,17.081-87.447,1.243l-0.441-48.385L376.392,401.756z"/>
			<path style="fill:#0C0A0B;" d="M378.311,423.509l0.337,4.341c0,0-35.365,12.435-42.786,12.368
				c-7.421-0.066-42.728-8.683-42.728-8.683l-0.062-6.845L378.311,423.509z"/>
			<polygon style="fill:#A0606E;" points="348.683,369.592 311.477,372.06 305.285,391.369 311.851,393.07 314.166,377.129 
				344.861,374.135 352.269,392.536 359.317,391.726 			"/>
			<path style="fill:#A0606E;" d="M378.311,423.509l-3.076-34.866l-81.982,1.121l-0.181,34.927c0,0,29.619,12.42,43.24,11.578
				C349.934,435.426,378.311,423.509,378.311,423.509z"/>
			<path style="fill:#FBCA8C;" d="M342.508,431.157l0.813,9.558c0,0-5.12,4.441-10.131,0.909l-0.73-10.119L342.508,431.157z"/>
			<polygon style="fill:#0C0A0B;" points="293.253,389.763 287.428,392.172 284.341,450.444 293.338,453.785 			"/>
			<path style="fill:#FFA1A8;" d="M329.04,358.286c0,0-4.747,7.397-5.338,8.35c-0.591,0.953,3.311,11.3,5.505,11.587
				c2.193,0.287,2.438-7.5,2.438-7.5l10.67-0.708c0,0,4.349-5.6,2-11.71L329.04,358.286z"/>
			<path style="fill:#FFA1A8;" d="M331.645,370.722c0,0,1.24-2.167,2.863-2.823c1.623-0.656,3.03,2.432,3.03,2.432
				s0.262-3.022,1.107-2.885s2.167,1.776,2.167,1.776s0.84-1.882,1.693-1.403c0.854,0.479,1.027,8.897-0.277,9.166
				c-1.304,0.269-3.095-1.054-3.095-1.054s-0.855,1.478-2.011,1.557c-1.156,0.079-1.817-1.353-1.817-1.353s-2.252,2.259-2.961,1.806
				C331.634,377.488,329.946,372.796,331.645,370.722z"/>
			<path style="fill:none;stroke:#0C0A0B;stroke-width:0.75;stroke-miterlimit:10;" d="M334.141,364.11c0,0-1.775,4.053-3.676,4.874
				c0,0,1.591,3.635,0.673,6.16"/>
			<path style="fill:none;stroke:#0C0A0B;stroke-width:0.75;stroke-miterlimit:10;" d="M332.367,367.212
				c0,0,3.324,0.217,3.135,2.138"/>
			<path style="fill:none;stroke:#0C0A0B;stroke-width:0.75;stroke-miterlimit:10;" d="M335.292,369.756
				c0,0,1.046-2.721,2.138-3.034c1.092-0.313,1.692,2.663,1.692,2.663"/>
			<path style="fill:none;stroke:#0C0A0B;stroke-width:0.75;stroke-miterlimit:10;" d="M338.944,368.685c0,0,0.836-2.17,2.008-2.304
				c1.172-0.134,1.873,1.75,1.994,2.666"/>
			<path style="fill:none;stroke:#0C0A0B;stroke-width:0.75;stroke-miterlimit:10;" d="M391.614,183.365
				c0,0-5.089,30.195-15.137,40.869"/>
			<g>
				<g>
					<path style="fill:#93A6FF;" d="M366.665,182.282c0,0,0.214,15.845,12.094,30.699c0,0,6.21-18.814,7.222-30.263l-9.644,0.556
						L366.665,182.282z"/>
					<path style="fill:#FF848E;" d="M385.981,182.718l-1.699-34.832l-17.52,1.91l-0.097,32.486c0,0,1.43,6.536,9.658,6.536
						S385.981,182.718,385.981,182.718z"/>
					<g>
						<g>
							<path style="fill:#0C0A0B;" d="M366.684,175.743l0.019-6.336c0,0,7.769-0.155,13.835-8.774
								C380.538,160.633,378.31,174.337,366.684,175.743z"/>
						</g>
					</g>
				</g>
			</g>
			<g>
				<g>
					<path style="fill:#FF848E;" d="M346.259,148.059c0.062,1.421,0.215,2.827,0.474,4.219c0.431,2.331,1.15,4.603,2.158,6.683
						c2.638,5.478,7.237,9.661,13.695,10.446c7.092,0.867,13.989-3.148,17.912-9.169c7.112-10.886,8.967-31.626-3.699-39.011
						c-1.412-0.829-2.873-1.386-4.365-1.718c-7.025-1.546-14.493,2.146-19.319,7.75
						C348.289,132.865,345.966,140.563,346.259,148.059z"/>
				</g>
			</g>
			<path style="fill:none;stroke:#0C0A0B;stroke-width:0.75;stroke-linecap:round;stroke-miterlimit:10;" d="M365.89,143.374
				c-1.393-0.993-3.227-1.341-4.887-0.927"/>
			<path style="fill:none;stroke:#0C0A0B;stroke-width:0.75;stroke-linecap:round;stroke-miterlimit:10;" d="M356.239,143.374
				c-1.393-0.993-3.227-1.341-4.887-0.927"/>
			<g>
				<path style="fill:#0C0A0B;" d="M361.452,147.027c-0.022,0.829,0.631,1.519,1.46,1.541c0.829,0.022,1.519-0.631,1.541-1.46
					c0.023-0.829-0.631-1.519-1.46-1.541C362.165,145.545,361.475,146.198,361.452,147.027z"/>
			</g>
			<g>
				<path style="fill:#0C0A0B;" d="M352.326,146.779c-0.022,0.829,0.631,1.519,1.46,1.541c0.829,0.022,1.519-0.631,1.541-1.46
					c0.023-0.829-0.631-1.519-1.46-1.541C353.038,145.297,352.348,145.951,352.326,146.779z"/>
			</g>
			<g>
				<path style="fill:#0C0A0B;" d="M357.276,152.858c-0.225,0.761-0.984,1.259-1.668,1.565c-0.347,0.167-0.709,0.292-1.031,0.435
					c-0.154,0.072-0.316,0.151-0.389,0.217c-0.038,0.033-0.031,0.045-0.022,0.016c0,0,0.003,0.085,0.017,0.118
					c0.04,0.178,0.277,0.396,0.572,0.546c0.288,0.167,0.627,0.286,0.967,0.405c0.69,0.22,1.41,0.42,2.146,0.619
					c-0.758,0.1-1.528,0.102-2.293-0.039c-0.384-0.067-0.765-0.173-1.146-0.343c-0.354-0.186-0.805-0.431-0.967-0.999
					c-0.031-0.148-0.046-0.25-0.02-0.438c0.041-0.215,0.175-0.357,0.279-0.442c0.218-0.173,0.41-0.236,0.6-0.306
					c0.377-0.128,0.732-0.221,1.085-0.321C356.095,153.676,356.798,153.464,357.276,152.858z"/>
			</g>
			<path style="fill:#F2727C;" d="M363.989,154.528c-0.267,2.032,1.904,3.993,4.849,4.38c2.945,0.387,5.549-0.945,5.816-2.977
				c0.267-2.032-1.904-3.993-4.849-4.38S364.256,152.497,363.989,154.528z"/>
			<path style="fill:#F2727C;" d="M346.733,152.278c0.431,2.331,1.15,4.603,2.158,6.683c1.823-1.025,2.85-2.693,2.457-4.222
				C350.925,153.118,349,152.163,346.733,152.278z"/>
			<path style="fill:#FFFFFF;" d="M355.79,161.387c0,0,3.79,7.37,8.717-0.798L355.79,161.387z"/>
			<g>
				<g>
					<path style="fill:#FF848E;" d="M381.434,156.657c2.229,1.348,5.534,1.311,7.737-0.116c2.202-1.427,3.629-4.175,3.611-6.956
						c-0.016-2.495-1.269-5.033-3.356-6.054c-2.087-1.021-5.185-0.176-6.212,2.061L381.434,156.657z"/>
				</g>
			</g>
			<g>
				<path style="fill:#0C0A0B;" d="M385.098,153.398c0.869-0.398,1.638-0.927,2.243-1.583c0.599-0.653,1.019-1.462,1.058-2.29
					c0.057-0.827-0.305-1.645-0.951-2.223c-0.649-0.578-1.517-0.956-2.45-1.146c0.945-0.101,1.978,0.087,2.816,0.689
					c0.853,0.577,1.403,1.65,1.334,2.72c-0.068,1.07-0.64,2.025-1.4,2.668C386.993,152.898,386.045,153.28,385.098,153.398z"/>
			</g>
			<path style="fill:#0C0A0B;" d="M346.085,121.701c0,0,1.365,9.484,7.77,13.693c6.405,4.209,17.689,4.672,19.625,4.094
				c1.936-0.578-2.628-6.904-2.628-6.904s9.738,5.223,13.761,2.318C388.636,131.996,384.046,107.89,346.085,121.701z"/>
			<path style="fill:#0C0A0B;" d="M383.185,125.929c0,0-5.617,12.412-4.531,15.826c0.938,2.947,7.326,1.568,7.326,1.568
				S392.743,130.067,383.185,125.929z"/>
		</g>
	</g>
	<g>
		<g>
			<defs>
				<path id="SVGID_00000132809990603785713390000001880278069358691766_" d="M111.971,393.759h60.281
					c57.337,0,103.817-46.48,103.817-103.817v0c0-57.336-46.48-103.817-103.817-103.817h-60.281
					c-57.336,0-103.817,46.48-103.817,103.817v0C8.154,347.279,54.634,393.759,111.971,393.759z"/>
			</defs>
			<clipPath id="SVGID_00000131352626345225304040000008021434619545196695_">
				<use xlink:href="#SVGID_00000132809990603785713390000001880278069358691766_"  style="overflow:visible;"/>
			</clipPath>
			<g style="clip-path:url(#SVGID_00000131352626345225304040000008021434619545196695_);">
				<path style="fill:#6975ED;" d="M92.023,302.184c0,0-29.357,15.026-44.716,91.804h116.309l11.634-91.804H92.023z"/>
				
					<line style="fill:none;stroke:#0C0A0B;stroke-width:0.75;stroke-miterlimit:10;" x1="84.497" y1="308.263" x2="174.479" y2="308.263"/>
				
					<line style="opacity:0.2;fill:none;stroke:#FFFFFF;stroke-miterlimit:10;" x1="126.085" y1="355.999" x2="120.988" y2="393.988"/>
				<path style="opacity:0.2;fill:none;stroke:#FFFFFF;stroke-miterlimit:10;" d="M96.493,302.184c0,0-30.551,42.618-35.97,91.804"
					/>
				<path style="fill:#0C0A0B;" d="M136.486,343.603c0,0-10.888,29.991-25.207,50.386h-5.788l8.921-37.189
					C114.411,356.799,130.254,350.886,136.486,343.603z"/>
				<path style="fill:none;stroke:#0C0A0B;stroke-width:0.75;stroke-miterlimit:10;" d="M150.307,302.184
					c0,0-3.766,23.024-8.196,31.022c0,0,15.284-4.06,19.223-31.022"/>
			</g>
		</g>
		<g>
			<path style="fill:#0C0A0B;" d="M255.478,247.819c0,0,8.394,15.338-4.665,25.004C250.813,272.823,243.081,259.488,255.478,247.819
				z"/>
			<path style="fill:#FF848E;" d="M288.134,254.933l3.689-0.559c0,0,2.906,5.142,4.36,5.142c1.453,0,1.789-5.142,0.894-6.595
				c-0.894-1.453-5.254-5.701-7.043-5.03c-1.789,0.671-21.561,6.574-21.561,6.574l1.566,14.571c2.18,1.993,5.791,1.48,5.791,1.48
				s-0.342-1.887,1.355-3.831C279.15,264.432,288.134,254.933,288.134,254.933z"/>
			<path style="fill:#93A6FF;" d="M154.819,181.652c0,0,22.851,0.567,25.25,2.966c2.399,2.399-13.913,64.765-13.913,71.979
				c0,3.629,11.209,24.793,14.16,29.592c2.952,4.799-5.067,15.995-5.067,15.995H76.146c0,0,22.147-96.872,27.845-104.97
				c5.698-8.098,22.221-13.514,31.512-15.127L154.819,181.652z"/>
			<path style="fill:#C1CCFF;" d="M154.8,178.061c0,0,5.275,0.548,6.535,2.234c1.26,1.686-1.348,18.37-5.741,23.087l-8.613-6.206
				l-8.44,8.206c0,0-9.838-11.185-9.304-18.457c0.504-6.864,6.608-11.182,6.608-11.182L154.8,178.061z"/>
			<path style="fill:#FE7682;" d="M50.685,205.953l28.988,107.115c0,0,56.231-4.433,70.634-26.144L112.604,182.57
				C112.604,182.57,62.746,204.947,50.685,205.953z"/>
			<path style="fill:#382B71;" d="M62.666,211.653l34.23,105.557c0,0,55.944-7.198,69.26-29.592l-42.799-102.371
				C123.358,185.248,74.663,210.054,62.666,211.653z"/>
			<path style="fill:#FBCA8C;" d="M152.162,112.069c0,0,5.524-6.16,13.082-6.16c5.676,0,16.444,14.066,17.924,25.064
				c1.8,13.367-5.698,29.66-32.99,22.425C115.146,144.111,139.081,118.229,152.162,112.069z"/>
			<g>
				<g>
					<path style="fill:#FF848E;" d="M175.225,148.059c-0.062,1.421-0.215,2.827-0.474,4.219c-0.432,2.331-1.151,4.603-2.158,6.683
						c-2.638,5.478-7.237,9.661-13.695,10.446c-7.092,0.867-13.988-3.148-17.912-9.169c-7.111-10.886-8.967-31.626,3.699-39.011
						c1.412-0.829,2.873-1.386,4.365-1.718c7.025-1.546,14.493,2.146,19.319,7.75C173.195,132.865,175.518,140.563,175.225,148.059z
						"/>
				</g>
			</g>
			<path style="fill:none;stroke:#FBCA8C;stroke-width:0.75;stroke-linecap:round;stroke-miterlimit:10;" d="M155.593,143.374
				c1.393-0.993,3.227-1.341,4.887-0.927"/>
			<path style="fill:none;stroke:#FBCA8C;stroke-width:0.75;stroke-linecap:round;stroke-miterlimit:10;" d="M165.244,143.374
				c1.393-0.993,3.227-1.341,4.887-0.927"/>
			<g>
				<g>
					<path style="fill:#FF848E;" d="M137.202,147.886l-1.699,34.832c-0.393,6.431,3.255,11.879,8.323,12.432l0,0
						c5.854,0.638,11.057-5.452,10.993-12.868l-0.097-32.486L137.202,147.886z"/>
					<g>
						<g>
							<path style="fill:#0C0A0B;" d="M154.8,175.743l-0.019-6.336c0,0-7.769-0.155-13.834-8.774
								C140.946,160.633,143.174,174.337,154.8,175.743z"/>
						</g>
					</g>
					<path style="fill:#FBCA8C;" d="M142.111,103.422c-6.359,0.316-30.833,22.177-30.833,38.855
						c0,13.413,19.486,28.628,14.932,32.971c-4.554,4.343-20.72,18.398-20.72,28.595s28.813,8.398,29.102,15.595
						c0.289,7.198-5.891,10.197-5.891,10.197s18.312-2.999,16.445-14.996c-1.867-11.997-12.229-8.398-12.447-13.796
						c-0.217-5.398,24.913-14.878,4.026-43.203l1.543-12.048c0,0,14.13-1.733,19.768-14.779
						C163.674,117.767,151.178,102.972,142.111,103.422z"/>
				</g>
			</g>
			<g>
				<path style="fill:#0C0A0B;" d="M160.031,147.027c0.023,0.829-0.631,1.519-1.46,1.541c-0.829,0.022-1.519-0.631-1.541-1.46
					c-0.022-0.829,0.631-1.519,1.46-1.541C159.319,145.545,160.009,146.198,160.031,147.027z"/>
			</g>
			<g>
				<path style="fill:#0C0A0B;" d="M169.158,146.779c0.022,0.829-0.631,1.519-1.46,1.541c-0.829,0.022-1.519-0.631-1.541-1.46
					c-0.022-0.829,0.631-1.519,1.46-1.541C168.445,145.297,169.136,145.951,169.158,146.779z"/>
			</g>
			<g>
				<path style="fill:#0C0A0B;" d="M164.208,152.858c0.478,0.606,1.18,0.819,1.869,1.033c0.353,0.1,0.708,0.192,1.085,0.321
					c0.191,0.07,0.382,0.133,0.6,0.306c0.104,0.085,0.238,0.227,0.279,0.442c0.026,0.188,0.011,0.29-0.02,0.438
					c-0.162,0.567-0.613,0.813-0.967,0.999c-0.381,0.171-0.762,0.277-1.146,0.343c-0.764,0.141-1.535,0.139-2.293,0.039
					c0.736-0.199,1.457-0.398,2.146-0.619c0.34-0.119,0.679-0.238,0.968-0.405c0.295-0.149,0.532-0.367,0.572-0.546
					c0.014-0.033,0.017-0.118,0.017-0.118c0.009,0.029,0.016,0.017-0.022-0.016c-0.073-0.066-0.235-0.145-0.389-0.217
					c-0.321-0.143-0.683-0.268-1.031-0.435C165.192,154.116,164.433,153.619,164.208,152.858z"/>
			</g>
			<path style="fill:#F2727C;" d="M157.495,154.528c0.267,2.032-1.904,3.993-4.849,4.38c-2.945,0.387-5.549-0.945-5.816-2.977
				c-0.267-2.032,1.904-3.993,4.849-4.38C154.624,151.164,157.228,152.497,157.495,154.528z"/>
			<path style="fill:#F2727C;" d="M174.751,152.278c-0.432,2.331-1.151,4.603-2.158,6.683c-1.823-1.025-2.851-2.693-2.457-4.222
				C170.559,153.118,172.484,152.163,174.751,152.278z"/>
			<path style="fill:#FFFFFF;" d="M165.693,161.387c0,0-3.79,7.37-8.717-0.798L165.693,161.387z"/>
			<g>
				<g>
					<path style="fill:#FF848E;" d="M140.05,156.657c-2.229,1.348-5.534,1.311-7.737-0.116c-2.202-1.427-3.629-4.175-3.611-6.956
						c0.016-2.495,1.269-5.033,3.356-6.054c2.087-1.021,5.185-0.176,6.211,2.061L140.05,156.657z"/>
				</g>
			</g>
			<g>
				<path style="fill:#0C0A0B;" d="M136.385,153.398c-0.947-0.118-1.895-0.5-2.649-1.164c-0.76-0.643-1.333-1.598-1.4-2.668
					c-0.069-1.07,0.481-2.143,1.334-2.72c0.838-0.602,1.871-0.79,2.816-0.689c-0.934,0.19-1.801,0.567-2.45,1.146
					c-0.647,0.579-1.009,1.397-0.951,2.223c0.039,0.827,0.46,1.637,1.058,2.29C134.747,152.471,135.516,152.999,136.385,153.398z"/>
			</g>
			<path style="fill:#0C0A0B;" d="M86.896,255.228c0,0,18.126,15.947,9.597,25.193C96.493,280.421,79.098,272.023,86.896,255.228z"
				/>
			<path style="fill:#FF848E;" d="M131.916,239.523l-47.42,19.704c0,0,2.799,14.396,10.397,18.795l44.859-26.114L131.916,239.523z"
				/>
			<path style="fill:#FF848E;" d="M268.474,254.464l-51.247-3.249c0,0-3.842,14.153,1.034,21.454l51.779-3.634L268.474,254.464z"/>
			<path style="fill:#93A6FF;" d="M59.431,238.216c0,0-30.119,32.208-12.124,45.404c8.24,6.043,49.186-3.199,49.186-3.199
				s-12.796-17.995-9.597-25.193l-21.854,3.458L59.431,238.216z"/>
			<path style="fill:#FF848E;" d="M131.916,239.523c0,0,3.318-5.142,6.563-8.016c0.679-0.601,11.466-5.424,12.108-4.567
				c0.642,0.856-0.447,2.868-1.356,3.533c0,0,0.845,1.734,0.615,2.189c-0.229,0.455-0.413,1.943-0.413,1.943
				s1.358,0.119,1.171,1.071c-0.186,0.952-0.407,1.971-0.407,1.971s1.852,1.057,2.054,1.682c0.606,1.873-3.916,10.269-12.5,12.579
				L131.916,239.523z"/>
			
				<line style="fill:none;stroke:#0C0A0B;stroke-width:0.75;stroke-miterlimit:10;" x1="65.042" y1="258.686" x2="56.005" y2="260.227"/>
			<path style="fill:#93A6FF;" d="M180.069,184.618c7.069,0.378,25.593,63.201,25.593,63.201h49.816c0,0-4.665,12.408-4.665,25.004
				c0,0-49.35,0-56.548,0.6c-7.198,0.6-24.277-34.852-29.021-50.186C161.626,211.543,168.273,183.988,180.069,184.618z"/>
			<path style="fill:#0C0A0B;" d="M170.109,236.101c0,0,11.46-7.082,10.86-23.261c0,0,7.198,22.993-3.402,39.068L170.109,236.101z"
				/>
			<path style="fill:none;stroke:#0C0A0B;stroke-width:0.75;stroke-miterlimit:10;" d="M165.693,258.686
				c0,0-6.015-14.096-5.661-15.585c0.353-1.49,4.623,0.496,4.226,2.234"/>
			
				<line style="fill:none;stroke:#0C0A0B;stroke-width:0.75;stroke-miterlimit:10;" x1="205.662" y1="247.819" x2="201.015" y2="255.228"/>
			<path style="fill:none;stroke:#0C0A0B;stroke-width:0.75;stroke-miterlimit:10;" d="M78.508,256.555
				c0,0-1.302,15.931,5.988,26.228"/>
			<path style="fill:none;stroke:#0C0A0B;stroke-width:0.75;stroke-miterlimit:10;" d="M245.368,247.819
				c0,0-4.908,14.038-2.454,24.851"/>
		</g>
	</g>
	<g>
		<g>
			<g>
				<polygon style="fill:none;stroke:#382B71;stroke-width:0.75;stroke-miterlimit:10;" points="401.736,156.778 411.617,185.872 
					463.685,185.872 453.803,156.778 				"/>
			</g>
			<polygon style="fill:#C1CCFF;" points="412.326,150.801 422.208,179.895 474.275,179.895 464.393,150.801 			"/>
			<polygon style="fill:#C1CCFF;" points="457.766,192.28 474.275,179.895 457.766,179.895 			"/>
		</g>
	</g>
	<rect x="457.022" y="166.62" style="fill:#FEFEFE;" width="9.89" height="2.354"/>
	<rect x="449.506" y="172.429" style="fill:#FEFEFE;" width="17.407" height="2.354"/>
	
		<ellipse transform="matrix(0.7071 -0.7071 0.7071 0.7071 -63.2818 87.8007)" style="fill:none;stroke:#382B71;stroke-width:0.75;stroke-miterlimit:10;" cx="74.344" cy="120.288" rx="30.41" ry="30.41"/>
	<circle style="fill:#DBE3FF;" cx="63.724" cy="114.635" r="30.41"/>
	<polygon style="fill:#DBE3FF;" points="74.207,140.076 95.706,150.325 86.352,128.275 	"/>
	<g>
		<path style="fill:#F2727C;" d="M63.724,130.486c-8.753,0-15.851-7.092-15.851-15.851c0-8.753,7.098-15.851,15.851-15.851
			c6.025,0,11.266,3.366,13.95,8.311c1.213,2.242,1.901,4.812,1.901,7.54C79.575,123.394,72.477,130.486,63.724,130.486z"/>
		<path style="fill:#FEFEFE;" d="M63.724,114.635V98.784c6.025,0,11.266,3.366,13.95,8.311L63.724,114.635z"/>
		<path style="fill:#382B71;" d="M79.575,114.635H63.724l13.95-7.54C78.887,109.337,79.575,111.907,79.575,114.635z"/>
	</g>
</g>
</svg>
